<svg width="190" height="346" viewBox="0 0 190 346" fill="none" xmlns="http://www.w3.org/2000/svg">
<g clip-path="url(#clip0_242_1262)">
<path d="M81.7756 327.078L161.392 327.078L161.392 325.186L161.392 323.294L81.7756 323.294L2.15907 323.294L2.15907 325.186L2.15907 327.078L81.7756 327.078Z" fill="#0029FF"/>
<path d="M81.7756 320.591L161.392 320.591L161.392 319.78L161.392 318.969L81.7756 318.969L2.15907 318.969L2.15907 319.78L2.15907 320.591L81.7756 320.591Z" fill="#0029FF"/>
<path d="M81.7756 314.373L161.392 314.373L161.392 313.562L161.392 312.752L81.7756 312.752L2.15907 312.752L2.15907 313.562L2.15907 314.373L81.7756 314.373Z" fill="#0029FF"/>
<path d="M81.7756 303.561L161.392 303.561L161.392 299.641L161.392 295.722L81.7756 295.722L2.15907 295.722L2.15907 299.641L2.15907 303.561L81.7756 303.561Z" fill="#0029FF"/>
<path d="M81.7756 293.019L161.392 293.019L161.392 292.208L161.392 291.397L81.7756 291.397L2.15907 291.397L2.15907 292.208L2.15907 293.019L81.7756 293.019Z" fill="#0029FF"/>
<path d="M81.7756 288.694L161.392 288.694L161.392 285.72L161.392 282.747L81.7756 282.747L2.15907 282.747L2.15907 285.72L2.15907 288.694L81.7756 288.694Z" fill="#0029FF"/>
<path d="M81.7756 280.044L161.392 280.044L161.392 277.205L161.392 274.367L81.7756 274.367L2.15907 274.367L2.15907 277.205L2.15907 280.044L81.7756 280.044Z" fill="#0029FF"/>
<path d="M81.7756 271.664L161.392 271.664L161.392 270.853L161.392 270.042L81.7756 270.042L2.15907 270.042L2.15907 270.853L2.15907 271.664L81.7756 271.664Z" fill="#0029FF"/>
<path d="M81.7756 263.284L161.392 263.284L161.392 261.392L161.392 259.5L81.7756 259.5L2.15907 259.5L2.15907 261.392L2.15907 263.284L81.7756 263.284Z" fill="#0029FF"/>
<path d="M81.7756 256.797L161.392 256.797L161.392 255.986L161.392 255.175L81.7756 255.175L2.15907 255.175L2.15907 255.986L2.15907 256.797L81.7756 256.797Z" fill="#0029FF"/>
<path d="M81.7756 246.255L161.392 246.255L161.392 244.363L161.392 242.47L81.7756 242.47L2.15907 242.47L2.15907 244.363L2.15907 246.255L81.7756 246.255Z" fill="#0029FF"/>
<path d="M81.7756 239.767L161.392 239.767L161.392 238.956L161.392 238.145L81.7756 238.145L2.15907 238.145L2.15907 238.956L2.15907 239.767L81.7756 239.767Z" fill="#0029FF"/>
<path d="M81.7756 233.28L161.392 233.28L161.392 231.523L161.392 229.766L81.7756 229.766L2.15907 229.766L2.15907 231.523L2.15907 233.28L81.7756 233.28Z" fill="#0029FF"/>
<path d="M81.7756 220.575L161.392 220.575L161.392 219.764L161.392 218.953L81.7756 218.953L2.15907 218.953L2.15907 219.764L2.15907 220.575L81.7756 220.575Z" fill="#0029FF"/>
<path d="M81.7756 214.087L161.392 214.087L161.392 213.277L161.392 212.466L81.7756 212.466L2.15907 212.466L2.15907 213.277L2.15907 214.087L81.7756 214.087Z" fill="#0029FF"/>
<path d="M81.7756 209.763L161.392 209.763L161.392 209.087L161.392 208.411L81.7756 208.411L2.15907 208.411L2.15907 209.087L2.15907 209.763L81.7756 209.763Z" fill="#0029FF"/>
<path d="M81.7756 199.22L161.392 199.22L161.392 197.328L161.392 195.436L81.7756 195.436L2.15907 195.436L2.15907 197.328L2.15907 199.22L81.7756 199.22Z" fill="#0029FF"/>
<path d="M81.7756 193.003L161.392 193.003L161.392 192.192L161.392 191.381L81.7756 191.381L2.15907 191.381L2.15907 192.192L2.15907 193.003L81.7756 193.003Z" fill="#0029FF"/>
<path d="M81.7756 186.516L161.392 186.516L161.392 185.705L161.392 184.894L81.7756 184.894L2.15907 184.894L2.15907 185.705L2.15907 186.516L81.7756 186.516Z" fill="#0029FF"/>
<path d="M81.7756 182.191L161.392 182.191L161.392 181.38L161.392 180.569L81.7756 180.569L2.15907 180.569L2.15907 181.38L2.15907 182.191L81.7756 182.191Z" fill="#0029FF"/>
<path d="M81.7756 175.973L161.392 175.973L161.392 171.919L161.392 167.864L81.7756 167.864L2.15907 167.864L2.15907 171.919L2.15907 175.973L81.7756 175.973Z" fill="#0029FF"/>
<path d="M81.7756 162.998L161.392 162.998L161.392 162.187L161.392 161.377L81.7756 161.377L2.15907 161.377L2.15907 162.187L2.15907 162.998L81.7756 162.998Z" fill="#0029FF"/>
<path d="M81.7756 158.673L161.392 158.673L161.392 156.916L161.392 155.159L81.7756 155.159L2.15907 155.159L2.15907 156.916L2.15907 158.673L81.7756 158.673Z" fill="#0029FF"/>
<path d="M81.7756 150.294L161.392 150.294L161.392 149.483L161.392 148.672L81.7756 148.672L2.15907 148.672L2.15907 149.483L2.15907 150.294L81.7756 150.294Z" fill="#0029FF"/>
<path d="M81.7756 139.752L161.392 139.752L161.392 138.941L161.392 138.13L81.7756 138.13L2.15907 138.13L2.15907 138.941L2.15907 139.752L81.7756 139.752Z" fill="#0029FF"/>
<path d="M81.7756 129.209L161.392 129.209L161.392 128.398L161.392 127.587L81.7756 127.587L2.15907 127.587L2.15907 128.398L2.15907 129.209L81.7756 129.209Z" fill="#0029FF"/>
<path d="M81.7756 122.722L161.392 122.722L161.392 120.83L161.392 118.937L81.7756 118.937L2.15907 118.937L2.15907 120.83L2.15907 122.722L81.7756 122.722Z" fill="#0029FF"/>
<path d="M81.7756 116.234L161.392 116.234L161.392 115.423L161.392 114.612L81.7756 114.613L2.15907 114.613L2.15907 115.423L2.15907 116.234L81.7756 116.234Z" fill="#0029FF"/>
<path d="M81.7756 105.692L161.392 105.692L161.392 103.8L161.392 101.908L81.7756 101.908L2.15907 101.908L2.15907 103.8L2.15907 105.692L81.7756 105.692Z" fill="#0029FF"/>
<path d="M81.7756 99.2047L161.392 99.2047L161.392 98.3937L161.392 97.5828L81.7756 97.5828L2.15907 97.5828L2.15907 98.3937L2.15907 99.2047L81.7756 99.2047Z" fill="#0029FF"/>
<path d="M81.7756 92.8524L161.392 92.8524L161.392 92.0955L161.392 91.3656L81.7756 91.3656L2.15907 91.3656L2.15907 92.0955L2.15907 92.8524L81.7756 92.8524Z" fill="#0029FF"/>
<path d="M81.7756 86.5L161.392 86.5L161.392 85.6891L161.392 84.8781L81.7756 84.8781L2.15907 84.8781L2.15907 85.6891L2.15907 86.5L81.7756 86.5Z" fill="#0029FF"/>
<path d="M81.7756 82.175L161.392 82.175L161.392 80.2828L161.392 78.3906L81.7756 78.3906L2.15907 78.3906L2.15907 80.2828L2.15907 82.175L81.7756 82.175Z" fill="#0029FF"/>
<path d="M81.7756 69.4703L161.392 69.4703L161.392 68.6593L161.392 67.8484L81.7756 67.8484L2.15907 67.8484L2.15907 68.6593L2.15907 69.4703L81.7756 69.4703Z" fill="#0029FF"/>
<path d="M81.7756 65.1453L161.392 65.1453L161.392 61.2258L161.392 57.3063L81.7756 57.3063L2.15907 57.3063L2.15907 61.2258L2.15907 65.1453L81.7756 65.1453Z" fill="#0029FF"/>
<path d="M81.7756 54.6031L161.392 54.6031L161.392 51.6297L161.392 48.6562L81.7756 48.6562L2.15907 48.6562L2.15907 51.6297L2.15907 54.6031L81.7756 54.6031Z" fill="#0029FF"/>
<path d="M81.7756 45.9531L161.392 45.9531L161.392 44.0609L161.392 42.1687L81.7756 42.1688L2.15907 42.1688L2.15907 44.0609L2.15907 45.9531L81.7756 45.9531Z" fill="#0029FF"/>
<path d="M81.7756 35.411L161.392 35.4109L161.392 32.4375L161.392 29.4641L81.7756 29.4641L2.15907 29.4641L2.15907 32.4375L2.15907 35.411L81.7756 35.411Z" fill="#0029FF"/>
<path d="M81.7756 27.0313L161.392 27.0312L161.392 26.2203L161.392 25.4094L81.7756 25.4094L2.15907 25.4094L2.15907 26.2203L2.15907 27.0313L81.7756 27.0313Z" fill="#0029FF"/>
<path d="M81.7756 22.7062L161.392 22.7062L161.392 20.814L161.392 18.9218L81.7756 18.9218L2.15907 18.9218L2.15907 20.814L2.15907 22.7062L81.7756 22.7062Z" fill="#0029FF"/>
</g>
<defs>
<clipPath id="clip0_242_1262">
<rect width="346" height="190" fill="white" transform="translate(0 346) rotate(-90)"/>
</clipPath>
</defs>
</svg>
