<svg width="160" height="310" viewBox="0 0 160 310" fill="none" xmlns="http://www.w3.org/2000/svg">
<path d="M79.7756 309.078L159.392 309.078L159.392 307.186L159.392 305.294L79.7756 305.294L0.159073 305.294L0.159073 307.186L0.159073 309.078L79.7756 309.078Z" fill="#0029FF"/>
<path d="M79.7756 302.591L159.392 302.591L159.392 301.78L159.392 300.969L79.7756 300.969L0.159073 300.969L0.159073 301.78L0.159073 302.591L79.7756 302.591Z" fill="#0029FF"/>
<path d="M79.7756 296.373L159.392 296.373L159.392 295.562L159.392 294.752L79.7756 294.752L0.159073 294.752L0.159073 295.562L0.159073 296.373L79.7756 296.373Z" fill="#0029FF"/>
<path d="M79.7756 285.561L159.392 285.561L159.392 281.641L159.392 277.722L79.7756 277.722L0.159073 277.722L0.159073 281.641L0.159073 285.561L79.7756 285.561Z" fill="#0029FF"/>
<path d="M79.7756 275.019L159.392 275.019L159.392 274.208L159.392 273.397L79.7756 273.397L0.159073 273.397L0.159073 274.208L0.159073 275.019L79.7756 275.019Z" fill="#0029FF"/>
<path d="M79.7756 270.694L159.392 270.694L159.392 267.72L159.392 264.747L79.7756 264.747L0.159073 264.747L0.159073 267.72L0.159073 270.694L79.7756 270.694Z" fill="#0029FF"/>
<path d="M79.7756 262.044L159.392 262.044L159.392 259.205L159.392 256.367L79.7756 256.367L0.159073 256.367L0.159073 259.205L0.159073 262.044L79.7756 262.044Z" fill="#0029FF"/>
<path d="M79.7756 253.664L159.392 253.664L159.392 252.853L159.392 252.042L79.7756 252.042L0.159073 252.042L0.159073 252.853L0.159073 253.664L79.7756 253.664Z" fill="#0029FF"/>
<path d="M79.7756 245.284L159.392 245.284L159.392 243.392L159.392 241.5L79.7756 241.5L0.159073 241.5L0.159073 243.392L0.159073 245.284L79.7756 245.284Z" fill="#0029FF"/>
<path d="M79.7756 238.797L159.392 238.797L159.392 237.986L159.392 237.175L79.7756 237.175L0.159073 237.175L0.159073 237.986L0.159073 238.797L79.7756 238.797Z" fill="#0029FF"/>
<path d="M79.7756 228.255L159.392 228.255L159.392 226.363L159.392 224.47L79.7756 224.47L0.159073 224.47L0.159073 226.363L0.159073 228.255L79.7756 228.255Z" fill="#0029FF"/>
<path d="M79.7756 221.767L159.392 221.767L159.392 220.956L159.392 220.145L79.7756 220.145L0.159073 220.145L0.159073 220.956L0.159073 221.767L79.7756 221.767Z" fill="#0029FF"/>
<path d="M79.7756 215.28L159.392 215.28L159.392 213.523L159.392 211.766L79.7756 211.766L0.159073 211.766L0.159073 213.523L0.159073 215.28L79.7756 215.28Z" fill="#0029FF"/>
<path d="M79.7756 202.575L159.392 202.575L159.392 201.764L159.392 200.953L79.7756 200.953L0.159073 200.953L0.159073 201.764L0.159073 202.575L79.7756 202.575Z" fill="#0029FF"/>
<path d="M79.7756 196.087L159.392 196.087L159.392 195.277L159.392 194.466L79.7756 194.466L0.159073 194.466L0.159073 195.277L0.159073 196.087L79.7756 196.087Z" fill="#0029FF"/>
<path d="M79.7756 191.763L159.392 191.763L159.392 191.087L159.392 190.411L79.7756 190.411L0.159073 190.411L0.159073 191.087L0.159073 191.763L79.7756 191.763Z" fill="#0029FF"/>
<path d="M79.7756 181.22L159.392 181.22L159.392 179.328L159.392 177.436L79.7756 177.436L0.159073 177.436L0.159073 179.328L0.159073 181.22L79.7756 181.22Z" fill="#0029FF"/>
<path d="M79.7756 175.003L159.392 175.003L159.392 174.192L159.392 173.381L79.7756 173.381L0.159073 173.381L0.159073 174.192L0.159073 175.003L79.7756 175.003Z" fill="#0029FF"/>
<path d="M79.7756 168.516L159.392 168.516L159.392 167.705L159.392 166.894L79.7756 166.894L0.159073 166.894L0.159073 167.705L0.159073 168.516L79.7756 168.516Z" fill="#0029FF"/>
<path d="M79.7756 164.191L159.392 164.191L159.392 163.38L159.392 162.569L79.7756 162.569L0.159073 162.569L0.159073 163.38L0.159073 164.191L79.7756 164.191Z" fill="#0029FF"/>
<path d="M79.7756 157.973L159.392 157.973L159.392 153.919L159.392 149.864L79.7756 149.864L0.159073 149.864L0.159073 153.919L0.159073 157.973L79.7756 157.973Z" fill="#0029FF"/>
<path d="M79.7756 144.998L159.392 144.998L159.392 144.187L159.392 143.377L79.7756 143.377L0.159073 143.377L0.159073 144.187L0.159073 144.998L79.7756 144.998Z" fill="#0029FF"/>
<path d="M79.7756 140.673L159.392 140.673L159.392 138.916L159.392 137.159L79.7756 137.159L0.159073 137.159L0.159073 138.916L0.159073 140.673L79.7756 140.673Z" fill="#0029FF"/>
<path d="M79.7756 132.294L159.392 132.294L159.392 131.483L159.392 130.672L79.7756 130.672L0.159073 130.672L0.159073 131.483L0.159073 132.294L79.7756 132.294Z" fill="#0029FF"/>
<path d="M79.7756 121.752L159.392 121.752L159.392 120.941L159.392 120.13L79.7756 120.13L0.159073 120.13L0.159073 120.941L0.159073 121.752L79.7756 121.752Z" fill="#0029FF"/>
<path d="M79.7756 111.209L159.392 111.209L159.392 110.398L159.392 109.587L79.7756 109.587L0.159073 109.587L0.159073 110.398L0.159073 111.209L79.7756 111.209Z" fill="#0029FF"/>
<path d="M79.7756 104.722L159.392 104.722L159.392 102.83L159.392 100.937L79.7756 100.937L0.159073 100.937L0.159073 102.83L0.159073 104.722L79.7756 104.722Z" fill="#0029FF"/>
<path d="M79.7756 98.2344L159.392 98.2344L159.392 97.4234L159.392 96.6125L79.7756 96.6125L0.159073 96.6125L0.159073 97.4234L0.159073 98.2344L79.7756 98.2344Z" fill="#0029FF"/>
<path d="M79.7756 87.6922L159.392 87.6922L159.392 85.8L159.392 83.9078L79.7756 83.9078L0.159073 83.9078L0.159073 85.8L0.159073 87.6922L79.7756 87.6922Z" fill="#0029FF"/>
<path d="M79.7756 81.2047L159.392 81.2047L159.392 80.3937L159.392 79.5828L79.7756 79.5828L0.159073 79.5828L0.159073 80.3937L0.159073 81.2047L79.7756 81.2047Z" fill="#0029FF"/>
<path d="M79.7756 74.8524L159.392 74.8524L159.392 74.0955L159.392 73.3656L79.7756 73.3656L0.159073 73.3656L0.159073 74.0955L0.159073 74.8524L79.7756 74.8524Z" fill="#0029FF"/>
<path d="M79.7756 68.5L159.392 68.5L159.392 67.6891L159.392 66.8781L79.7756 66.8781L0.159073 66.8781L0.159073 67.6891L0.159073 68.5L79.7756 68.5Z" fill="#0029FF"/>
<path d="M79.7756 64.175L159.392 64.175L159.392 62.2828L159.392 60.3906L79.7756 60.3906L0.159073 60.3906L0.159073 62.2828L0.159073 64.175L79.7756 64.175Z" fill="#0029FF"/>
<path d="M79.7756 51.4703L159.392 51.4703L159.392 50.6593L159.392 49.8484L79.7756 49.8484L0.159073 49.8484L0.159073 50.6593L0.159073 51.4703L79.7756 51.4703Z" fill="#0029FF"/>
<path d="M79.7756 47.1453L159.392 47.1453L159.392 43.2258L159.392 39.3063L79.7756 39.3063L0.159073 39.3063L0.159073 43.2258L0.159073 47.1453L79.7756 47.1453Z" fill="#0029FF"/>
<path d="M79.7756 36.6031L159.392 36.6031L159.392 33.6297L159.392 30.6562L79.7756 30.6562L0.159073 30.6562L0.159073 33.6297L0.159073 36.6031L79.7756 36.6031Z" fill="#0029FF"/>
<path d="M79.7756 27.9531L159.392 27.9531L159.392 26.0609L159.392 24.1687L79.7756 24.1688L0.159073 24.1688L0.159073 26.0609L0.159073 27.9531L79.7756 27.9531Z" fill="#0029FF"/>
<path d="M79.7756 17.411L159.392 17.4109L159.392 14.4375L159.392 11.4641L79.7756 11.4641L0.159073 11.4641L0.159073 14.4375L0.159073 17.411L79.7756 17.411Z" fill="#0029FF"/>
<path d="M79.7756 9.03125L159.392 9.03125L159.392 8.22031L159.392 7.40937L79.7756 7.40938L0.159073 7.40938L0.159073 8.22032L0.159073 9.03126L79.7756 9.03125Z" fill="#0029FF"/>
<path d="M79.7756 4.70618L159.392 4.70618L159.392 2.81399L159.392 0.921802L79.7756 0.921805L0.159073 0.921809L0.159073 2.814L0.159073 4.70618L79.7756 4.70618Z" fill="#0029FF"/>
</svg>
