<svg width="1340" height="296" viewBox="0 0 1340 296" fill="none" xmlns="http://www.w3.org/2000/svg">
<line x1="-1.31134e-07" y1="227.5" x2="1339" y2="227.5" stroke="#131313" stroke-width="3" stroke-dasharray="6 6"/>
<line x1="1.00073" y1="59.5" x2="1340" y2="59.4999" stroke="#0E0E0E" stroke-width="3" stroke-dasharray="6 6"/>
<line y1="-1.5" x2="300.008" y2="-1.5" transform="matrix(-0.190946 0.9816 -0.981654 -0.190672 245.426 0)" stroke="black" stroke-width="3" stroke-dasharray="6 6"/>
<line y1="-1.5" x2="300.008" y2="-1.5" transform="matrix(-0.190946 0.9816 -0.981654 -0.190672 452.823 0)" stroke="black" stroke-width="3" stroke-dasharray="6 6"/>
<line y1="-1.5" x2="300.008" y2="-1.5" transform="matrix(-0.190946 0.9816 -0.981654 -0.190672 660.221 0)" stroke="black" stroke-width="3" stroke-dasharray="6 6"/>
<line y1="-1.5" x2="300.008" y2="-1.5" transform="matrix(-0.190946 0.9816 -0.981654 -0.190672 867.618 0)" stroke="black" stroke-width="3" stroke-dasharray="6 6"/>
<line y1="-1.5" x2="300.008" y2="-1.5" transform="matrix(-0.190946 0.9816 -0.981654 -0.190672 1075.02 0)" stroke="black" stroke-width="3" stroke-dasharray="6 6"/>
<line y1="-1.5" x2="300.008" y2="-1.5" transform="matrix(-0.190946 0.9816 -0.981654 -0.190672 1282.41 0)" stroke="black" stroke-width="3" stroke-dasharray="6 6"/>
</svg>
