<svg width="1343" height="398" viewBox="0 0 1343 398" fill="none" xmlns="http://www.w3.org/2000/svg">
<path d="M6.27588 0.694824L1198.83 88.6039C1214.8 89.7813 1226.8 103.684 1225.62 119.657L1224.49 134.996C1223.31 150.969 1209.41 162.963 1193.44 161.786L0.881306 73.8765L6.27588 0.694824Z" fill="#FF5C00"/>
<ellipse cx="1269.18" cy="127.786" rx="71" ry="35" transform="rotate(4 1269.18 127.786)" fill="#FF5C00"/>
<path d="M1 324.952H1197C1213.02 324.952 1226 337.936 1226 353.952V368.952C1226 384.968 1213.02 397.952 1197 397.952H1V324.952Z" fill="#FF5C00"/>
<ellipse cx="1270" cy="360.952" rx="71" ry="35" fill="#FF5C00"/>
<path d="M1 211.952H1197C1213.02 211.952 1226 224.936 1226 240.952V255.952C1226 271.968 1213.02 284.952 1197 284.952H1V211.952Z" fill="#FF5C00"/>
<ellipse cx="1270" cy="247.952" rx="71" ry="35" fill="#FF5C00"/>
</svg>
