<svg width="320" height="120" viewBox="0 0 320 120" fill="none" xmlns="http://www.w3.org/2000/svg">
<path fill-rule="evenodd" clip-rule="evenodd" d="M37.4156 0.146145C34.9609 0.506187 33.1921 1.25648 31.7488 2.54981C30.1049 4.02289 29.1921 5.78842 28.6822 8.48165C28.4304 9.81107 28.4374 15.3817 28.6931 17.1529C29.1581 20.3749 30.2275 23.0277 32.177 25.7957C32.5818 26.3703 34.4545 28.6986 36.3386 30.9697C40.2913 35.7344 40.9342 36.5393 41.6279 37.5928C42.8589 39.4622 43.2426 40.6917 43.3957 43.2564C43.5094 45.161 43.438 47.5162 43.2359 48.5237C42.8753 50.3221 42.0924 51.0182 40.4131 51.0333C39.6571 51.04 39.5033 51.0106 38.9801 50.7591C38.5519 50.5532 38.3078 50.3561 38.0738 50.0273C37.4011 49.082 37.417 49.2458 37.3592 42.697L37.307 36.7771L32.6322 36.7529L27.9574 36.7286L27.9929 43.6517C28.0324 51.3788 28.0248 51.2805 28.7443 53.2882C29.2964 54.8289 29.8154 55.6269 30.9821 56.7287C32.3646 58.0343 33.5637 58.6608 35.6196 59.1517C36.9572 59.471 38.075 59.5705 40.3212 59.5705C42.5674 59.5705 43.6851 59.471 45.0228 59.1517C48.5836 58.3015 51.1698 55.9998 52.4074 52.5791C53.2575 50.2292 53.4158 48.9923 53.4154 44.7014C53.4151 41.0485 53.3634 40.3377 52.9613 38.4552C52.5059 36.3235 51.558 34.2602 50.026 32.0658C49.1429 30.8008 48.3397 29.7956 43.584 24.005C39.7315 19.3141 38.9517 18.1209 38.4024 16.0766C38.1521 15.1456 38.0179 13.3107 38.082 11.6991C38.1737 9.3936 38.4928 8.57479 39.4793 8.11322C39.8874 7.9222 40.1123 7.88388 40.8127 7.88621C41.7932 7.88938 42.2899 8.07761 42.771 8.6283C43.3908 9.33757 43.4107 9.5174 43.4584 14.8455L43.5016 19.67H48.0469H52.5923L52.5456 13.82C52.5085 9.15578 52.4688 7.81741 52.3503 7.21712C51.7141 3.99315 50.4377 2.19723 47.9802 1.06844C46.9756 0.606872 45.6364 0.252889 44.3237 0.101955C43.0606 -0.0432928 38.5091 -0.0142054 37.4156 0.146145ZM0 29.7385V58.9185H4.74367H9.48734V46.0998V33.2811H12.6498H15.8122V46.0998V58.9185H20.5559H25.2996V29.7385V0.558487H20.5559H15.8122V12.2118V23.8652H12.6498H9.48734V12.2118V0.558487H4.74367H0V29.7385ZM56.1334 29.7385V58.9185H67.0537H77.9741V54.4902V50.062H71.748H65.5219V41.6249V33.1879H70.2162H74.9104V28.7596V24.3313H70.2162H65.5219V16.6867V9.04213H71.5009H77.4799V4.80031V0.558487H66.8067H56.1334V29.7385ZM94.4326 0.67502C94.411 0.739161 92.7203 13.7338 90.6757 29.552C88.631 45.3703 86.933 58.4488 86.9022 58.6155L86.8464 58.9185H91.0844H95.3223L95.9013 53.7677C96.2197 50.9347 96.5025 48.4806 96.5297 48.3139L96.5793 48.011H99.9759C102.627 48.011 103.373 48.0365 103.373 48.1275C103.373 48.1916 103.64 50.5724 103.965 53.4181C104.291 56.2639 104.557 58.6657 104.558 58.7554C104.558 58.9083 104.841 58.9185 109.104 58.9185C113.499 58.9185 113.65 58.9126 113.65 58.742C113.65 58.645 111.849 45.5302 109.648 29.5981C107.447 13.6659 105.645 0.61433 105.645 0.594566C105.645 0.574708 103.131 0.558487 100.059 0.558487C95.6761 0.558487 94.4635 0.583565 94.4326 0.67502ZM115.133 29.7352V58.9185H119.876H124.62V45.9048V32.8911L126.523 32.9306C128.763 32.9772 129.15 33.07 129.74 33.7021C130.431 34.4425 130.386 33.7008 130.455 45.6337C130.522 57.3364 130.507 57.0046 131.062 58.325L131.292 58.8719L136.01 58.8961C141.427 58.9239 140.915 59.0337 140.477 57.9376C139.864 56.3999 139.905 57.2824 139.842 44.1887C139.785 32.296 139.783 32.2039 139.572 31.4988C139.027 29.6748 138.037 28.5093 136.251 27.5872L135.776 27.3418L136.095 27.2169C136.586 27.025 137.528 26.2719 138.063 25.6428C138.648 24.9552 139.053 24.1769 139.381 23.1092C139.822 21.674 139.857 20.9368 139.814 13.9832C139.775 7.69668 139.767 7.47629 139.554 6.57796C138.762 3.24342 137.024 1.5479 133.613 0.781392C132.936 0.629246 132.106 0.612092 124.002 0.583378L115.133 0.551868V29.7352ZM141.519 4.80031V9.04213H145.473H149.426V33.9803V58.9185H154.12H158.814V33.9803V9.04213H162.767H166.72V4.80031V0.558487H154.12H141.519V4.80031ZM183.027 0.621602C183.027 0.656375 181.337 13.7153 179.271 29.6416C177.206 45.5679 175.516 58.6704 175.516 58.7584C175.516 58.9072 175.813 58.9185 179.716 58.9185C182.026 58.9185 183.919 58.8871 183.922 58.8486C183.925 58.8101 184.204 56.3664 184.541 53.4181L185.155 48.0576H188.559H191.964L192.58 53.4647C192.918 56.4387 193.198 58.8823 193.201 58.8952C193.203 58.9081 195.257 58.9185 197.764 58.9185H202.322L202.273 58.6621C202.246 58.5211 200.428 45.3902 198.233 29.4822L194.243 0.558766L188.635 0.55858C185.55 0.55858 183.027 0.586921 183.027 0.621602ZM203.78 29.7385V58.9185H208.029H212.279L212.304 42.2752L212.329 25.6318L216.776 42.2742L221.223 58.9166L225.102 58.9176L228.981 58.9185V29.7385V0.558487H224.632H220.284L220.278 16.0108L220.272 31.4632L216.324 16.174C214.152 7.76492 212.351 0.811318 212.321 0.721634C212.27 0.569581 211.977 0.558487 208.023 0.558487H203.78V29.7385ZM232.341 29.7385V58.9185L240.321 58.9181C249.09 58.9178 249.298 58.9068 251.066 58.3508C252.436 57.92 253.309 57.411 254.33 56.4473C255.586 55.2615 256.304 54.0158 256.805 52.1515C257.361 50.0842 257.344 50.7955 257.342 29.4774C257.34 8.4343 257.351 8.93632 256.849 7.08232C256.371 5.31474 255.621 3.97124 254.546 2.95693C253.609 2.07296 252.59 1.51434 251.118 1.07646C249.438 0.576759 249.083 0.559605 240.371 0.559046L232.341 0.558487V29.7385ZM128.699 8.67398C129.187 8.83246 129.817 9.34745 130.05 9.7776C130.413 10.4484 130.451 11.0731 130.449 16.3077C130.447 21.7335 130.415 22.1707 129.953 23.0396C129.659 23.5931 129.307 23.9302 128.721 24.2211C128.25 24.455 128.144 24.4678 126.424 24.5009L124.62 24.5356V16.4992V8.46263L126.473 8.50776C127.612 8.53544 128.47 8.59949 128.699 8.67398ZM245.484 8.58457C246.143 8.71779 246.751 9.16333 247.095 9.7638C247.681 10.7885 247.659 10.0331 247.658 29.3971C247.658 40.9863 247.623 47.3352 247.557 47.7313C247.427 48.5127 246.958 49.4197 246.499 49.7764C245.864 50.2701 245.413 50.3668 243.533 50.4122L241.828 50.4533V29.468V8.48277H243.405C244.272 8.48277 245.207 8.52854 245.484 8.58457ZM101.097 28.4333C101.75 34.0992 102.285 38.8502 102.285 38.9913V39.2476H99.8812H97.4771L97.5116 38.9913C97.5834 38.4579 99.8151 18.3171 99.8225 18.1356C99.8268 18.0309 99.8477 17.9872 99.8691 18.0385C99.8904 18.0898 100.443 22.7675 101.097 28.4333ZM189.746 28.7967C190.399 34.4573 190.933 39.1245 190.933 39.1682C190.933 39.2118 189.838 39.2476 188.5 39.2476H186.068L186.125 38.8514C186.157 38.6336 186.676 33.9873 187.278 28.5265C187.88 23.0658 188.401 18.493 188.435 18.3648C188.518 18.0555 188.395 17.0781 189.746 28.7967ZM61.3316 59.7134C56.1187 60.5063 53.2684 63.3173 52.5204 68.4029C52.3018 69.8889 52.3646 75.5993 52.6159 77.0977C53.3037 81.1987 54.6883 83.8907 58.4176 88.3782C64.8206 96.0827 65.4971 96.9542 66.2805 98.5069C67.1469 100.224 67.3415 101.541 67.2737 105.228C67.2128 108.534 67.0424 109.252 66.1349 110.025C65.6126 110.47 65.1337 110.613 64.1814 110.606C62.4332 110.592 61.5228 109.653 61.2742 107.605C61.2197 107.157 61.1748 104.452 61.1744 101.593L61.1736 96.3957H56.5287H51.8839V102.98C51.8839 108.446 51.9099 109.729 52.0371 110.537C52.7376 114.987 55.2007 117.71 59.4439 118.726C60.9374 119.083 62.1392 119.17 64.8656 119.117C66.9038 119.077 67.5267 119.032 68.3328 118.867C73.3107 117.848 76.1717 114.612 77.1021 108.949C77.2934 107.784 77.3191 107.252 77.3215 104.413C77.3259 99.2953 76.9176 97.0481 75.4673 94.2049C74.413 92.1379 73.7041 91.1835 68.6811 85.0686C66.7015 82.6587 64.7158 80.1752 64.2683 79.5496C62.902 77.6397 62.2936 76.2415 62.0666 74.4898C61.9343 73.4695 61.9357 70.5128 62.0688 69.739C62.3499 68.105 63.0805 67.4687 64.684 67.4616C65.9538 67.4559 66.6436 67.871 67.0747 68.9002C67.2303 69.2718 67.2509 69.8118 67.2791 74.2776L67.3104 79.242H71.8575H76.4045L76.3668 73.1589C76.3314 67.4156 76.3178 67.029 76.1251 66.2368C75.2094 62.4742 73.2796 60.6654 69.3014 59.8414C68.4574 59.6665 67.9603 59.638 65.2749 59.6107C62.9542 59.5871 61.9979 59.612 61.3316 59.7134ZM101.841 59.7019C99.2846 60.0967 97.4268 60.9649 95.9107 62.473C94.04 64.3337 93.0248 66.7957 92.6954 70.2713C92.6257 71.0056 92.6028 77.7883 92.6254 90.9419L92.659 110.52L92.875 111.447C93.7103 115.031 95.4596 117.398 98.1403 118.571C99.4683 119.152 100.123 119.275 101.89 119.275C103.368 119.275 103.456 119.264 104.385 118.964C104.914 118.794 105.702 118.448 106.136 118.196C107.865 117.192 109.806 115.064 110.544 113.364L110.765 112.853L110.922 113.364C111.009 113.646 111.362 114.904 111.708 116.16L112.337 118.444L115.02 118.469L117.703 118.493L117.678 100.756L117.653 83.0176H111.081H104.509V87.4925V91.9674L106.609 91.9926L108.709 92.0178V99.7906C108.709 107.28 108.702 107.585 108.513 108.156C108.24 108.98 107.706 109.61 106.984 109.959C106.492 110.196 106.265 110.245 105.521 110.273C104.459 110.312 103.963 110.164 103.382 109.632C102.912 109.201 102.662 108.766 102.417 107.95C102.244 107.378 102.236 106.493 102.236 89.1706C102.236 74.2392 102.26 70.8914 102.369 70.432C102.555 69.6549 103.043 68.8245 103.495 68.5154C104.669 67.7133 106.75 68.0154 107.451 69.0895C108.019 69.9599 108.042 70.1581 108.09 74.6039L108.134 78.6826H112.733H117.331L117.278 74.1378C117.222 69.2819 117.152 68.42 116.662 66.4881C115.709 62.7274 113.49 60.6785 109.45 59.8293C108.693 59.6701 108.119 59.6377 105.596 59.611C103.478 59.5887 102.406 59.6146 101.841 59.7019ZM167.313 59.6359C162.989 60.0727 159.958 62.1572 158.656 65.5897C157.899 67.5839 157.669 69.5078 157.758 73.089C157.869 77.5107 158.414 79.9684 159.927 82.8689C160.855 84.6462 161.935 86.0929 165.922 90.8953C169.923 95.7133 170.949 97.0699 171.673 98.4933C172.538 100.194 172.811 102.029 172.723 105.532C172.653 108.286 172.365 109.382 171.528 110.075C171.05 110.471 170.556 110.611 169.635 110.611C168.196 110.61 167.373 110.029 166.88 108.664C166.682 108.116 166.673 107.885 166.643 102.246L166.612 96.3957H161.915H157.219L157.261 103.225C157.306 110.534 157.304 110.503 157.838 112.338C158.074 113.149 158.75 114.55 159.219 115.198C160.319 116.719 162.084 117.917 164.114 118.521C165.832 119.032 166.436 119.096 169.586 119.096C172.768 119.096 173.322 119.041 174.923 118.562C176.713 118.027 177.921 117.329 179.184 116.1C181.125 114.21 182.252 111.546 182.635 107.941C182.804 106.351 182.707 100.59 182.488 99.2458C181.957 95.9832 180.795 93.4739 178.35 90.3151C177.903 89.7369 176.089 87.5019 174.32 85.3483C170.8 81.0626 169.91 79.9467 169.34 79.1021C168.659 78.0955 167.997 76.7372 167.736 75.8135C167.501 74.9805 167.476 74.7163 167.436 72.5578C167.385 69.8272 167.467 69.1563 167.939 68.416C168.394 67.7014 168.941 67.4554 170.075 67.4554C170.845 67.4554 170.981 67.4835 171.468 67.7418C172.131 68.094 172.501 68.7034 172.647 69.6862C172.701 70.0451 172.746 72.342 172.747 74.7904L172.749 79.242H177.302H181.855L181.812 73.2987C181.766 66.8028 181.76 66.7387 181.149 64.9556C180.706 63.6635 180.167 62.819 179.22 61.9323C178.533 61.2897 178.245 61.0966 177.381 60.7007C175.406 59.796 173.944 59.5686 170.229 59.5877C168.815 59.595 167.503 59.6167 167.313 59.6359ZM194.688 59.6201C194.607 59.6352 194.206 59.6982 193.799 59.76C191.594 60.0944 189.662 61.0274 188.25 62.4398C187.457 63.2327 187.125 63.6803 186.61 64.652C185.864 66.0583 185.395 67.7273 185.208 69.6396C185.064 71.1018 185.062 106.995 185.205 108.656C185.502 112.112 186.495 114.549 188.345 116.366C189.899 117.893 191.885 118.766 194.556 119.097C195.871 119.259 199.234 119.283 200.566 119.139C204.338 118.731 207.131 116.932 208.578 113.977C209.229 112.648 209.686 111.006 209.903 109.214C209.964 108.707 210.005 105.344 210.005 100.707L210.006 93.0377L205.386 93.0619L200.766 93.0862L200.716 100.684L200.667 108.282L200.431 108.836C199.918 110.036 198.844 110.648 197.444 110.538C196.296 110.447 195.524 109.892 195.071 108.83L194.836 108.282V89.122V69.962L195.166 69.3308C195.683 68.3388 196.52 67.9693 197.986 68.0853C199.266 68.1865 200.149 68.8158 200.537 69.9028C200.627 70.1547 200.674 71.828 200.713 76.2121L200.766 82.1786L205.386 82.2028L210.006 82.2271V75.9072C210.006 69.0914 209.959 68.2614 209.473 66.4538C208.732 63.6977 207.185 61.7923 204.82 60.725C202.81 59.8176 201.202 59.5668 197.492 59.5819C196.031 59.5879 194.77 59.605 194.688 59.6201ZM251.006 59.7146C246.079 60.4388 243.121 63.146 241.993 67.9652C241.466 70.2132 241.482 69.541 241.482 89.3105C241.482 106.723 241.492 107.789 241.665 108.935C242.007 111.205 242.65 113.102 243.59 114.62C244.232 115.657 245.849 117.177 246.906 117.739C249.127 118.919 251.271 119.299 255.17 119.207C256.811 119.168 257.64 119.106 258.332 118.971C262.779 118.107 265.35 115.692 266.537 111.265C267.194 108.817 267.162 109.843 267.202 90.2893C267.24 71.8983 267.218 70.5674 266.833 68.5516C265.821 63.2521 262.924 60.4462 257.708 59.7156C256.393 59.5314 252.257 59.5307 251.006 59.7146ZM280.222 59.63C274.716 60.3753 271.734 63.0878 270.597 68.3849C270.184 70.3095 270.179 70.6134 270.212 89.9164L270.245 108.469L270.461 109.587C271.392 114.4 273.593 117.247 277.338 118.482C279.185 119.091 279.921 119.182 283.039 119.185C285.329 119.187 286.03 119.157 286.79 119.022C292.075 118.087 294.862 114.934 295.706 108.935C295.811 108.186 295.837 104.284 295.837 89.124C295.837 71.4486 295.826 70.1786 295.66 69.195C295.159 66.2135 294.232 64.1339 292.732 62.6257C291.259 61.1449 289.649 60.3339 287.19 59.8341C286.389 59.6714 285.829 59.6394 283.385 59.6166C281.809 59.6019 280.385 59.608 280.222 59.63ZM0 89.3105V118.49H7.992C14.6782 118.49 16.1274 118.467 16.8617 118.349C21.455 117.61 23.9039 115.099 24.7712 110.237C24.9447 109.265 24.9537 108.224 24.9537 89.0774C24.9537 69.892 24.945 68.8941 24.7707 67.9625C24.2766 65.3223 23.4506 63.6722 21.9696 62.3669C20.7368 61.2803 19.266 60.6428 17.2367 60.3155C16.1562 60.1413 15.6178 60.1305 8.04457 60.1305H0V89.3105ZM28.2644 89.3105V118.49H39.2341H50.2038V114.062V109.634H43.9778H37.7517V101.197V92.7599H42.446H47.1402V88.3316V83.9033H42.446H37.7517V76.2587V68.6141H43.7307H49.7097V64.3723V60.1305H38.987H28.2644V89.3105ZM79.9506 89.3105V118.49H84.6943H89.4379V89.3105V60.1305H84.6943H79.9506V89.3105ZM120.865 89.3105V118.49H125.163H129.462L129.487 101.933L129.512 85.3753L133.855 101.63C136.243 110.57 138.235 118.021 138.282 118.187L138.366 118.49H142.216H146.065V89.3105V60.1305H141.767H137.468L137.462 75.676L137.456 91.2216L133.46 75.7459C131.262 67.2343 129.464 60.2389 129.463 60.2004C129.463 60.1619 127.528 60.1305 125.164 60.1305H120.865V89.3105ZM212.971 89.3105V118.49H217.715H222.458V105.672V92.8531H225.621H228.783V105.672V118.49H233.527H238.271V89.3105V60.1305H233.527H228.783V71.7838V83.4372H225.621H222.458V71.7838V60.1305H217.715H212.971V89.3105ZM299.148 89.3105V118.49H309.574H320V113.969V109.447H314.268H308.536V84.789V60.1305H303.842H299.148V89.3105ZM13.6486 68.3472C14.5646 68.7511 15.0167 69.5026 15.2177 70.9556C15.2936 71.5043 15.3171 77.0282 15.2968 89.4969C15.2694 106.227 15.2574 107.289 15.0912 107.816C14.7974 108.748 14.3497 109.287 13.5708 109.649C12.9024 109.96 12.8994 109.96 11.1945 109.993L9.48734 110.025V89.0312V68.0369L11.2909 68.0699C12.9921 68.101 13.1259 68.1167 13.6486 68.3472ZM255.865 68.3915C256.508 68.7218 256.983 69.2977 257.271 70.0967L257.492 70.7117L257.52 88.9842C257.541 101.963 257.517 107.432 257.44 107.863C257.11 109.701 255.943 110.663 254.187 110.545C252.616 110.439 251.691 109.634 251.24 107.98C251.08 107.392 251.069 106.136 251.069 89.2638C251.069 72.3804 251.08 71.1359 251.241 70.5466C251.551 69.4085 252 68.7695 252.749 68.4038C253.343 68.1134 253.659 68.0588 254.542 68.0941C255.2 68.1203 255.442 68.1747 255.865 68.3915ZM284.339 68.2684C284.849 68.4694 285.463 69.0233 285.711 69.5063C286.282 70.6206 286.243 69.2837 286.277 88.7977C286.299 101.34 286.276 106.93 286.2 107.475C286.001 108.914 285.505 109.773 284.6 110.245C284.125 110.494 283.991 110.519 283.138 110.519C282.309 110.52 282.133 110.489 281.635 110.258C281.007 109.968 280.677 109.644 280.309 108.959C279.76 107.936 279.778 108.597 279.778 89.3256C279.779 77.8707 279.815 71.3353 279.879 70.9448C280.213 68.9087 281.287 67.9967 283.238 68.0913C283.647 68.1111 284.142 68.1908 284.339 68.2684Z" fill="white"/>
</svg>
