<svg width="55" height="55" viewBox="0 0 55 55" fill="none" xmlns="http://www.w3.org/2000/svg">
<path d="M41.2462 13.7637C42.1625 14.9157 42.9311 16.1648 43.5521 17.5109C44.173 18.8569 44.564 20.2224 44.7251 21.6071C44.9112 22.972 44.7976 24.2686 44.3844 25.4968C43.9512 26.7 43.1587 27.7598 42.0067 28.6761C41.0801 29.4132 40.0968 29.8477 39.057 29.9798C37.9972 30.0868 37.0507 29.8992 36.2174 29.4171L35.9169 29.6562C35.914 30.6807 35.6761 31.7695 35.2031 32.9226C34.7552 34.0558 33.9427 35.0905 32.7656 36.0268C30.5368 37.7997 28.2809 38.5106 25.998 38.1594C23.7202 37.7632 21.7147 36.4757 19.9817 34.297C18.647 32.619 17.8348 30.8526 17.5451 28.9977C17.2355 27.1178 17.4555 25.2868 18.2051 23.5047C18.9348 21.6976 20.2012 20.077 22.0044 18.6427C23.1814 17.7064 24.4857 16.853 25.9171 16.0823C27.3537 15.2667 28.5222 14.7053 29.4226 14.3979L35.1725 22.3976C35.3467 22.668 35.5433 22.9409 35.7624 23.2164C35.9616 23.4668 36.0911 23.6296 36.1509 23.7047C36.9676 24.7315 37.6532 25.3106 38.2075 25.4421C38.767 25.5286 39.2221 25.4324 39.5727 25.1536C40.1487 24.6954 40.4054 24.0414 40.3428 23.1916C40.2603 22.3168 39.9381 21.3464 39.3764 20.2804C38.8197 19.1693 38.0932 18.0504 37.1968 16.9234C35.5235 14.8198 33.6834 13.3803 31.6765 12.6051C29.6497 11.8048 27.5888 11.6042 25.4937 12.0031C23.4236 12.3822 21.4495 13.3187 19.5712 14.8127C17.5928 16.3865 16.1013 18.084 15.0967 19.9053C14.0921 21.7266 13.5246 23.6091 13.3942 25.5528C13.2639 27.4965 13.5433 29.4413 14.2326 31.3873C14.9468 33.3134 16.0211 35.178 17.4554 36.9811C19.2482 39.235 21.1728 40.8321 23.2292 41.7724C25.2907 42.6677 27.4166 42.8985 29.6067 42.4649C31.8219 42.0113 34.069 40.8781 36.3479 39.0653C37.8004 37.9099 39.1861 36.542 40.5049 34.9614C41.8236 33.3808 42.9449 31.8347 43.8687 30.323L46.6775 33.8542C45.8738 35.3112 44.8527 36.7777 43.6142 38.2535C42.3756 39.7293 40.93 41.1246 39.2771 42.4394C36.1717 44.9095 33.0788 46.4701 29.9985 47.1212C26.9182 47.7723 23.9728 47.5392 21.1622 46.4219C18.3568 45.2596 15.7988 43.226 13.488 40.3209C11.6752 38.042 10.3676 35.627 9.56511 33.076C8.76261 30.525 8.48489 27.9654 8.73194 25.3974C8.98411 22.7843 9.78068 20.2903 11.1217 17.9152C12.4427 15.515 14.3304 13.3388 16.7846 11.3866C18.7881 9.79299 20.8778 8.64188 23.0537 7.93329C25.2348 7.17975 27.407 6.90344 29.5704 7.10438C31.7389 7.26036 33.8186 7.89585 35.8096 9.01087C37.7806 10.1008 39.5928 11.6851 41.2462 13.7637ZM24.2863 30.9956C25.3819 32.373 26.4568 33.1331 27.5109 33.276C28.5649 33.4188 29.5678 33.1118 30.5195 32.3548C31.7716 31.3588 32.2896 30.2108 32.0733 28.9108C31.8622 27.5659 31.219 26.1148 30.1439 24.5575L27.1422 20.3212C26.8269 20.4902 26.4839 20.7017 26.1134 20.9555C25.723 21.1843 25.3149 21.468 24.8891 21.8067C23.7121 22.743 22.9696 23.7629 22.6617 24.8665C22.3589 25.9251 22.3734 26.9972 22.7052 28.0826C23.0421 29.123 23.5691 30.094 24.2863 30.9956Z" fill="#0029FF"/>
</svg>
