<svg width="40" height="36" viewBox="0 0 40 36" fill="none" xmlns="http://www.w3.org/2000/svg">
<path d="M7.74287 22.013C5.27901 22.0393 3.41338 21.1472 2.14598 19.3366C0.878234 17.494 0.225913 14.8448 0.189016 11.389C0.152803 7.99722 0.716926 5.38305 1.88138 3.54651C3.0455 1.67797 4.92349 0.72987 7.51534 0.702197C9.9792 0.675891 11.8448 1.56802 13.1122 3.3786C14.4116 5.18883 15.0796 7.80585 15.1162 11.2297C15.1524 14.6215 14.5886 17.2676 13.4248 19.1682C12.2927 21.0364 10.3987 21.9846 7.74287 22.013ZM7.71059 18.9892C9.11851 18.9741 10.1358 18.3392 10.7624 17.0845C11.3887 15.7977 11.688 13.8584 11.6604 11.2665C11.633 8.70669 11.2927 6.80622 10.6394 5.56512C9.98581 4.29203 8.95503 3.663 7.54711 3.67803C6.17119 3.69272 5.17008 4.34345 4.54378 5.63021C3.94914 6.88463 3.66566 8.80776 3.69333 11.3996C3.72032 13.9275 4.04463 15.8281 4.66626 17.1016C5.31989 18.3746 6.33466 19.0038 7.71059 18.9892ZM31.7581 0.827386L11.1971 35.3209L7.59735 35.3593L28.1583 0.86582L31.7581 0.827386ZM32.092 14.1206C34.3639 14.0963 36.0811 14.574 37.2436 15.5537C38.4061 16.5333 38.9956 17.7911 39.012 19.327C39.0256 20.6069 38.6849 21.6666 37.9899 22.5061C37.3268 23.3452 36.517 23.9299 35.5604 24.2601L35.562 24.4041C36.8123 24.6148 37.8099 25.1322 38.5547 25.9563C39.3312 26.748 39.7265 27.7999 39.7405 29.1118C39.7603 30.9677 39.1046 32.4948 37.7733 33.693C36.4417 34.8593 34.3519 35.4577 31.5041 35.4881C30.3202 35.5007 29.215 35.4005 28.1887 35.1875C27.1627 35.0064 26.1672 34.681 25.2021 34.2113L25.1698 31.1875C26.2632 31.6878 27.3554 32.0762 28.4464 32.3525C29.5375 32.6289 30.5629 32.762 31.5229 32.7517C33.1868 32.734 34.3993 32.401 35.1604 31.7528C35.9212 31.0727 36.2956 30.1726 36.2837 29.0527C36.2714 27.9007 35.7985 27.0737 34.8651 26.5717C33.9313 26.0376 32.6325 25.7795 30.9686 25.7972L28.2328 25.8264L28.2046 23.1866L30.9404 23.1574C32.5403 23.1403 33.705 22.8239 34.4345 22.208C35.1956 21.5599 35.5709 20.7398 35.5603 19.7479C35.5493 18.7239 35.2055 17.9916 34.5288 17.5508C33.8837 17.0776 33.0972 16.846 32.1692 16.8559C31.1773 16.8665 30.2512 17.0524 29.391 17.4136C28.5625 17.7425 27.7191 18.1835 26.861 18.7367L25.1095 16.5473C26.0936 15.8007 27.1274 15.2136 28.2109 14.7861C29.3264 14.3581 30.6201 14.1363 32.092 14.1206Z" fill="#0029FF"/>
</svg>
