<svg width="54" height="65" viewBox="0 0 54 65" fill="none" xmlns="http://www.w3.org/2000/svg">
<path d="M28.6221 64.9311L25.2806 63.3147L48.4406 15.4382L42.564 12.5955L19.4041 60.4719L16.0625 58.8555L27.2105 35.8103C26.5601 35.6852 25.8229 35.4945 24.999 35.2381C24.232 34.9619 23.5221 34.6659 22.8692 34.35C20.4878 33.1981 18.6274 31.753 17.288 30.015C15.9485 28.2769 15.2811 26.1293 15.2858 23.5721C15.3289 21.0335 16.1959 18.0167 17.8866 14.5215C19.6703 10.8342 21.5823 8.20441 23.6227 6.632C25.72 5.03976 27.9426 4.26644 30.2904 4.31204C32.6381 4.35764 35.0603 4.98429 37.5569 6.19199L53.3428 13.8284L28.6221 64.9311Z" fill="#0029FF"/>
</svg>
