<svg width="58" height="57" viewBox="0 0 58 57" fill="none" xmlns="http://www.w3.org/2000/svg">
<path d="M6.05732 38.4403L6.05718 34.8375L12.6224 26.1991C13.9714 24.3762 15.0488 22.8092 15.8544 21.4979C16.7017 20.1776 17.2709 18.9835 17.5619 17.9155C17.8945 16.8385 17.9426 15.7581 17.7061 14.6742C17.4787 13.6321 16.9841 12.8666 16.2224 12.3778C15.5023 11.8799 14.5587 11.7582 13.3915 12.0129C12.3494 12.2404 11.3944 12.6671 10.5266 13.2932C9.6497 13.8776 8.80199 14.6958 7.98346 15.7478L5.40376 13.232C6.4686 11.9079 7.63425 10.8456 8.90071 10.0452C10.1998 9.19396 11.683 8.58642 13.3504 8.22255C15.1012 7.84049 16.5659 7.84839 17.7445 8.24626C18.9231 8.64412 19.8508 9.29325 20.5277 10.1936C21.2372 11.0433 21.7056 11.9891 21.933 13.0313C22.2332 14.4069 22.2605 15.7329 22.015 17.0092C21.8112 18.2765 21.283 19.6582 20.4304 21.1544C19.5778 22.6506 18.3655 24.3999 16.7936 26.4024L11.4778 33.2615L23.4208 30.6553L23.4402 34.6469L6.05732 38.4403ZM14.3505 55.4308L37.7479 3.55353L42.6877 2.47556L19.2902 54.3528L14.3505 55.4308ZM44.8348 49.2369C43.6676 49.4917 42.5148 49.6122 41.3764 49.5986C40.238 49.585 39.1303 49.4119 38.0533 49.0792L37.139 44.8898C38.3684 45.3202 39.5868 45.6002 40.7942 45.7298C42.0016 45.8594 43.1889 45.7968 44.356 45.5421C45.7734 45.2328 46.9114 44.7443 47.7701 44.0765C48.6197 43.367 49.1991 42.52 49.5083 41.5355C49.8175 40.5509 49.8447 39.475 49.59 38.3078C49.2807 36.8905 48.5694 35.9321 47.456 35.4327C46.3425 34.9333 45.098 34.8337 43.7224 35.1339C43.0554 35.2794 42.4021 35.4875 41.7624 35.7581C41.1136 35.987 40.4622 36.3038 39.8081 36.7086L37.806 35.6389L38.7605 22.0018L52.0165 19.1091L52.1122 23.1496L42.4203 25.2646L41.9146 32.253C42.2716 32.0878 42.6703 31.9135 43.1106 31.73C43.5926 31.5375 44.1046 31.3821 44.6465 31.2638C46.9809 30.7544 48.9353 31.0048 50.5095 32.0151C52.1255 33.0163 53.1836 34.6632 53.6839 36.9559C53.9386 38.1231 53.9849 39.3358 53.8227 40.5939C53.7023 41.843 53.309 43.0425 52.6428 44.1923C52.0183 45.333 51.0611 46.3498 49.7711 47.2426C48.5229 48.1264 46.8774 48.7912 44.8348 49.2369Z" fill="#0029FF"/>
</svg>
