<svg width="52" height="53" viewBox="0 0 52 53" fill="none" xmlns="http://www.w3.org/2000/svg">
<path d="M23.4699 17.6687C24.5665 18.8043 25.407 19.9203 25.9913 21.0168C26.6064 22.0837 27.0082 23.2675 27.1967 24.5683C27.3556 25.8384 27.3435 27.3922 27.1606 29.2296C26.9427 31.338 26.837 33.0712 26.8435 34.4292C26.8203 35.7565 26.9819 36.8757 27.328 37.787C27.6742 38.6983 28.2919 39.6143 29.1811 40.5351C30.6037 42.0083 32.1761 42.6845 33.8981 42.5636C35.6509 42.4132 37.4173 41.4784 39.1975 39.7594C40.732 38.2775 41.8898 36.7739 42.6708 35.2486C43.4518 33.7233 44.127 32.2113 44.6963 30.7125L49.2355 32.5569C48.6302 34.387 47.7831 36.2431 46.6942 38.125C45.6359 39.9774 44.186 41.7927 42.3445 43.5711C39.4288 46.3867 36.4764 47.8439 33.4874 47.9426C30.4984 48.0413 27.8036 46.8477 25.4028 44.3616C24.0691 42.9805 23.1576 41.6067 22.6685 40.2403C22.1805 38.8136 21.9501 37.316 21.9775 35.7474C22.0059 34.1184 22.128 32.3101 22.3438 30.3223C22.5278 28.4246 22.5843 26.9168 22.5132 25.7991C22.4126 24.6507 22.1431 23.6654 21.7049 22.843C21.2666 22.0206 20.6325 21.1798 19.8026 20.3204L19.0469 19.5378L22.2695 16.4257L23.4699 17.6687ZM16.793 8.63561C17.8897 9.7712 18.384 10.8359 18.2762 11.8298C18.199 12.7941 17.7461 13.6763 16.9174 14.4765C16.1501 15.2175 15.2679 15.6246 14.2709 15.6977C13.2738 15.7708 12.227 15.2396 11.1304 14.104C10.0634 12.9991 9.569 11.9343 9.64723 10.9097C9.72546 9.88518 10.1482 9.00241 10.9155 8.26144C11.7442 7.4612 12.6565 7.05468 13.6525 7.04189C14.6792 6.99946 15.726 7.5307 16.793 8.63561Z" fill="#0029FF"/>
</svg>
