<svg width="78" height="91" viewBox="0 0 78 91" fill="none" xmlns="http://www.w3.org/2000/svg">
<path d="M50.1559 72.0389C47.0628 73.7205 43.9428 75.1599 40.7956 76.3571C37.6169 77.4986 34.9 78.1573 32.645 78.3331L28.6178 71.2361C31.0157 71.0528 33.8792 70.4581 37.2084 69.4519C40.5375 68.4458 43.6373 67.1651 46.5076 65.6099L36.937 48.7442C33.7673 49.5126 30.9001 50.0359 28.3352 50.314C25.7944 50.5048 23.5522 50.3791 21.6086 49.9366C19.6651 49.4942 17.9329 48.7111 16.4121 47.5872C14.9154 46.3761 13.5985 44.7686 12.4614 42.7648C10.9137 40.0373 10.2272 37.3363 10.4019 34.6616C10.6323 31.9553 11.6284 29.3665 13.3901 26.895C15.1203 24.3679 17.5522 22.1048 20.6859 20.1059L16.5165 12.7584L21.8601 9.72613L25.9821 16.9901C28.9638 15.3717 31.8251 14.1895 34.566 13.4436C37.331 12.6104 39.9524 12.0427 42.43 11.7406L43.6817 19.1983C41.4899 19.4855 39.1665 19.9945 36.7114 20.7254C34.2803 21.3691 31.9042 22.2391 29.5829 23.3356L39.1062 40.1178C43.38 39.0907 47.089 38.4946 50.233 38.3293C53.3455 38.1084 56.0194 38.5412 58.2547 39.6275C60.5141 40.6265 62.4335 42.5176 64.0128 45.3007C66.2239 49.1971 66.577 53.1911 65.0724 57.2827C63.5362 61.3187 60.282 65.1153 55.3099 68.6727L60.569 77.9405L55.2255 80.9727L50.1559 72.0389ZM51.6143 62.1602C54.7089 59.9626 56.676 57.8529 57.5156 55.8312C58.3235 53.7538 58.1906 51.7688 57.1166 49.8763C56.327 48.4847 55.4011 47.5016 54.3391 46.9269C53.2456 46.2965 51.8135 46.0421 50.0429 46.1638C48.3279 46.2539 46.0722 46.6878 43.2756 47.4653L51.6143 62.1602ZM24.3341 26.5349C22.3934 27.7833 20.9567 29.0769 20.0239 30.4157C19.0595 31.6988 18.5118 33.003 18.3809 34.3283C18.3055 35.622 18.6153 36.8811 19.3102 38.1057C20.1315 39.5529 21.0926 40.6632 22.1937 41.4365C23.3189 42.1226 24.7269 42.4642 26.4178 42.4613C28.0771 42.4028 30.1779 42.0201 32.7202 41.3132L24.3341 26.5349Z" fill="#0029FF"/>
</svg>
