<svg width="27" height="31" viewBox="0 0 27 31" fill="none" xmlns="http://www.w3.org/2000/svg">
<path d="M7.03808 19.2292C7.20128 18.3319 7.42351 17.5795 7.70476 16.972C8.01391 16.3452 8.43469 15.7753 8.96709 15.2623C9.5231 14.7536 10.2369 14.2492 11.1084 13.7491C12.1711 13.1374 12.9976 12.6169 13.5879 12.1876C14.2019 11.7626 14.6602 11.3215 14.9629 10.8643C15.2656 10.4071 15.4814 9.82428 15.6102 9.1159C15.8164 7.9825 15.6093 7.04226 14.989 6.2952C14.3687 5.54813 13.3619 5.0479 11.9688 4.7945C10.8118 4.58406 9.75669 4.55071 8.80358 4.69447C7.85477 4.81462 6.93063 5.00024 6.03118 5.25133L5.38415 2.5723C6.41885 2.24823 7.53296 2.02398 8.72649 1.89956C9.94364 1.77943 11.2606 1.84821 12.6773 2.1059C14.9205 2.51391 16.5551 3.38448 17.5811 4.7176C18.6071 6.05072 18.9462 7.6736 18.5983 9.58622C18.405 10.6488 18.0626 11.5257 17.571 12.2168C17.1072 12.8887 16.4986 13.4854 15.7451 14.007C15.0195 14.5093 14.1673 15.0373 13.1884 15.591C12.2889 16.1105 11.5816 16.5794 11.0664 16.998C10.5748 17.4209 10.213 17.8673 9.98116 18.3374C9.75359 18.7839 9.57753 19.3495 9.45298 20.0343L9.34346 20.6364L6.86413 20.1855L7.03808 19.2292ZM5.10249 25.2439C5.2614 24.3702 5.57377 23.7928 6.03961 23.5116C6.52906 23.2347 7.09255 23.1543 7.73009 23.2702C8.32041 23.3776 8.79586 23.647 9.15647 24.0785C9.51707 24.51 9.61792 25.1626 9.45901 26.0363C9.3044 26.8863 8.98022 27.4616 8.48647 27.7621C7.99273 28.0626 7.4507 28.1591 6.86038 28.0518C6.22284 27.9358 5.72592 27.6503 5.36961 27.1952C5.03691 26.7444 4.94787 26.0939 5.10249 25.2439ZM22.2005 22.975L20.1816 22.6078L22.601 4.27681L26.3909 4.96613L22.2005 22.975ZM18.0304 27.5953C18.1893 26.7216 18.5135 26.1464 19.0029 25.8695C19.4924 25.5926 20.0441 25.51 20.658 25.6216C21.2483 25.729 21.7238 25.9985 22.0844 26.4299C22.4686 26.8657 22.5812 27.5205 22.4223 28.3941C22.2677 29.2442 21.9317 29.8173 21.4144 30.1135C20.9206 30.414 20.3786 30.5106 19.7883 30.4032C19.1744 30.2915 18.6892 30.0081 18.3329 29.553C17.9766 29.0979 17.8758 28.4453 18.0304 27.5953Z" fill="#0029FF"/>
</svg>
