<svg width="51" height="41" viewBox="0 0 51 41" fill="none" xmlns="http://www.w3.org/2000/svg">
<path d="M10.1462 4.64011L12.3578 25.0647L8.96958 25.4316L7.54342 12.2606C7.48485 11.7197 7.42974 11.2107 7.37807 10.7335C7.35821 10.2529 7.34007 9.78811 7.32366 9.33927C7.30724 8.89043 7.29083 8.44159 7.27442 7.99274C6.98728 8.31352 6.67177 8.66955 6.3279 9.06084C5.98058 9.42032 5.61563 9.76562 5.23305 10.0967L2.85763 12.2369L0.934202 10.0794L6.66255 5.01732L10.1462 4.64011ZM28.0893 2.69722L10.9723 39.023L7.39326 39.4105L24.5102 3.08477L28.0893 2.69722ZM30.5693 16.2369L32.7809 36.6616L29.3927 37.0284L27.9665 23.8574C27.908 23.3166 27.8528 22.8075 27.8012 22.3303C27.7813 21.8497 27.7632 21.3849 27.7468 20.9361C27.7303 20.4873 27.7139 20.0384 27.6975 19.5896C27.4104 19.9103 27.0949 20.2664 26.751 20.6577C26.4037 21.0171 26.0387 21.3624 25.6561 21.6936L23.2807 23.8337L21.3573 21.6762L27.0856 16.6141L30.5693 16.2369ZM43.5594 35.8807C41.1098 36.1459 39.1664 35.439 37.7293 33.76C36.2887 32.0491 35.3824 29.4757 35.0104 26.0398C34.6452 22.6675 34.953 20.011 35.9338 18.0701C36.9111 16.0974 38.6882 14.9716 41.2652 14.6925C43.7149 14.4273 45.6583 15.1342 47.0954 16.8132C48.5643 18.4888 49.483 21.0287 49.8516 24.4328C50.2168 27.8051 49.9124 30.4935 48.9386 32.498C47.993 34.4672 46.2 35.5948 43.5594 35.8807ZM43.2339 32.8743C44.6337 32.7227 45.5846 31.9921 46.0865 30.6824C46.585 29.341 46.6947 27.3818 46.4157 24.8048C46.1401 22.2597 45.617 20.4012 44.8464 19.2294C44.0723 18.0257 42.9854 17.4997 41.5856 17.6512C40.2176 17.7994 39.2843 18.5442 38.7858 19.8856C38.3157 21.1918 38.2202 23.1334 38.4992 25.7103C38.7713 28.2236 39.2785 30.0838 40.0208 31.291C40.7949 32.4946 41.8659 33.0224 43.2339 32.8743Z" fill="#0029FF"/>
</svg>
