<svg width="102" height="97" viewBox="0 0 102 97" fill="none" xmlns="http://www.w3.org/2000/svg">
<path d="M12.4973 67.542L76.5682 22.3932L86.6793 27.2844L22.6084 72.4331L12.4973 67.542ZM32.8757 23.6521C33.238 22.9031 33.7118 21.9237 34.297 20.7138C34.9399 19.5318 35.5549 18.4074 36.1421 17.3406C36.7571 16.2162 37.191 15.4663 37.4437 15.0909C36.875 15.3846 36.0778 15.7099 35.052 16.0668C34.1117 16.394 33.3135 16.6477 32.6575 16.8281L28.1195 17.8321L26.1311 10.2584L43.6424 6.46546L51.6794 10.3533L33.7869 47.3409L23.7622 42.4915L32.8757 23.6521ZM55.5455 89.2194C53.4138 88.1882 51.5376 86.9963 49.917 85.6435C48.3242 84.2332 46.8429 82.5924 45.4731 80.7211L49.3609 72.6841C50.675 74.6706 52.0727 76.4842 53.554 78.125C55.1208 79.7361 56.9124 81.0294 58.9289 82.0048C61.003 83.0081 62.7109 83.3722 64.0526 83.097C65.4222 82.7642 66.4554 81.8777 67.1521 80.4373C67.7095 79.2851 67.7215 78.0111 67.188 76.6156C66.6545 75.22 65.0338 73.8672 62.326 72.5573L57.5729 70.258L60.8337 63.5173L64.7226 65.3985C67.6609 66.8199 69.7562 67.2648 71.0087 66.7332C72.3467 66.1718 73.2944 65.315 73.8518 64.1627C74.3813 63.0681 74.4677 62.0078 74.1107 60.982C73.7538 59.9562 72.8552 59.095 71.4149 58.3982C70.0898 57.7572 68.6969 57.4033 67.2362 57.3366C65.8331 57.2977 64.0463 57.4642 61.8757 57.8361L60.5257 49.8247C62.8951 49.3357 65.3546 49.1747 67.9044 49.3417C70.4541 49.5087 73.1693 50.2889 76.0499 51.6824C79.5643 53.3825 82.0418 55.6829 83.4824 58.5838C84.9508 61.4269 84.9604 64.3465 83.5111 67.3424C82.5636 69.3012 81.1653 70.7221 79.3163 71.605C77.5527 72.4582 75.2084 72.6749 72.2832 72.2552L72.0324 72.7738C74.6344 74.7434 76.1938 76.8841 76.7106 79.1959C77.313 81.4779 77.1264 83.6272 76.151 85.6436C74.5067 89.0428 71.972 91.1226 68.5471 91.883C65.1221 92.6435 60.7883 91.7556 55.5455 89.2194Z" fill="#0029FF"/>
</svg>
