<svg width="568" height="1148" viewBox="0 0 568 1148" fill="none" xmlns="http://www.w3.org/2000/svg">
<g clip-path="url(#clip0_265_2757)">
<path d="M229.976 618.404C176.654 604.589 121.872 606.013 107.207 655.22C93.1719 702.307 118.354 707.445 105.237 758.073C92.1206 808.701 8.03835 801.677 -17.9573 902.015C-43.9529 1002.35 31.4811 1079.76 118.096 1102.2C204.71 1124.64 308.228 1093.64 334.234 993.261C360.239 892.884 283.305 858.273 296.421 807.645C303.351 780.899 330.254 773.883 343.346 746.49C353.164 725.915 350.135 710.37 341.447 709.424C333.994 708.594 319.68 729.676 294.418 723.906C269.117 718.126 251.993 685.351 251.71 665.502L229.994 618.49L229.976 618.404Z" fill="#0029FF"/>
<path d="M165.078 663.282C162.782 672.146 153.734 677.468 144.867 675.17C135.999 672.873 130.674 663.828 132.97 654.963C135.267 646.098 144.314 640.777 153.182 643.074C162.05 645.372 167.375 654.417 165.078 663.282Z" fill="#FF5C00"/>
<path d="M147.51 664.969C150.74 665.805 154.036 663.866 154.873 660.638C155.709 657.409 153.769 654.113 150.539 653.276C147.309 652.44 144.013 654.379 143.176 657.607C142.34 660.836 144.28 664.132 147.51 664.969Z" fill="#0029FF"/>
<g filter="url(#filter0_d_265_2757)">
<path d="M243.324 983.937C251.789 986.131 260.429 981.049 262.621 972.587C264.813 964.124 259.728 955.486 251.263 953.293C242.798 951.1 234.158 956.182 231.966 964.644C229.773 973.107 234.859 981.744 243.324 983.937Z" fill="#FF5C00"/>
</g>
<path d="M258.646 971.557C257.022 977.823 250.622 981.588 244.353 979.964C238.085 978.34 234.318 971.941 235.941 965.674C237.564 959.408 243.965 955.643 250.233 957.267C256.502 958.891 260.269 965.29 258.646 971.557Z" fill="#0029FF"/>
<path d="M252.568 969.982C251.816 972.886 248.832 974.641 245.927 973.889C243.022 973.136 241.266 970.153 242.019 967.249C242.771 964.345 245.755 962.59 248.66 963.343C251.564 964.095 253.321 967.078 252.568 969.982Z" fill="#FF5C00"/>
<g filter="url(#filter1_d_265_2757)">
<path d="M322.212 956.221C320.014 964.704 311.362 969.761 302.914 967.572C294.467 965.384 289.369 956.723 291.556 948.279C293.744 939.835 302.406 934.74 310.854 936.928C319.301 939.117 324.399 947.777 322.212 956.221Z" fill="#FF5C00"/>
</g>
<path d="M318.198 955.181C316.575 961.448 310.174 965.212 303.906 963.588C297.637 961.964 293.87 955.565 295.493 949.299C297.117 943.033 303.517 939.268 309.786 940.892C316.055 942.516 319.822 948.915 318.198 955.181Z" fill="#0029FF"/>
<path d="M305.48 957.513C308.393 958.268 311.366 956.519 312.121 953.607C312.875 950.695 311.125 947.722 308.212 946.967C305.299 946.212 302.326 947.961 301.571 950.874C300.817 953.786 302.567 956.758 305.48 957.513Z" fill="#FF5C00"/>
<g filter="url(#filter2_d_265_2757)">
<path d="M223.608 1051.69C232.073 1053.89 240.713 1048.8 242.905 1040.34C245.097 1031.88 240.012 1023.24 231.547 1021.05C223.082 1018.86 214.442 1023.94 212.25 1032.4C210.057 1040.86 215.143 1049.5 223.608 1051.69Z" fill="#FF5C00"/>
</g>
<path d="M238.93 1039.31C237.306 1045.58 230.906 1049.34 224.637 1047.72C218.369 1046.1 214.601 1039.7 216.225 1033.43C217.848 1027.16 224.249 1023.4 230.517 1025.02C236.786 1026.65 240.553 1033.05 238.93 1039.31Z" fill="#0029FF"/>
<path d="M232.89 1037.75C232.138 1040.65 229.154 1042.41 226.249 1041.65C223.344 1040.9 221.588 1037.92 222.341 1035.01C223.093 1032.11 226.077 1030.36 228.982 1031.11C231.887 1031.86 233.643 1034.84 232.89 1037.75Z" fill="#FF5C00"/>
<g filter="url(#filter3_d_265_2757)">
<path d="M302.496 1023.98C300.298 1032.46 291.646 1037.52 283.199 1035.33C274.751 1033.14 269.653 1024.48 271.841 1016.03C274.028 1007.59 282.69 1002.5 291.138 1004.68C299.585 1006.87 304.684 1015.53 302.496 1023.98Z" fill="#FF5C00"/>
</g>
<path d="M298.482 1022.94C296.859 1029.2 290.458 1032.97 284.19 1031.34C277.921 1029.72 274.154 1023.32 275.778 1017.05C277.401 1010.79 283.801 1007.02 290.07 1008.65C296.339 1010.27 300.106 1016.67 298.482 1022.94Z" fill="#0029FF"/>
<path d="M292.443 1021.37C291.691 1024.28 288.707 1026.03 285.802 1025.28C282.897 1024.53 281.141 1021.54 281.893 1018.64C282.646 1015.74 285.629 1013.98 288.534 1014.73C291.439 1015.49 293.195 1018.47 292.443 1021.37Z" fill="#FF5C00"/>
<path d="M409.557 126.3L409.933 124.848L425.491 128.878L425.115 130.33L409.557 126.3Z" fill="white" stroke="#0029FF" stroke-width="3"/>
<path d="M423.851 121.196L427.214 122.067C428.566 122.417 429.377 123.796 429.027 125.146L426.384 135.348C426.035 136.698 424.656 137.51 423.304 137.16L419.94 136.288C418.589 135.938 417.777 134.559 418.127 133.209L420.77 123.007C421.12 121.657 422.499 120.845 423.851 121.196Z" fill="white" stroke="#0029FF" stroke-width="3"/>
<path d="M321.566 103.503L321.943 102.051L337.5 106.082L337.124 107.534L321.566 103.503Z" fill="white" stroke="#0029FF" stroke-width="3"/>
<path d="M323.743 95.26L327.107 96.1315C328.459 96.4817 329.27 97.8607 328.92 99.2107L326.277 109.413C325.927 110.763 324.549 111.574 323.197 111.224L319.833 110.353C318.481 110.002 317.67 108.623 318.02 107.273L320.663 97.0714C321.013 95.7214 322.392 94.9098 323.743 95.26Z" fill="white" stroke="#0029FF" stroke-width="3"/>
<path d="M401.756 156.409L402.132 154.957L417.69 158.988L417.314 160.44L401.756 156.409Z" fill="white" stroke="#0029FF" stroke-width="3"/>
<path d="M416.05 151.305L419.414 152.176C420.765 152.527 421.577 153.906 421.227 155.256L418.584 165.458C418.234 166.808 416.855 167.619 415.503 167.269L412.14 166.398C410.788 166.047 409.977 164.668 410.327 163.318L412.97 153.116C413.319 151.766 414.698 150.955 416.05 151.305Z" fill="white" stroke="#0029FF" stroke-width="3"/>
<path d="M313.766 133.613L314.142 132.161L329.7 136.191L329.324 137.643L313.766 133.613Z" fill="white" stroke="#0029FF" stroke-width="3"/>
<path d="M315.943 125.369L319.306 126.241C320.658 126.591 321.469 127.97 321.12 129.32L318.476 139.522C318.127 140.872 316.748 141.684 315.396 141.333L312.032 140.462C310.681 140.112 309.869 138.733 310.219 137.383L312.862 127.181C313.212 125.831 314.591 125.019 315.943 125.369Z" fill="white" stroke="#0029FF" stroke-width="3"/>
<path d="M417.358 96.1907L417.734 94.7389L433.292 98.7696L432.915 100.221L417.358 96.1907Z" fill="white" stroke="#0029FF" stroke-width="3"/>
<path d="M431.651 91.0867L435.015 91.9581C436.367 92.3083 437.178 93.6873 436.828 95.0373L434.185 105.239C433.835 106.589 432.457 107.401 431.105 107.051L427.741 106.179C426.389 105.829 425.578 104.45 425.928 103.1L428.571 92.8981C428.921 91.5481 430.299 90.7364 431.651 91.0867Z" fill="white" stroke="#0029FF" stroke-width="3"/>
<path d="M329.367 73.3943L329.743 71.9425L345.301 75.9732L344.925 77.425L329.367 73.3943Z" fill="white" stroke="#0029FF" stroke-width="3"/>
<path d="M331.544 65.1511L334.908 66.0226C336.259 66.3728 337.071 67.7518 336.721 69.1018L334.078 79.3038C333.728 80.6538 332.349 81.4654 330.997 81.1152L327.634 80.2438C326.282 79.8935 325.471 78.5146 325.821 77.1645L328.464 66.9625C328.813 65.6125 330.192 64.8009 331.544 65.1511Z" fill="white" stroke="#0029FF" stroke-width="3"/>
<path d="M374.052 212.962L326.082 200.534L187.067 705.145L250.595 721.604L374.052 212.962Z" fill="#FF5C00"/>
<path d="M430.926 77.1984L427.519 63.268C427.519 63.268 421.132 62.1025 414.78 57.8066C409.019 53.9084 400.826 43.1822 390.922 48.9752C385.088 39.064 372.717 44.4624 365.778 45.1111C358.129 45.8207 351.989 43.6999 351.989 43.6999L342.247 54.2237C336.306 132.888 312.761 167.562 312.761 167.562C328.336 178.61 326.558 198.537 326.558 198.537L374.529 210.965C374.529 210.965 382.641 192.72 401.631 190.586C401.631 190.586 397.884 148.841 430.888 77.1885L430.926 77.1984Z" fill="#0029FF"/>
<path d="M377.166 211.649C376.751 213.253 375.114 214.216 373.509 213.8L326.15 201.53C324.545 201.114 323.582 199.478 323.998 197.874C324.413 196.269 326.049 195.306 327.655 195.722L375.014 207.992C376.619 208.408 377.582 210.044 377.166 211.649Z" fill="#0029FF"/>
<path d="M415.406 94.9101C414.366 98.9222 410.276 101.328 406.262 100.288C402.249 99.2486 399.841 95.1591 400.881 91.147C401.92 87.135 406.01 84.729 410.024 85.7688C414.037 86.8086 416.445 90.8981 415.406 94.9101Z" fill="#FF5C00"/>
<path d="M361.816 81.0264C360.777 85.0384 356.686 87.4444 352.673 86.4046C348.659 85.3648 346.252 81.2753 347.291 77.2633C348.331 73.2512 352.421 70.8452 356.435 71.885C360.448 72.9248 362.856 77.0143 361.816 81.0264Z" fill="#FF5C00"/>
<path d="M407.605 125.02C406.565 129.032 402.475 131.438 398.462 130.398C394.448 129.358 392.041 125.268 393.08 121.256C394.119 117.244 398.21 114.838 402.223 115.878C406.237 116.918 408.644 121.008 407.605 125.02Z" fill="#FF5C00"/>
<path d="M354.016 111.136C352.976 115.148 348.886 117.554 344.872 116.514C340.859 115.474 338.451 111.385 339.491 107.373C340.53 103.361 344.62 100.955 348.634 101.994C352.647 103.034 355.055 107.124 354.016 111.136Z" fill="#FF5C00"/>
<path d="M399.804 155.128C398.765 159.14 394.674 161.546 390.661 160.507C386.647 159.467 384.24 155.377 385.279 151.365C386.319 147.353 390.409 144.947 394.423 145.987C398.436 147.027 400.844 151.116 399.804 155.128Z" fill="#FF5C00"/>
<path d="M346.215 141.245C345.175 145.257 341.085 147.663 337.072 146.623C333.058 145.583 330.65 141.494 331.69 137.482C332.729 133.469 336.82 131.063 340.833 132.103C344.847 133.143 347.254 137.233 346.215 141.245Z" fill="#FF5C00"/>
<g filter="url(#filter4_d_265_2757)">
<path d="M265.578 725.486L172.084 701.264C169.931 700.706 167.733 701.998 167.175 704.151L155.167 750.499C154.61 752.652 155.903 754.849 158.057 755.407L251.551 779.629C253.704 780.187 255.902 778.894 256.46 776.742L268.468 730.394C269.025 728.241 267.732 726.044 265.578 725.486Z" fill="white"/>
</g>
<path d="M253.905 729.923L180.096 710.801C178.217 710.314 176.299 711.442 175.813 713.32L167.171 746.677C166.684 748.555 167.813 750.472 169.692 750.959L243.501 770.082C245.38 770.568 247.297 769.441 247.784 767.562L256.426 734.205C256.913 732.327 255.784 730.41 253.905 729.923Z" fill="#0E0E0E"/>
<path d="M239.147 827.506L145.653 803.284C143.499 802.726 141.302 804.018 140.744 806.171L128.736 852.519C128.179 854.672 129.472 856.869 131.625 857.427L225.12 881.649C227.273 882.207 229.471 880.914 230.028 878.762L242.036 832.413C242.594 830.261 241.3 828.064 239.147 827.506Z" fill="white"/>
<path d="M227.464 831.981L153.655 812.859C151.776 812.372 149.858 813.5 149.372 815.378L140.73 848.735C140.243 850.613 141.372 852.53 143.25 853.017L217.06 872.14C218.939 872.627 220.856 871.499 221.343 869.62L229.985 836.263C230.472 834.385 229.343 832.468 227.464 831.981Z" fill="#0E0E0E"/>
<path d="M216.72 914.702C215.74 918.484 211.9 920.711 208.154 919.74L127.961 898.964C124.177 897.984 121.949 894.144 122.919 890.4C123.899 886.617 127.739 884.391 131.485 885.361L211.678 906.138C215.462 907.118 217.69 910.957 216.72 914.702Z" fill="#FF5C00"/>
<path d="M338.952 139.363L329.812 198.891L139.58 890.802L130.488 932.034" stroke="white" stroke-width="3" stroke-miterlimit="10" stroke-dasharray="1 1"/>
<path d="M346.753 109.254L338.132 201.413L152.116 895.314L142.951 932.735" stroke="white" stroke-width="3" stroke-miterlimit="10" stroke-dasharray="1 1"/>
<path d="M354.554 79.145L346.599 203.525L164.347 898.483L154.685 935.776" stroke="white" stroke-width="3" stroke-miterlimit="10" stroke-dasharray="1 1"/>
<path d="M408.143 93.0287L354.997 205.905L176.579 901.652L167.873 939.192" stroke="white" stroke-width="3" stroke-miterlimit="10" stroke-dasharray="1 1"/>
<path d="M400.797 122.644L363.436 207.969L188.772 904.811L178.81 942.474" stroke="white" stroke-width="3" stroke-miterlimit="10" stroke-dasharray="1 1"/>
<path d="M392.542 153.247L371.853 210.272L201.004 907.979L190.21 946.65" stroke="white" stroke-width="3" stroke-miterlimit="10" stroke-dasharray="1 1"/>
<path d="M411.621 93.9298C411.126 95.8403 409.153 97.0009 407.242 96.5057C405.331 96.0106 404.17 94.038 404.665 92.1275C405.16 90.217 407.133 89.0564 409.044 89.5516C410.955 90.0467 412.116 92.0193 411.621 93.9298Z" fill="#0029FF"/>
<path d="M358.032 80.046C357.537 81.9565 355.564 83.1171 353.653 82.6219C351.742 82.1268 350.58 80.1542 351.075 78.2437C351.57 76.3332 353.543 75.1726 355.455 75.6678C357.366 76.1629 358.527 78.1355 358.032 80.046Z" fill="#0029FF"/>
<path d="M403.821 124.039C403.326 125.95 401.353 127.11 399.442 126.615C397.53 126.12 396.369 124.147 396.864 122.237C397.359 120.326 399.332 119.166 401.243 119.661C403.154 120.156 404.316 122.129 403.821 124.039Z" fill="#0029FF"/>
<path d="M350.231 110.155C349.736 112.066 347.763 113.226 345.852 112.731C343.941 112.236 342.78 110.264 343.275 108.353C343.77 106.443 345.743 105.282 347.654 105.777C349.565 106.272 350.726 108.245 350.231 110.155Z" fill="#0029FF"/>
<path d="M396.02 154.148C395.525 156.059 393.552 157.219 391.641 156.724C389.73 156.229 388.568 154.256 389.063 152.346C389.558 150.435 391.531 149.275 393.443 149.77C395.354 150.265 396.515 152.238 396.02 154.148Z" fill="#0029FF"/>
<path d="M342.431 140.264C341.936 142.175 339.963 143.335 338.052 142.84C336.14 142.345 334.979 140.372 335.474 138.462C335.969 136.551 337.942 135.391 339.853 135.886C341.764 136.381 342.926 138.354 342.431 140.264Z" fill="#0029FF"/>
<path d="M216.877 959.594C215.313 965.631 209.153 969.255 203.114 967.69L109.046 943.319C103.007 941.754 99.3812 935.596 100.945 929.559C102.509 923.522 108.669 919.898 114.708 921.463L208.776 945.834C214.816 947.399 218.441 953.557 216.877 959.594Z" fill="#FF5C00"/>
</g>
<defs>
<filter id="filter0_d_265_2757" x="231.456" y="952.783" width="32.6742" height="32.6646" filterUnits="userSpaceOnUse" color-interpolation-filters="sRGB">
<feFlood flood-opacity="0" result="BackgroundImageFix"/>
<feColorMatrix in="SourceAlpha" type="matrix" values="0 0 0 0 0 0 0 0 0 0 0 0 0 0 0 0 0 0 127 0" result="hardAlpha"/>
<feOffset dx="1" dy="1"/>
<feColorMatrix type="matrix" values="0 0 0 0 0 0 0 0 0 0 0 0 0 0 0 0 0 0 0.16 0"/>
<feBlend mode="normal" in2="BackgroundImageFix" result="effect1_dropShadow_265_2757"/>
<feBlend mode="normal" in="SourceGraphic" in2="effect1_dropShadow_265_2757" result="shape"/>
</filter>
<filter id="filter1_d_265_2757" x="291.05" y="936.421" width="32.6691" height="32.6611" filterUnits="userSpaceOnUse" color-interpolation-filters="sRGB">
<feFlood flood-opacity="0" result="BackgroundImageFix"/>
<feColorMatrix in="SourceAlpha" type="matrix" values="0 0 0 0 0 0 0 0 0 0 0 0 0 0 0 0 0 0 127 0" result="hardAlpha"/>
<feOffset dx="1" dy="1"/>
<feColorMatrix type="matrix" values="0 0 0 0 0 0 0 0 0 0 0 0 0 0 0 0 0 0 0.16 0"/>
<feBlend mode="normal" in2="BackgroundImageFix" result="effect1_dropShadow_265_2757"/>
<feBlend mode="normal" in="SourceGraphic" in2="effect1_dropShadow_265_2757" result="shape"/>
</filter>
<filter id="filter2_d_265_2757" x="211.74" y="1020.54" width="32.6743" height="32.6646" filterUnits="userSpaceOnUse" color-interpolation-filters="sRGB">
<feFlood flood-opacity="0" result="BackgroundImageFix"/>
<feColorMatrix in="SourceAlpha" type="matrix" values="0 0 0 0 0 0 0 0 0 0 0 0 0 0 0 0 0 0 127 0" result="hardAlpha"/>
<feOffset dx="1" dy="1"/>
<feColorMatrix type="matrix" values="0 0 0 0 0 0 0 0 0 0 0 0 0 0 0 0 0 0 0.16 0"/>
<feBlend mode="normal" in2="BackgroundImageFix" result="effect1_dropShadow_265_2757"/>
<feBlend mode="normal" in="SourceGraphic" in2="effect1_dropShadow_265_2757" result="shape"/>
</filter>
<filter id="filter3_d_265_2757" x="271.334" y="1004.18" width="32.6691" height="32.6611" filterUnits="userSpaceOnUse" color-interpolation-filters="sRGB">
<feFlood flood-opacity="0" result="BackgroundImageFix"/>
<feColorMatrix in="SourceAlpha" type="matrix" values="0 0 0 0 0 0 0 0 0 0 0 0 0 0 0 0 0 0 127 0" result="hardAlpha"/>
<feOffset dx="1" dy="1"/>
<feColorMatrix type="matrix" values="0 0 0 0 0 0 0 0 0 0 0 0 0 0 0 0 0 0 0.16 0"/>
<feBlend mode="normal" in2="BackgroundImageFix" result="effect1_dropShadow_265_2757"/>
<feBlend mode="normal" in="SourceGraphic" in2="effect1_dropShadow_265_2757" result="shape"/>
</filter>
<filter id="filter4_d_265_2757" x="155.038" y="701.134" width="114.559" height="79.625" filterUnits="userSpaceOnUse" color-interpolation-filters="sRGB">
<feFlood flood-opacity="0" result="BackgroundImageFix"/>
<feColorMatrix in="SourceAlpha" type="matrix" values="0 0 0 0 0 0 0 0 0 0 0 0 0 0 0 0 0 0 127 0" result="hardAlpha"/>
<feOffset dx="1" dy="1"/>
<feColorMatrix type="matrix" values="0 0 0 0 0 0 0 0 0 0 0 0 0 0 0 0 0 0 0.16 0"/>
<feBlend mode="normal" in2="BackgroundImageFix" result="effect1_dropShadow_265_2757"/>
<feBlend mode="normal" in="SourceGraphic" in2="effect1_dropShadow_265_2757" result="shape"/>
</filter>
<clipPath id="clip0_265_2757">
<rect width="363.819" height="1091.46" fill="white" transform="translate(215.736) rotate(14.5248)"/>
</clipPath>
</defs>
</svg>
