<svg width="1440" height="1068" viewBox="0 0 1440 1068" fill="none" xmlns="http://www.w3.org/2000/svg">
<g clip-path="url(#clip0_366_1739)">
<path d="M1183.45 516.793C1183.45 361.281 1140.76 212.569 995.895 207.329C857.266 202.313 861.055 274.773 713.399 274.773C565.744 274.773 525.403 40 232.767 40C-59.8696 40 -218 300.971 -218 553.581C-218 806.191 -59.981 1067.16 232.767 1067.16C525.515 1067.16 565.632 832.388 713.288 832.388C791.294 832.388 829.518 900.947 913.653 917.335C976.839 929.597 1017.18 910.312 1013.61 885.898C1010.6 864.94 942.85 840.749 940.733 767.619C938.616 694.378 1016.07 624.37 1070.11 609.543L1183.22 516.904L1183.45 516.793Z" fill="#0029FF"/>
<path d="M1023.84 371.202C997.985 371.202 977.035 350.244 977.035 324.381C977.035 298.518 997.985 277.561 1023.84 277.561C1049.69 277.561 1070.64 298.518 1070.64 324.381C1070.64 350.244 1049.69 371.202 1023.84 371.202Z" fill="#FF5C00"/>
<path d="M1006.79 324.381C1006.79 333.801 1014.42 341.438 1023.84 341.438C1033.26 341.438 1040.89 333.801 1040.89 324.381C1040.89 314.962 1033.26 307.325 1023.84 307.325C1014.42 307.325 1006.79 314.962 1006.79 324.381Z" fill="#0029FF"/>
<g filter="url(#filter0_d_366_1739)">
<path d="M202.875 812.099C202.875 836.788 222.882 856.802 247.562 856.802C272.241 856.802 292.248 836.788 292.248 812.099C292.248 787.411 272.241 767.396 247.562 767.396C222.882 767.396 202.875 787.411 202.875 812.099Z" fill="#FF5C00"/>
</g>
<path d="M247.562 845.208C229.286 845.208 214.465 830.382 214.465 812.099C214.465 793.817 229.286 778.99 247.562 778.99C265.838 778.99 280.659 793.817 280.659 812.099C280.659 830.382 265.838 845.208 247.562 845.208Z" fill="#0029FF"/>
<path d="M247.562 827.483C239.092 827.483 232.183 820.572 232.183 812.099C232.183 803.627 239.092 796.715 247.562 796.715C256.031 796.715 262.94 803.627 262.94 812.099C262.94 820.572 256.031 827.483 247.562 827.483Z" fill="#FF5C00"/>
<g filter="url(#filter1_d_366_1739)">
<path d="M334.483 1008.08C309.744 1008.08 289.797 988.012 289.797 963.376C289.797 938.739 309.856 918.673 334.483 918.673C359.111 918.673 379.17 938.739 379.17 963.376C379.17 988.012 359.111 1008.08 334.483 1008.08Z" fill="#FF5C00"/>
</g>
<path d="M334.483 996.373C316.207 996.373 301.386 981.547 301.386 963.264C301.386 944.982 316.207 930.155 334.483 930.155C352.759 930.155 367.58 944.982 367.58 963.264C367.58 981.547 352.759 996.373 334.483 996.373Z" fill="#0029FF"/>
<path d="M319.105 963.264C319.105 971.761 325.99 978.648 334.483 978.648C342.977 978.648 349.862 971.761 349.862 963.264C349.862 954.768 342.977 947.88 334.483 947.88C325.99 947.88 319.105 954.768 319.105 963.264Z" fill="#FF5C00"/>
<g filter="url(#filter2_d_366_1739)">
<path d="M3.73519 806.191C3.73519 830.88 23.742 850.894 48.4218 850.894C73.1016 850.894 93.1084 830.88 93.1084 806.191C93.1084 781.502 73.1016 761.488 48.4218 761.488C23.742 761.488 3.73519 781.502 3.73519 806.191Z" fill="#FF5C00"/>
</g>
<path d="M48.4218 839.3C30.146 839.3 15.3245 824.474 15.3245 806.191C15.3245 787.909 30.146 773.082 48.4218 773.082C66.6976 773.082 81.5189 787.909 81.5189 806.191C81.5189 824.474 66.6976 839.3 48.4218 839.3Z" fill="#0029FF"/>
<path d="M48.4218 821.687C39.9525 821.687 33.0433 814.775 33.0433 806.302C33.0433 797.83 39.9525 790.918 48.4218 790.918C56.8911 790.918 63.8003 797.83 63.8003 806.302C63.8003 814.775 56.8911 821.687 48.4218 821.687Z" fill="#FF5C00"/>
<g filter="url(#filter3_d_366_1739)">
<path d="M135.344 1002.17C110.604 1002.17 90.6568 982.104 90.6568 957.468C90.6568 932.831 110.716 912.765 135.344 912.765C159.971 912.765 180.03 932.831 180.03 957.468C180.03 982.104 159.971 1002.17 135.344 1002.17Z" fill="#FF5C00"/>
</g>
<path d="M135.344 990.465C117.068 990.465 102.246 975.639 102.246 957.356C102.246 939.074 117.068 924.247 135.344 924.247C153.619 924.247 168.441 939.074 168.441 957.356C168.441 975.639 153.619 990.465 135.344 990.465Z" fill="#0029FF"/>
<path d="M135.344 972.852C126.874 972.852 119.965 965.94 119.965 957.468C119.965 948.995 126.874 942.083 135.344 942.083C143.813 942.083 150.722 948.995 150.722 957.468C150.722 965.94 143.813 972.852 135.344 972.852Z" fill="#FF5C00"/>
<rect x="927" y="452" width="514" height="213" fill="#FF5C00"/>
<line x1="-1" y1="450.5" x2="1441" y2="450.5" stroke="#797979" stroke-width="3" stroke-dasharray="6 6"/>
<line x1="-1" y1="480.5" x2="1441" y2="480.5" stroke="#797979" stroke-width="3" stroke-dasharray="6 6"/>
<line x1="-1" y1="666.5" x2="1441" y2="666.5" stroke="#797979" stroke-width="3" stroke-dasharray="6 6"/>
<path d="M-1 629L1441 629" stroke="#797979" stroke-width="3" stroke-dasharray="6 6"/>
</g>
<line x1="350.857" y1="618.769" x2="910.857" y2="1008.77" stroke="#FF5C00" stroke-width="3"/>
<line x1="908.724" y1="1009.21" x2="1146.72" y2="624.211" stroke="#FF5C00" stroke-width="3"/>
<defs>
<filter id="filter0_d_366_1739" x="202.875" y="767.396" width="90.3734" height="90.4058" filterUnits="userSpaceOnUse" color-interpolation-filters="sRGB">
<feFlood flood-opacity="0" result="BackgroundImageFix"/>
<feColorMatrix in="SourceAlpha" type="matrix" values="0 0 0 0 0 0 0 0 0 0 0 0 0 0 0 0 0 0 127 0" result="hardAlpha"/>
<feOffset dx="1" dy="1"/>
<feColorMatrix type="matrix" values="0 0 0 0 0 0 0 0 0 0 0 0 0 0 0 0 0 0 0.16 0"/>
<feBlend mode="normal" in2="BackgroundImageFix" result="effect1_dropShadow_366_1739"/>
<feBlend mode="normal" in="SourceGraphic" in2="effect1_dropShadow_366_1739" result="shape"/>
</filter>
<filter id="filter1_d_366_1739" x="289.797" y="918.673" width="90.3732" height="90.4058" filterUnits="userSpaceOnUse" color-interpolation-filters="sRGB">
<feFlood flood-opacity="0" result="BackgroundImageFix"/>
<feColorMatrix in="SourceAlpha" type="matrix" values="0 0 0 0 0 0 0 0 0 0 0 0 0 0 0 0 0 0 127 0" result="hardAlpha"/>
<feOffset dx="1" dy="1"/>
<feColorMatrix type="matrix" values="0 0 0 0 0 0 0 0 0 0 0 0 0 0 0 0 0 0 0.16 0"/>
<feBlend mode="normal" in2="BackgroundImageFix" result="effect1_dropShadow_366_1739"/>
<feBlend mode="normal" in="SourceGraphic" in2="effect1_dropShadow_366_1739" result="shape"/>
</filter>
<filter id="filter2_d_366_1739" x="3.73517" y="761.488" width="90.3732" height="90.4058" filterUnits="userSpaceOnUse" color-interpolation-filters="sRGB">
<feFlood flood-opacity="0" result="BackgroundImageFix"/>
<feColorMatrix in="SourceAlpha" type="matrix" values="0 0 0 0 0 0 0 0 0 0 0 0 0 0 0 0 0 0 127 0" result="hardAlpha"/>
<feOffset dx="1" dy="1"/>
<feColorMatrix type="matrix" values="0 0 0 0 0 0 0 0 0 0 0 0 0 0 0 0 0 0 0.16 0"/>
<feBlend mode="normal" in2="BackgroundImageFix" result="effect1_dropShadow_366_1739"/>
<feBlend mode="normal" in="SourceGraphic" in2="effect1_dropShadow_366_1739" result="shape"/>
</filter>
<filter id="filter3_d_366_1739" x="90.6568" y="912.765" width="90.3734" height="90.4058" filterUnits="userSpaceOnUse" color-interpolation-filters="sRGB">
<feFlood flood-opacity="0" result="BackgroundImageFix"/>
<feColorMatrix in="SourceAlpha" type="matrix" values="0 0 0 0 0 0 0 0 0 0 0 0 0 0 0 0 0 0 127 0" result="hardAlpha"/>
<feOffset dx="1" dy="1"/>
<feColorMatrix type="matrix" values="0 0 0 0 0 0 0 0 0 0 0 0 0 0 0 0 0 0 0.16 0"/>
<feBlend mode="normal" in2="BackgroundImageFix" result="effect1_dropShadow_366_1739"/>
<feBlend mode="normal" in="SourceGraphic" in2="effect1_dropShadow_366_1739" result="shape"/>
</filter>
<clipPath id="clip0_366_1739">
<rect width="1027.16" height="3081.49" fill="white" transform="matrix(0 1 -1 0 2872.49 40)"/>
</clipPath>
</defs>
</svg>
