<svg width="1440" height="1028" viewBox="0 0 1440 1028" fill="none" xmlns="http://www.w3.org/2000/svg">
<g clip-path="url(#clip0_286_307)">
<path d="M1183.45 476.793C1183.45 321.281 1140.76 172.569 995.895 167.329C857.266 162.313 861.055 234.773 713.399 234.773C565.744 234.773 525.403 0 232.767 0C-59.8696 0 -218 260.971 -218 513.581C-218 766.191 -59.981 1027.16 232.767 1027.16C525.515 1027.16 565.632 792.388 713.288 792.388C791.294 792.388 829.518 860.947 913.653 877.335C976.839 889.597 1017.18 870.312 1013.61 845.898C1010.6 824.94 942.85 800.749 940.733 727.619C938.616 654.378 1016.07 584.37 1070.11 569.543L1183.22 476.904L1183.45 476.793Z" fill="#0029FF"/>
<path d="M1023.84 331.202C997.985 331.202 977.035 310.244 977.035 284.381C977.035 258.518 997.985 237.561 1023.84 237.561C1049.69 237.561 1070.64 258.518 1070.64 284.381C1070.64 310.244 1049.69 331.202 1023.84 331.202Z" fill="#FF5C00"/>
<path d="M1006.79 284.381C1006.79 293.801 1014.42 301.438 1023.84 301.438C1033.26 301.438 1040.89 293.801 1040.89 284.381C1040.89 274.962 1033.26 267.325 1023.84 267.325C1014.42 267.325 1006.79 274.962 1006.79 284.381Z" fill="#0029FF"/>
<g filter="url(#filter0_d_286_307)">
<path d="M202.875 772.099C202.875 796.788 222.882 816.802 247.562 816.802C272.241 816.802 292.248 796.788 292.248 772.099C292.248 747.411 272.241 727.396 247.562 727.396C222.882 727.396 202.875 747.411 202.875 772.099Z" fill="#FF5C00"/>
</g>
<path d="M247.562 805.208C229.286 805.208 214.464 790.382 214.464 772.099C214.464 753.817 229.286 738.99 247.562 738.99C265.837 738.99 280.659 753.817 280.659 772.099C280.659 790.382 265.837 805.208 247.562 805.208Z" fill="#0029FF"/>
<path d="M247.561 787.483C239.092 787.483 232.183 780.572 232.183 772.099C232.183 763.627 239.092 756.715 247.561 756.715C256.031 756.715 262.94 763.627 262.94 772.099C262.94 780.572 256.031 787.483 247.561 787.483Z" fill="#FF5C00"/>
<g filter="url(#filter1_d_286_307)">
<path d="M334.483 968.078C309.744 968.078 289.797 948.012 289.797 923.376C289.797 898.739 309.856 878.673 334.483 878.673C359.111 878.673 379.17 898.739 379.17 923.376C379.17 948.012 359.111 968.078 334.483 968.078Z" fill="#FF5C00"/>
</g>
<path d="M334.483 956.373C316.207 956.373 301.386 941.547 301.386 923.264C301.386 904.982 316.207 890.155 334.483 890.155C352.759 890.155 367.58 904.982 367.58 923.264C367.58 941.547 352.759 956.373 334.483 956.373Z" fill="#0029FF"/>
<path d="M319.105 923.264C319.105 931.761 325.99 938.648 334.483 938.648C342.977 938.648 349.862 931.761 349.862 923.264C349.862 914.768 342.977 907.88 334.483 907.88C325.99 907.88 319.105 914.768 319.105 923.264Z" fill="#FF5C00"/>
<g filter="url(#filter2_d_286_307)">
<path d="M3.73519 766.191C3.73519 790.88 23.742 810.894 48.4218 810.894C73.1016 810.894 93.1084 790.88 93.1084 766.191C93.1084 741.502 73.1016 721.488 48.4218 721.488C23.742 721.488 3.73519 741.502 3.73519 766.191Z" fill="#FF5C00"/>
</g>
<path d="M48.4219 799.3C30.1461 799.3 15.3246 784.474 15.3246 766.191C15.3246 747.909 30.1461 733.082 48.4219 733.082C66.6978 733.082 81.519 747.909 81.519 766.191C81.519 784.474 66.6978 799.3 48.4219 799.3Z" fill="#0029FF"/>
<path d="M48.4218 781.687C39.9525 781.687 33.0433 774.775 33.0433 766.302C33.0433 757.83 39.9525 750.918 48.4218 750.918C56.8911 750.918 63.8003 757.83 63.8003 766.302C63.8003 774.775 56.8911 781.687 48.4218 781.687Z" fill="#FF5C00"/>
<g filter="url(#filter3_d_286_307)">
<path d="M135.344 962.17C110.604 962.17 90.6569 942.104 90.6569 917.468C90.6569 892.831 110.716 872.765 135.344 872.765C159.971 872.765 180.03 892.831 180.03 917.468C180.03 942.104 159.971 962.17 135.344 962.17Z" fill="#FF5C00"/>
</g>
<path d="M135.344 950.465C117.068 950.465 102.246 935.639 102.246 917.356C102.246 899.074 117.068 884.247 135.344 884.247C153.619 884.247 168.441 899.074 168.441 917.356C168.441 935.639 153.619 950.465 135.344 950.465Z" fill="#0029FF"/>
<path d="M135.344 932.852C126.874 932.852 119.965 925.94 119.965 917.468C119.965 908.995 126.874 902.083 135.344 902.083C143.813 902.083 150.722 908.995 150.722 917.468C150.722 925.94 143.813 932.852 135.344 932.852Z" fill="#FF5C00"/>
<rect x="927" y="412" width="514" height="213" fill="#FF5C00"/>
<line x1="-1" y1="403.5" x2="1441" y2="403.5" stroke="#797979" stroke-width="3" stroke-dasharray="6 6"/>
<line x1="-1" y1="410.5" x2="1441" y2="410.5" stroke="#797979" stroke-width="3" stroke-dasharray="6 6"/>
<line x1="-1" y1="440.5" x2="1441" y2="440.5" stroke="#797979" stroke-width="3" stroke-dasharray="6 6"/>
<line x1="-1" y1="511.5" x2="1441" y2="511.5" stroke="#797979" stroke-width="3" stroke-dasharray="6 6"/>
<line x1="-1" y1="626.5" x2="1441" y2="626.5" stroke="#797979" stroke-width="3" stroke-dasharray="6 6"/>
<path d="M-1 596L1441 596" stroke="#797979" stroke-width="3" stroke-dasharray="6 6"/>
</g>
<defs>
<filter id="filter0_d_286_307" x="202.875" y="727.396" width="90.3733" height="90.4058" filterUnits="userSpaceOnUse" color-interpolation-filters="sRGB">
<feFlood flood-opacity="0" result="BackgroundImageFix"/>
<feColorMatrix in="SourceAlpha" type="matrix" values="0 0 0 0 0 0 0 0 0 0 0 0 0 0 0 0 0 0 127 0" result="hardAlpha"/>
<feOffset dx="1" dy="1"/>
<feColorMatrix type="matrix" values="0 0 0 0 0 0 0 0 0 0 0 0 0 0 0 0 0 0 0.16 0"/>
<feBlend mode="normal" in2="BackgroundImageFix" result="effect1_dropShadow_286_307"/>
<feBlend mode="normal" in="SourceGraphic" in2="effect1_dropShadow_286_307" result="shape"/>
</filter>
<filter id="filter1_d_286_307" x="289.797" y="878.673" width="90.3733" height="90.4058" filterUnits="userSpaceOnUse" color-interpolation-filters="sRGB">
<feFlood flood-opacity="0" result="BackgroundImageFix"/>
<feColorMatrix in="SourceAlpha" type="matrix" values="0 0 0 0 0 0 0 0 0 0 0 0 0 0 0 0 0 0 127 0" result="hardAlpha"/>
<feOffset dx="1" dy="1"/>
<feColorMatrix type="matrix" values="0 0 0 0 0 0 0 0 0 0 0 0 0 0 0 0 0 0 0.16 0"/>
<feBlend mode="normal" in2="BackgroundImageFix" result="effect1_dropShadow_286_307"/>
<feBlend mode="normal" in="SourceGraphic" in2="effect1_dropShadow_286_307" result="shape"/>
</filter>
<filter id="filter2_d_286_307" x="3.73511" y="721.488" width="90.3733" height="90.4058" filterUnits="userSpaceOnUse" color-interpolation-filters="sRGB">
<feFlood flood-opacity="0" result="BackgroundImageFix"/>
<feColorMatrix in="SourceAlpha" type="matrix" values="0 0 0 0 0 0 0 0 0 0 0 0 0 0 0 0 0 0 127 0" result="hardAlpha"/>
<feOffset dx="1" dy="1"/>
<feColorMatrix type="matrix" values="0 0 0 0 0 0 0 0 0 0 0 0 0 0 0 0 0 0 0.16 0"/>
<feBlend mode="normal" in2="BackgroundImageFix" result="effect1_dropShadow_286_307"/>
<feBlend mode="normal" in="SourceGraphic" in2="effect1_dropShadow_286_307" result="shape"/>
</filter>
<filter id="filter3_d_286_307" x="90.657" y="872.765" width="90.3733" height="90.4058" filterUnits="userSpaceOnUse" color-interpolation-filters="sRGB">
<feFlood flood-opacity="0" result="BackgroundImageFix"/>
<feColorMatrix in="SourceAlpha" type="matrix" values="0 0 0 0 0 0 0 0 0 0 0 0 0 0 0 0 0 0 127 0" result="hardAlpha"/>
<feOffset dx="1" dy="1"/>
<feColorMatrix type="matrix" values="0 0 0 0 0 0 0 0 0 0 0 0 0 0 0 0 0 0 0.16 0"/>
<feBlend mode="normal" in2="BackgroundImageFix" result="effect1_dropShadow_286_307"/>
<feBlend mode="normal" in="SourceGraphic" in2="effect1_dropShadow_286_307" result="shape"/>
</filter>
<clipPath id="clip0_286_307">
<rect width="1027.16" height="3081.49" fill="white" transform="matrix(0 1 -1 0 2872.49 0)"/>
</clipPath>
</defs>
</svg>
