<svg width="265" height="550" viewBox="0 0 265 550" fill="none" xmlns="http://www.w3.org/2000/svg">
<line x1="131.394" y1="11.8086" x2="131.394" y2="541.809" stroke="#0029FF" stroke-width="3"/>
<line x1="60.6605" y1="548.324" x2="131.512" y2="430.239" stroke="#0029FF" stroke-width="3"/>
<line y1="-1.5" x2="137.71" y2="-1.5" transform="matrix(-0.514496 -0.857493 -0.857493 0.514496 200.745 549.096)" stroke="#0029FF" stroke-width="3"/>
<path d="M99 229H164" stroke="#0029FF" stroke-width="3"/>
<circle cx="131.764" cy="8.5" r="7" fill="#0029FF" stroke="#0029FF" stroke-width="3"/>
<circle cx="171.5" cy="229.5" r="7" fill="#0029FF" stroke="#0029FF" stroke-width="3"/>
<mask id="path-7-inside-1_304_259" fill="white">
<path fill-rule="evenodd" clip-rule="evenodd" d="M207 78.085C201.384 49.7659 169.944 28.0848 132 28.0848C94.0562 28.0848 62.616 49.7659 57 78.085H207Z"/>
</mask>
<path fill-rule="evenodd" clip-rule="evenodd" d="M207 78.085C201.384 49.7659 169.944 28.0848 132 28.0848C94.0562 28.0848 62.616 49.7659 57 78.085H207Z" fill="#0029FF"/>
<path d="M207 78.085L209.943 77.5014L210.653 81.085H207V78.085ZM57 78.085V81.085H53.3466L54.0573 77.5014L57 78.085ZM204.057 78.6685C198.81 52.2069 169.03 31.0848 132 31.0848V25.0848C170.857 25.0848 203.958 47.3248 209.943 77.5014L204.057 78.6685ZM132 31.0848C94.9696 31.0848 65.1904 52.2069 59.9427 78.6685L54.0573 77.5014C60.0417 47.3248 93.1427 25.0848 132 25.0848V31.0848ZM57 75.085H207V81.085H57V75.085Z" fill="#0029FF" mask="url(#path-7-inside-1_304_259)"/>
<mask id="path-9-inside-2_304_259" fill="white">
<path fill-rule="evenodd" clip-rule="evenodd" d="M207 127C201.384 155.319 169.944 177 132 177C94.0562 177 62.616 155.319 57 127H207Z"/>
</mask>
<path fill-rule="evenodd" clip-rule="evenodd" d="M207 127C201.384 155.319 169.944 177 132 177C94.0562 177 62.616 155.319 57 127H207Z" fill="#0029FF"/>
<path d="M207 127L209.943 127.584L210.653 124H207V127ZM57 127V124H53.3466L54.0573 127.584L57 127ZM204.057 126.416C198.81 152.878 169.03 174 132 174V180C170.857 180 203.958 157.76 209.943 127.584L204.057 126.416ZM132 174C94.9696 174 65.1904 152.878 59.9427 126.416L54.0573 127.584C60.0417 157.76 93.1427 180 132 180V174ZM57 130H207V124H57V130Z" fill="#0029FF" mask="url(#path-9-inside-2_304_259)"/>
<line x1="1.31134e-07" y1="76.585" x2="265" y2="76.585" stroke="#0029FF" stroke-width="3"/>
<line y1="-1.5" x2="265" y2="-1.5" transform="matrix(1 -8.74228e-08 -8.74228e-08 -1 0 127)" stroke="#0029FF" stroke-width="3"/>
<path d="M89.5 501.5L131.219 542L175.5 502.5" stroke="#0029FF" stroke-width="3"/>
</svg>
