<svg width="265" height="550" viewBox="0 0 265 550" fill="none" xmlns="http://www.w3.org/2000/svg">
<line x1="131.394" y1="11.8086" x2="131.394" y2="541.809" stroke="#0029FF" stroke-width="3"/>
<line x1="60.6605" y1="548.324" x2="131.512" y2="430.239" stroke="#0029FF" stroke-width="3"/>
<line y1="-1.5" x2="137.71" y2="-1.5" transform="matrix(-0.514496 -0.857493 -0.857493 0.514496 200.745 549.096)" stroke="#0029FF" stroke-width="3"/>
<path d="M99 229H164" stroke="#0029FF" stroke-width="3"/>
<circle cx="131.764" cy="8.5" r="7" fill="#0029FF" stroke="#0029FF" stroke-width="3"/>
<circle cx="171.5" cy="229.5" r="7" fill="#0029FF" stroke="#0029FF" stroke-width="3"/>
<mask id="path-7-inside-1_304_275" fill="white">
<path fill-rule="evenodd" clip-rule="evenodd" d="M207 118.085C201.384 89.7659 169.944 68.0848 132 68.0848C94.0562 68.0848 62.616 89.7659 57 118.085H207Z"/>
</mask>
<path fill-rule="evenodd" clip-rule="evenodd" d="M207 118.085C201.384 89.7659 169.944 68.0848 132 68.0848C94.0562 68.0848 62.616 89.7659 57 118.085H207Z" fill="#0029FF"/>
<path d="M207 118.085L209.943 117.501L210.653 121.085H207V118.085ZM57 118.085V121.085H53.3466L54.0573 117.501L57 118.085ZM204.057 118.669C198.81 92.2069 169.03 71.0848 132 71.0848V65.0848C170.857 65.0848 203.958 87.3248 209.943 117.501L204.057 118.669ZM132 71.0848C94.9696 71.0848 65.1904 92.2069 59.9427 118.669L54.0573 117.501C60.0417 87.3248 93.1427 65.0848 132 65.0848V71.0848ZM57 115.085H207V121.085H57V115.085Z" fill="#0029FF" mask="url(#path-7-inside-1_304_275)"/>
<mask id="path-9-inside-2_304_275" fill="white">
<path fill-rule="evenodd" clip-rule="evenodd" d="M207 127C201.384 155.319 169.944 177 132 177C94.0562 177 62.616 155.319 57 127H207Z"/>
</mask>
<path fill-rule="evenodd" clip-rule="evenodd" d="M207 127C201.384 155.319 169.944 177 132 177C94.0562 177 62.616 155.319 57 127H207Z" fill="#0029FF"/>
<path d="M207 127L209.943 127.584L210.653 124H207V127ZM57 127V124H53.3466L54.0573 127.584L57 127ZM204.057 126.416C198.81 152.878 169.03 174 132 174V180C170.857 180 203.958 157.76 209.943 127.584L204.057 126.416ZM132 174C94.9696 174 65.1904 152.878 59.9427 126.416L54.0573 127.584C60.0417 157.76 93.1427 180 132 180V174ZM57 130H207V124H57V130Z" fill="#0029FF" mask="url(#path-9-inside-2_304_275)"/>
<line x1="1.31134e-07" y1="116.585" x2="265" y2="116.585" stroke="#0029FF" stroke-width="3"/>
<line y1="-1.5" x2="265" y2="-1.5" transform="matrix(1 -8.74228e-08 -8.74228e-08 -1 0 127)" stroke="#0029FF" stroke-width="3"/>
<path d="M89.5 501.5L131.219 542L175.5 502.5" stroke="#0029FF" stroke-width="3"/>
</svg>
