<svg width="399" height="426" viewBox="0 0 399 426" fill="none" xmlns="http://www.w3.org/2000/svg">
<rect x="12.7145" y="132.599" width="341.892" height="297.297" transform="rotate(-9.41771 12.7145 132.599)" fill="#0029FF"/>
<rect x="37.995" y="148.748" width="297.297" height="257.276" transform="rotate(-9.41771 37.995 148.748)" fill="#FF5C00"/>
<rect y="55.9441" width="341.892" height="70.6081" transform="rotate(-9.41771 0 55.9441)" fill="#0029FF"/>
<g filter="url(#filter0_d_1_3)">
<path d="M41.7445 97.3286C48.1564 96.2651 52.4923 90.207 51.4292 83.7975C50.3661 77.388 44.3065 73.0542 37.8946 74.1177C31.4828 75.1812 27.1468 81.2393 28.2099 87.6488C29.273 94.0583 35.3327 98.3921 41.7445 97.3286Z" fill="#FF5C00"/>
</g>
<path d="M48.4183 84.2968C49.2055 89.0431 45.9934 93.531 41.2453 94.3186C36.4973 95.1061 32.0082 91.8956 31.2209 87.1492C30.4337 82.4028 33.6458 77.915 38.3939 77.1274C43.142 76.3399 47.631 79.5504 48.4183 84.2968Z" fill="#0029FF"/>
<path d="M43.8439 85.0555C44.2087 87.255 42.7113 89.3471 40.511 89.7121C38.3106 90.0771 36.218 88.5804 35.8532 86.3809C35.4884 84.1813 36.9857 82.0892 39.1861 81.7243C41.3864 81.3593 43.4791 82.8559 43.8439 85.0555Z" fill="#FF5C00"/>
<g filter="url(#filter1_d_1_3)">
<path d="M76.5429 91.2062C82.9548 90.1427 87.2907 84.0847 86.2276 77.6752C85.1645 71.2656 79.1049 66.9319 72.693 67.9954C66.2812 69.0589 61.9452 75.1169 63.0083 81.5265C64.0715 87.936 70.1311 92.2698 76.5429 91.2062Z" fill="#FF5C00"/>
</g>
<path d="M83.2166 78.1747C84.0039 82.9211 80.7918 87.409 76.0437 88.1965C71.2956 88.9841 66.8065 85.7735 66.0193 81.0271C65.232 76.2808 68.4442 71.7929 73.1922 71.0053C77.9403 70.2178 82.4293 73.4283 83.2166 78.1747Z" fill="#0029FF"/>
<path d="M78.6422 78.9334C79.0071 81.133 77.5097 83.2251 75.3093 83.59C73.109 83.955 71.0164 82.4583 70.6515 80.2588C70.2867 78.0593 71.7841 75.9672 73.9844 75.6022C76.1847 75.2372 78.2774 76.7339 78.6422 78.9334Z" fill="#FF5C00"/>
<path d="M153.73 71.169C156.2 71.3897 158.381 69.5671 158.602 67.098C158.822 64.6289 156.999 62.4483 154.529 62.2276C152.059 62.0068 149.878 63.8295 149.657 66.2986C149.436 68.7677 151.26 70.9482 153.73 71.169Z" fill="#0029FF"/>
<path d="M159.69 65.6645C160.759 72.1073 156.405 78.1885 149.958 79.2578C143.512 80.3271 137.428 75.9772 136.359 69.5344C135.29 63.0917 139.644 57.0105 146.091 55.9412C152.538 54.8718 158.622 59.2218 159.69 65.6645Z" fill="#FF5C00"/>
<path d="M149.534 66.2872C149.385 67.1913 148.542 67.8123 147.64 67.6798C146.735 67.5312 146.114 66.6885 146.247 65.7872L147.704 56.3538C147.852 55.4498 148.696 54.8288 149.598 54.9612C150.502 55.1098 151.123 55.9525 150.991 56.8539L149.534 66.2872Z" fill="white"/>
<path d="M195.01 59.8061C196.079 66.2489 191.725 72.3301 185.278 73.3994C178.832 74.4687 172.748 70.1188 171.679 63.676C170.61 57.2333 174.964 51.1521 181.411 50.0828C187.858 49.0134 193.942 53.3634 195.01 59.8061Z" fill="#FF5C00"/>
<path d="M183.966 59.6802C184.275 60.5415 183.819 61.4965 182.957 61.8053C182.095 62.1142 181.14 61.6588 180.831 60.7975L177.632 51.8212C177.323 50.9599 177.779 50.0049 178.641 49.696C179.503 49.3872 180.458 49.8426 180.767 50.7039L183.966 59.6802Z" fill="white"/>
<path d="M230.347 53.945C231.416 60.3877 227.062 66.4689 220.615 67.5382C214.168 68.6075 208.084 64.2576 207.016 57.8149C205.947 51.3721 210.301 45.2909 216.748 44.2216C223.194 43.1523 229.278 47.5022 230.347 53.945Z" fill="#FF5C00"/>
<path d="M217.048 53.9441C217.947 54.1599 218.493 55.0483 218.293 55.9443C218.077 56.8429 217.188 57.3885 216.292 57.1888L206.999 55.0136C206.1 54.7978 205.554 53.9094 205.754 53.0135C205.97 52.1148 206.859 51.5692 207.756 51.7689L217.048 53.9441Z" fill="white"/>
<path d="M265.668 48.0865C266.736 54.5292 262.383 60.6104 255.936 61.6797C249.489 62.749 243.405 58.3991 242.336 51.9563C241.268 45.5136 245.621 39.4324 252.068 38.3631C258.515 37.2938 264.599 41.6437 265.668 48.0865Z" fill="#FF5C00"/>
<path d="M255.382 48.5316C255.335 49.4519 254.538 50.1483 253.617 50.1019C252.696 50.0555 251.999 49.2586 252.046 48.3383L252.625 38.8183C252.672 37.898 253.469 37.2016 254.39 37.248C255.311 37.2944 256.008 38.0913 255.961 39.0116L255.382 48.5316Z" fill="white"/>
<path d="M296.068 33.1881L288.135 34.504C286.671 34.7467 285.682 36.1291 285.924 37.5916L288.139 50.9454C288.382 52.4079 289.765 53.3968 291.228 53.154L299.161 51.8382C300.625 51.5954 301.615 50.213 301.372 48.7505L299.157 35.3967C298.915 33.9342 297.531 32.9454 296.068 33.1881Z" fill="#FF5C00"/>
<path d="M287.03 44.2608L288.139 50.9458C288.383 52.4152 289.758 53.3983 291.228 53.1544L299.162 51.8385C300.632 51.5946 301.616 50.2203 301.372 48.7509L300.263 42.0659L287.03 44.2608Z" fill="white"/>
<path d="M316.459 29.8058L308.526 31.1217C307.063 31.3644 306.073 32.7468 306.315 34.2094L308.53 47.5631C308.773 49.0257 310.156 50.0145 311.619 49.7718L319.553 48.4559C321.016 48.2132 322.006 46.8308 321.763 45.3682L319.548 32.0145C319.306 30.5519 317.923 29.5631 316.459 29.8058Z" fill="#FF5C00"/>
<path d="M307.422 40.8785L308.531 47.5635C308.774 49.0329 310.149 50.016 311.62 49.7721L319.553 48.4563C321.023 48.2124 322.007 46.838 321.764 45.3686L320.655 38.6836L307.422 40.8785Z" fill="white"/>
<defs>
<filter id="filter0_d_1_3" x="28.0496" y="73.9572" width="24.2832" height="24.2752" filterUnits="userSpaceOnUse" color-interpolation-filters="sRGB">
<feFlood flood-opacity="0" result="BackgroundImageFix"/>
<feColorMatrix in="SourceAlpha" type="matrix" values="0 0 0 0 0 0 0 0 0 0 0 0 0 0 0 0 0 0 127 0" result="hardAlpha"/>
<feOffset dx="0.743243" dy="0.743243"/>
<feColorMatrix type="matrix" values="0 0 0 0 0 0 0 0 0 0 0 0 0 0 0 0 0 0 0.16 0"/>
<feBlend mode="normal" in2="BackgroundImageFix" result="effect1_dropShadow_1_3"/>
<feBlend mode="normal" in="SourceGraphic" in2="effect1_dropShadow_1_3" result="shape"/>
</filter>
<filter id="filter1_d_1_3" x="62.848" y="67.8348" width="24.2832" height="24.2752" filterUnits="userSpaceOnUse" color-interpolation-filters="sRGB">
<feFlood flood-opacity="0" result="BackgroundImageFix"/>
<feColorMatrix in="SourceAlpha" type="matrix" values="0 0 0 0 0 0 0 0 0 0 0 0 0 0 0 0 0 0 127 0" result="hardAlpha"/>
<feOffset dx="0.743243" dy="0.743243"/>
<feColorMatrix type="matrix" values="0 0 0 0 0 0 0 0 0 0 0 0 0 0 0 0 0 0 0.16 0"/>
<feBlend mode="normal" in2="BackgroundImageFix" result="effect1_dropShadow_1_3"/>
<feBlend mode="normal" in="SourceGraphic" in2="effect1_dropShadow_1_3" result="shape"/>
</filter>
</defs>
</svg>
