<svg width="425" height="426" viewBox="0 0 425 426" fill="none" xmlns="http://www.w3.org/2000/svg">
<g clip-path="url(#clip0_375_27)">
<path d="M123.049 333.318C105.195 335.05 90.7411 320.596 92.4732 302.743C99.5369 230.204 110.882 174.546 125.601 133.567C140.328 92.5635 158.373 66.4209 178.72 52.6849C198.982 39.0059 221.73 37.4965 246.283 46.2066C270.901 54.9398 297.289 73.9421 324.569 101.222C351.849 128.502 370.852 154.891 379.585 179.509C388.295 204.062 386.786 226.81 373.107 247.072C359.371 267.419 333.228 285.464 292.225 300.191C251.246 314.909 195.587 326.255 123.049 333.318Z" stroke="#0E0E0E" stroke-width="3"/>
</g>
<defs>
<clipPath id="clip0_375_27">
<rect width="281" height="320" fill="white" transform="translate(226.281 0.812988) rotate(45)"/>
</clipPath>
</defs>
</svg>
