<svg width="323" height="357" viewBox="0 0 323 357" fill="none" xmlns="http://www.w3.org/2000/svg">
<g clip-path="url(#clip0_375_30)">
<path d="M202.845 322.317C193.453 337.598 173.204 340.401 160.014 328.246C106.435 278.839 68.9001 236.205 45.1058 199.739C21.2977 163.251 11.3416 133.086 12.6673 108.573C13.9874 84.161 26.5113 65.1114 48.2736 50.7893C70.0935 36.4294 101.17 26.8548 139.386 21.5645C177.601 16.2743 210.11 17.0467 235.011 24.9392C259.845 32.8107 277.073 47.7418 284.975 70.8769C292.91 94.1083 291.523 125.844 278.522 167.427C265.529 208.985 240.988 260.213 202.845 322.317Z" stroke="#0E0E0E" stroke-width="3"/>
</g>
<defs>
<clipPath id="clip0_375_30">
<rect width="281" height="320" fill="white" transform="translate(0.00708008 39.3447) rotate(-7.88141)"/>
</clipPath>
</defs>
</svg>
