<svg width="1398" height="1067" viewBox="0 0 1398 1067" fill="none" xmlns="http://www.w3.org/2000/svg">
<path d="M636.398 918.593L631.814 893.448L652.214 889.729L652.801 892.952L635.837 896.044L637.109 903.021L646.99 901.22L647.577 904.443L637.696 906.244L639.833 917.967L636.398 918.593ZM660.772 903.941L662.573 913.822L659.35 914.409L656.161 896.914L659.383 896.326L659.971 899.549C660.014 899.249 660.15 898.858 660.379 898.377C660.729 897.484 661.379 896.768 662.33 896.228C663.3 895.661 664.34 895.276 665.449 895.074L669.841 894.274L670.428 897.496L665.966 898.31C664.03 898.663 662.6 899.253 661.678 900.08C660.751 900.883 660.449 902.17 660.772 903.941ZM690.828 908.671L690.279 905.661C689.914 906.874 689.219 907.879 688.194 908.676C687.192 909.468 686.029 909.985 684.707 910.226C682.134 910.695 679.906 910.187 678.025 908.7C676.144 907.213 674.969 905.183 674.5 902.609C674.026 900.012 674.421 897.696 675.685 895.66C676.944 893.601 678.837 892.341 681.363 891.881C683.795 891.437 685.806 891.9 687.398 893.269C687.814 893.681 688.071 893.951 688.168 894.08L687.638 891.176L690.861 890.588L694.05 908.084L690.828 908.671ZM689.304 899.911C688.981 898.14 688.193 896.759 686.938 895.768C685.684 894.776 684.207 894.436 682.507 894.746C680.76 895.064 679.465 895.922 678.622 897.32C677.775 898.694 677.51 900.255 677.829 902.002C678.169 903.868 678.967 905.235 680.223 906.103C681.505 907.114 683.02 907.46 684.767 907.141C686.467 906.832 687.727 905.98 688.546 904.586C689.365 903.193 689.618 901.634 689.304 899.911ZM702.214 896.825L703.938 906.282L700.715 906.869L697.526 889.373L700.749 888.786L701.336 892.009C701.701 890.796 702.356 889.774 703.302 888.942C704.268 888.083 705.376 887.54 706.628 887.312C708.776 886.92 710.716 887.323 712.447 888.52C714.096 889.805 715.123 891.557 715.527 893.776L717.361 903.835L714.102 904.429L712.379 894.972C712.086 893.367 711.41 892.136 710.352 891.28C709.293 890.424 707.973 890.14 706.391 890.429C704.809 890.717 703.64 891.467 702.885 892.678C702.154 893.884 701.93 895.267 702.214 896.825ZM737.526 887.717L734.267 888.311C732.946 886.551 731.07 885.893 728.638 886.337C726.985 886.638 725.763 887.495 724.972 888.908C724.18 890.321 723.937 891.865 724.243 893.542C724.548 895.218 725.333 896.575 726.595 897.614C727.858 898.652 729.304 899.023 730.933 898.726C733.365 898.283 734.9 897.002 735.539 894.886L738.726 894.305C738.798 895.365 738.379 896.612 737.469 898.047C736.289 899.872 734.374 901.075 731.723 901.656L732.001 903.179L732.497 903.088C735.33 902.572 736.964 903.506 737.399 905.891C737.627 907.142 737.423 908.167 736.788 908.966C736.177 909.76 735.234 910.274 733.959 910.506L729.107 911.391L728.629 908.77L733.091 907.956C734.059 907.78 734.468 907.279 734.317 906.452C734.171 905.649 733.614 905.336 732.646 905.513L729.6 906.068L728.819 901.783C726.928 901.713 725.221 900.914 723.698 899.386C722.195 897.83 721.267 896.085 720.914 894.148C720.449 891.599 720.905 889.283 722.282 887.202C723.655 885.098 725.593 883.818 728.096 883.362C730.103 882.996 731.992 883.188 733.763 883.939C735.53 884.666 736.784 885.925 737.526 887.717ZM758.305 896.371L757.757 893.361C757.392 894.574 756.697 895.578 755.672 896.375C754.669 897.168 753.507 897.685 752.185 897.926C749.611 898.395 747.384 897.886 745.503 896.399C743.622 894.913 742.447 892.882 741.978 890.309C741.504 887.712 741.899 885.395 743.163 883.36C744.422 881.3 746.314 880.041 748.841 879.58C751.273 879.137 753.284 879.599 754.876 880.968C755.292 881.38 755.549 881.651 755.646 881.779L755.116 878.875L758.339 878.288L761.528 895.783L758.305 896.371ZM756.782 887.61C756.459 885.839 755.67 884.458 754.416 883.467C753.162 882.476 751.685 882.135 749.985 882.445C748.238 882.764 746.943 883.622 746.1 885.02C745.253 886.394 744.988 887.955 745.307 889.702C745.647 891.567 746.445 892.934 747.701 893.803C748.983 894.813 750.498 895.159 752.245 894.841C753.945 894.531 755.204 893.679 756.024 892.286C756.843 890.892 757.096 889.334 756.782 887.61ZM764.355 873.715L763.432 868.65L766.796 868.037L767.72 873.101L764.355 873.715ZM768.228 894.562L765.039 877.066L768.262 876.479L771.451 893.975L768.228 894.562ZM785.224 883.962L781.392 884.222C779.686 884.362 778.212 884.106 776.971 883.454C775.749 882.774 774.994 881.643 774.706 880.061C774.486 878.857 774.693 877.783 775.326 876.838C775.982 875.889 776.792 875.18 777.756 874.712C778.739 874.215 779.809 873.862 780.966 873.651C782.217 873.423 783.4 873.353 784.514 873.443C785.652 873.528 786.75 873.865 787.809 874.453C788.863 875.017 789.672 875.845 790.238 876.937L786.802 877.564C786.774 877.544 786.588 877.395 786.245 877.116C784.856 876.321 783.264 876.086 781.469 876.413C780.501 876.59 779.622 876.921 778.833 877.406C778.043 877.892 777.723 878.548 777.874 879.374C778.111 880.673 779.24 881.247 781.262 881.098C781.941 881.072 782.567 881.031 783.143 880.975C784.289 880.839 785.278 880.781 786.111 880.8C786.968 880.815 787.834 880.949 788.71 881.204C789.582 881.436 790.299 881.891 790.862 882.569C791.424 883.247 791.809 884.153 792.015 885.286C792.188 886.23 792.104 887.112 791.766 887.93C791.422 888.724 790.886 889.395 790.156 889.943C789.446 890.463 788.681 890.883 787.861 891.203C787.069 891.542 786.225 891.794 785.328 891.957C783.344 892.319 781.43 892.192 779.586 891.577C777.742 890.962 776.424 889.823 775.634 888.162L779.069 887.536C779.273 887.987 779.721 888.369 780.412 888.682C781.127 888.991 781.795 889.174 782.415 889.231C783.092 889.328 783.89 889.292 784.811 889.124C785.449 889.008 786.054 888.849 786.627 888.647C787.219 888.417 787.752 888.063 788.227 887.587C788.72 887.082 788.909 886.511 788.793 885.873C788.638 885.023 788.247 884.485 787.62 884.257C787.012 884.002 786.214 883.904 785.224 883.962Z" fill="white"/>
<circle cx="1092.66" cy="897.66" r="95" transform="rotate(10.7673 1092.66 897.66)" fill="#FF5C00" stroke="black"/>
<g clip-path="url(#clip0_377_907)">
<path d="M1122.97 870.756L1122.96 870.791L1087.92 871.276C1087.65 871.281 1087.42 871.479 1087.36 871.749L1079.25 914.433C1077.01 912.736 1073.21 912.241 1069.3 913.421C1063.88 915.057 1060.35 919.29 1061.42 922.867C1062.49 926.445 1067.74 928.023 1073.17 926.38C1077.69 925.018 1081.09 921.868 1081.64 918.835L1088.82 881.09C1088.86 880.855 1089.07 880.68 1089.31 880.676L1120.54 880.266C1120.86 880.262 1121.1 880.552 1121.04 880.869L1115.05 912.35C1112.82 910.653 1109.01 910.158 1105.11 911.338C1099.69 912.973 1096.16 917.207 1097.23 920.783C1098.3 924.361 1103.55 925.939 1108.97 924.297C1113.5 922.934 1116.69 919.76 1117.01 916.668L1117.04 916.673L1125.64 871.435C1125.71 871.077 1125.44 870.746 1125.07 870.749L1122.96 870.755L1122.97 870.756Z" fill="black"/>
</g>
<circle cx="348.96" cy="592.96" r="95" transform="rotate(-14.997 348.96 592.96)" fill="#FF5C00" stroke="black"/>
<g clip-path="url(#clip1_377_907)">
<path d="M360.814 562.671L324.517 572.395C324.406 572.424 324.288 572.357 324.258 572.247L323.653 569.987C323.623 569.877 323.692 569.76 323.803 569.73L360.1 560.006C360.208 559.968 360.327 560.036 360.356 560.145L360.962 562.405C360.993 562.523 360.924 562.641 360.814 562.671Z" fill="black"/>
<path d="M330.964 573.695L346.305 630.961C346.373 631.214 346.642 631.368 346.897 631.3L348.965 630.746C349.22 630.677 349.376 630.41 349.308 630.157L335.214 577.545C338.67 578.228 343.259 576.71 347.049 573.263C352.315 568.482 354.014 561.826 350.864 558.404C347.714 554.983 340.881 556.09 335.616 560.872C331.223 564.859 329.947 570 330.964 573.695Z" fill="black"/>
</g>
<circle cx="898.97" cy="571.97" r="95" transform="rotate(27.7322 898.97 571.97)" fill="#0029FF" stroke="black"/>
<g clip-path="url(#clip2_377_907)">
<path d="M912.151 581.789C911.04 579.334 908.243 577.084 906.015 575.771C904.845 575.082 904.572 575.25 904.436 574.065C904.316 572.962 905.32 571.01 905.632 569.926C906.424 567.172 907.219 564.426 908.011 561.672C915.206 561.148 922.177 557.758 927.068 552.406C931.96 547.055 934.722 539.796 934.626 532.55C934.592 530.245 934.018 527.552 931.933 526.598C930.369 525.887 928.533 526.436 926.964 527.163C922.006 529.473 917.944 533.471 914.935 538.059C911.931 542.651 909.922 547.818 908.347 553.071C908.195 553.571 908.034 554.102 907.654 554.459C907.245 554.846 906.652 554.965 906.097 555.067C898.044 556.506 889.54 557.753 883.049 562.769C879.192 565.746 876.294 569.955 874.887 574.622C873.436 579.428 873.619 584.856 876.098 589.196C877.72 592.039 880.213 594.278 882.827 596.231C886.135 598.713 889.778 600.866 893.797 601.843C893.063 604.234 892.256 606.61 891.366 608.948C890.668 610.794 889.952 612.675 889.103 614.472C888.83 615.048 888.502 615.574 888.208 616.132C887.496 617.221 886.455 618.121 885.329 618.762C884.832 619.05 884.3 619.291 883.758 619.481C882.111 620.048 880.343 620.188 878.616 620.067C877.384 619.984 876.17 619.687 875.051 619.166C874.487 618.906 873.954 618.589 873.46 618.211C873.417 618.181 873.377 618.145 873.334 618.114C876.117 618.078 878.805 616.58 880.2 613.927C882.225 610.076 880.77 605.331 876.948 603.321C873.126 601.312 868.392 602.803 866.367 606.655C865.752 607.824 865.495 609.07 865.489 610.3L865.455 610.267C865.452 610.511 865.482 610.734 865.497 610.972C865.501 611.063 865.505 611.154 865.511 611.24C866.103 618.917 874.221 622.777 874.221 622.777C875.167 623.333 876.305 623.664 877.359 623.914C879.719 624.471 882.224 624.444 884.539 623.686C885.643 623.324 886.699 622.802 887.673 622.155C888.474 621.626 889.239 621.04 889.867 620.309C890.738 619.296 891.272 618.07 891.774 616.849C892.942 614.01 893.847 611.07 894.725 608.123C894.932 607.422 895.141 606.73 895.347 606.029C895.715 604.782 896.084 603.535 896.458 602.291C896.477 602.227 896.496 602.163 896.512 602.104C896.512 602.104 904.196 603.649 908.668 598.507C908.668 598.507 916.148 590.67 912.146 581.786L912.151 581.789ZM922.22 533.677C926.873 531.415 931.88 536.134 929.897 540.928C929.897 540.928 927.276 547.919 918.198 551.434C916.617 552.213 913.638 553.113 910.269 553.985L911.3 550.369C911.38 550.106 911.666 549.477 911.751 549.217C913.206 544.992 916.048 539.335 917.552 537.356C919.551 534.731 922.22 533.677 922.22 533.677ZM879.672 587.92C878.11 584.009 877.881 579.441 879.674 575.609C881.73 571.209 886.084 568.337 890.519 566.392C895.022 564.415 899.832 563.142 904.721 562.645C903.919 565.684 903.112 568.72 902.31 571.759C902.143 572.399 901.943 573.088 901.416 573.487C900.845 573.929 900.062 573.904 899.346 573.921C894.078 574.018 889.205 577.203 886.68 581.809C885.728 583.551 885.033 585.503 885.183 587.475C885.332 589.447 886.461 591.422 888.291 592.146C887.503 591.836 888.017 587.97 888.141 587.329C888.486 585.551 889.265 583.844 890.386 582.413C892.766 579.387 896.5 578.41 900.069 579.878C898.372 586.077 896.323 593.421 894.432 599.808C894.417 599.837 894.413 599.872 894.404 599.904C887.893 598.761 882.132 594.077 879.678 587.923L879.672 587.92ZM897.064 599.974L897.915 597.191C897.941 597.115 897.977 597.045 898.002 596.97L902.533 581.077C904.383 582.183 909.22 585.921 906.825 593.841C906.825 593.841 905.17 599.876 897.064 599.974Z" fill="white"/>
</g>
<g clip-path="url(#clip3_377_907)">
<path d="M804.264 805.188C758.403 657.406 662.626 631.21 502.333 875.035C491.966 890.816 498.356 911.405 515.835 918.545C786.004 1028.79 850.124 952.969 804.264 805.188Z" fill="#FF5C00"/>
</g>
<g clip-path="url(#clip4_377_907)">
<path d="M115.084 762.022C-11.6666 850.774 -7.39987 949.977 273.699 1028.26C291.889 1033.32 309.548 1020.95 311.016 1002.13C333.596 711.209 241.835 673.27 115.084 762.022Z" fill="#0029FF"/>
</g>
<g clip-path="url(#clip5_377_907)">
<path d="M620.327 169.99C470.189 207.424 438.621 301.567 672.995 475.387C688.165 486.629 709.082 481.413 717.198 464.366C842.535 200.86 770.465 132.557 620.327 169.99Z" fill="#0029FF"/>
</g>
<g clip-path="url(#clip6_377_907)">
<path d="M1038.5 43.4373C904.496 -33.9297 816.39 11.8626 864.24 299.708C867.343 318.332 886.012 329.111 903.693 322.486C1176.9 220.002 1172.5 120.804 1038.5 43.4373Z" fill="#FF5C00"/>
</g>
<g clip-path="url(#clip7_377_907)">
<path d="M1096.04 693.505C1078.19 695.237 1063.73 680.783 1065.47 662.93C1072.53 590.391 1083.87 534.733 1098.59 493.754C1113.32 452.75 1131.37 426.608 1151.71 412.872C1171.97 399.193 1194.72 397.684 1219.28 406.394C1243.89 415.127 1270.28 434.129 1297.56 461.409C1324.84 488.689 1343.84 515.078 1352.58 539.696C1361.29 564.249 1359.78 586.997 1346.1 607.259C1332.36 627.606 1306.22 645.651 1265.22 660.378C1224.24 675.097 1168.58 686.442 1096.04 693.505Z" stroke="#0E0E0E" stroke-width="3"/>
</g>
<g clip-path="url(#clip8_377_907)">
<path d="M273.838 441.503C264.446 456.785 244.197 459.588 231.007 447.433C177.428 398.026 139.893 355.391 116.099 318.925C92.2907 282.438 82.3346 252.273 83.6603 227.759C84.9805 203.347 97.5043 184.298 119.267 169.976C141.087 155.616 172.163 146.041 210.379 140.751C248.594 135.461 281.103 136.233 306.004 144.126C330.838 151.997 348.066 166.928 355.968 190.063C363.903 213.295 362.516 245.03 349.515 286.613C336.522 328.172 311.981 379.399 273.838 441.503Z" stroke="#0E0E0E" stroke-width="3"/>
</g>
<defs>
<clipPath id="clip0_377_907">
<rect width="54" height="66" fill="white" transform="translate(1072.7 860.781) rotate(10.7673)"/>
</clipPath>
<clipPath id="clip1_377_907">
<rect width="38" height="73" fill="white" transform="translate(321.645 562.49) rotate(-14.997)"/>
</clipPath>
<clipPath id="clip2_377_907">
<rect width="42" height="112" fill="white" transform="translate(906.651 513.306) rotate(27.7322)"/>
</clipPath>
<clipPath id="clip3_377_907">
<rect width="281" height="320" fill="white" transform="translate(762.622 671) rotate(72.7595)"/>
</clipPath>
<clipPath id="clip4_377_907">
<rect width="281" height="320" fill="white" transform="translate(-0.00708008 842.609) rotate(-35)"/>
</clipPath>
<clipPath id="clip5_377_907">
<rect width="281" height="320" fill="white" transform="translate(484 203.98) rotate(-14)"/>
</clipPath>
<clipPath id="clip6_377_907">
<rect width="281" height="320" fill="white" transform="translate(916.823 -26.8125) rotate(30)"/>
</clipPath>
<clipPath id="clip7_377_907">
<rect width="281" height="320" fill="white" transform="translate(1199.27 361) rotate(45)"/>
</clipPath>
<clipPath id="clip8_377_907">
<rect width="281" height="320" fill="white" transform="translate(71 158.531) rotate(-7.88141)"/>
</clipPath>
</defs>
</svg>
