<svg width="234" height="234" viewBox="0 0 234 234" fill="none" xmlns="http://www.w3.org/2000/svg">
<circle cx="116.96" cy="116.96" r="95" transform="rotate(-14.997 116.96 116.96)" fill="#FF5C00" stroke="black"/>
<g clip-path="url(#clip0_242_1545)">
<path d="M128.814 86.6709L92.5168 96.3947C92.4062 96.4243 92.2878 96.3566 92.2584 96.247L91.653 93.9871C91.6236 93.8774 91.6923 93.7596 91.8029 93.73L128.1 84.0062C128.209 83.9681 128.327 84.0358 128.356 84.1455L128.962 86.4054C128.993 86.5235 128.925 86.6413 128.814 86.6709Z" fill="black"/>
<path d="M98.9643 97.6946L114.305 154.961C114.373 155.214 114.642 155.367 114.898 155.299L116.965 154.745C117.22 154.677 117.376 154.409 117.308 154.156L103.214 101.545C106.67 102.228 111.259 100.709 115.05 97.2627C120.315 92.4812 122.014 85.8259 118.864 82.404C115.714 78.9821 108.881 80.0895 103.616 84.8711C99.223 88.8587 97.9471 93.9995 98.9643 97.6946Z" fill="black"/>
</g>
<defs>
<clipPath id="clip0_242_1545">
<rect width="38" height="73" fill="white" transform="translate(89.6447 86.4902) rotate(-14.997)"/>
</clipPath>
</defs>
</svg>
