<svg width="258" height="258" viewBox="0 0 258 258" fill="none" xmlns="http://www.w3.org/2000/svg">
<circle cx="128.97" cy="128.97" r="95" transform="rotate(27.7322 128.97 128.97)" fill="#0029FF" stroke="black"/>
<g clip-path="url(#clip0_242_1550)">
<path d="M142.151 138.789C141.04 136.333 138.243 134.083 136.015 132.771C134.845 132.081 134.572 132.25 134.436 131.064C134.316 129.961 135.32 128.009 135.632 126.926C136.424 124.171 137.219 121.426 138.011 118.671C145.206 118.147 152.176 114.757 157.068 109.406C161.96 104.054 164.722 96.7957 164.626 89.5496C164.592 87.2448 164.018 84.5519 161.933 83.5971C160.369 82.886 158.533 83.4355 156.964 84.1627C152.006 86.4721 147.944 90.4702 144.935 95.0589C141.931 99.6507 139.922 104.817 138.347 110.071C138.195 110.57 138.033 111.102 137.654 111.459C137.245 111.845 136.651 111.964 136.097 112.066C128.044 113.506 119.54 114.753 113.049 119.769C109.192 122.746 106.294 126.955 104.887 131.621C103.436 136.428 103.619 141.855 106.098 146.196C107.72 149.039 110.213 151.278 112.827 153.231C116.135 155.713 119.778 157.866 123.797 158.842C123.063 161.234 122.256 163.609 121.366 165.948C120.668 167.794 119.952 169.675 119.103 171.471C118.83 172.048 118.502 172.573 118.208 173.132C117.496 174.22 116.455 175.121 115.329 175.762C114.832 176.05 114.3 176.29 113.758 176.48C112.111 177.048 110.343 177.187 108.615 177.066C107.384 176.983 106.17 176.687 105.051 176.165C104.487 175.906 103.954 175.589 103.46 175.21C103.417 175.18 103.377 175.144 103.334 175.114C106.117 175.077 108.805 173.58 110.2 170.927C112.225 167.075 110.77 162.33 106.947 160.321C103.125 158.311 98.3914 159.803 96.3667 163.654C95.7519 164.823 95.4948 166.07 95.4893 167.299L95.455 167.266C95.4523 167.51 95.4821 167.734 95.497 167.972C95.5007 168.063 95.5044 168.154 95.5112 168.239C96.1028 175.916 104.221 179.776 104.221 179.776C105.167 180.333 106.304 180.663 107.359 180.914C109.719 181.471 112.224 181.444 114.539 180.686C115.643 180.323 116.699 179.801 117.672 179.155C118.474 178.626 119.239 178.04 119.866 177.308C120.738 176.296 121.272 175.069 121.774 173.848C122.942 171.009 123.847 168.069 124.725 165.122C124.932 164.422 125.141 163.729 125.347 163.029C125.715 161.782 126.084 160.535 126.457 159.291C126.477 159.226 126.496 159.162 126.512 159.104C126.512 159.104 134.196 160.649 138.668 155.507C138.668 155.507 146.148 147.67 142.145 138.786L142.151 138.789ZM152.22 90.6763C156.873 88.4145 161.879 93.1331 159.897 97.9274C159.897 97.9274 157.275 104.918 148.198 108.433C146.617 109.213 143.638 110.112 140.269 110.985L141.3 107.369C141.38 107.106 141.666 106.477 141.751 106.217C143.206 101.992 146.047 96.3345 147.552 94.3557C149.551 91.7309 152.22 90.6763 152.22 90.6763ZM109.672 144.919C108.11 141.009 107.881 136.44 109.674 132.608C111.729 128.208 116.084 125.337 120.519 123.391C125.021 121.414 129.832 120.141 134.721 119.645C133.919 122.684 133.112 125.72 132.31 128.758C132.143 129.398 131.943 130.088 131.416 130.487C130.845 130.929 130.062 130.903 129.346 130.92C124.078 131.017 119.205 134.203 116.68 138.809C115.727 140.55 115.033 142.502 115.183 144.474C115.332 146.447 116.461 148.421 118.291 149.145C117.503 148.835 118.017 144.97 118.14 144.329C118.486 142.55 119.265 140.844 120.386 139.413C122.765 136.387 126.5 135.409 130.068 136.877C128.371 143.076 126.323 150.421 124.432 156.807C124.417 156.836 124.413 156.872 124.403 156.904C117.893 155.761 112.132 151.076 109.678 144.922L109.672 144.919ZM127.064 156.973L127.915 154.191C127.941 154.115 127.977 154.045 128.002 153.969L132.533 138.076C134.383 139.183 139.22 142.921 136.825 150.84C136.825 150.84 135.17 156.876 127.064 156.973Z" fill="white"/>
</g>
<defs>
<clipPath id="clip0_242_1550">
<rect width="42" height="112" fill="white" transform="translate(136.651 70.3057) rotate(27.7322)"/>
</clipPath>
</defs>
</svg>
