<svg width="224" height="224" viewBox="0 0 224 224" fill="none" xmlns="http://www.w3.org/2000/svg">
<circle cx="111.66" cy="111.66" r="95" transform="rotate(10.7673 111.66 111.66)" fill="#FF5C00" stroke="black"/>
<g clip-path="url(#clip0_242_1541)">
<path d="M141.971 84.7559L141.965 84.7904L106.924 85.2754C106.652 85.281 106.415 85.4789 106.364 85.748L98.2468 128.433C96.0137 126.736 92.2065 126.241 88.3014 127.421C82.8788 129.056 79.3542 133.29 80.4182 136.866C81.4892 140.444 86.7421 142.022 92.166 140.38C96.6897 139.017 100.087 135.867 100.642 132.834L107.82 95.0893C107.864 94.8547 108.069 94.6791 108.311 94.6753L139.536 94.2652C139.857 94.2619 140.101 94.5514 140.041 94.8687L134.054 126.349C131.821 124.652 128.014 124.157 124.109 125.337C118.686 126.973 115.162 131.206 116.226 134.783C117.297 138.361 122.55 139.939 127.973 138.297C132.497 136.934 135.692 133.76 136.01 130.667L136.037 130.673L144.64 85.435C144.708 85.0762 144.436 84.7458 144.073 84.7481L141.964 84.7546L141.971 84.7559Z" fill="black"/>
</g>
<defs>
<clipPath id="clip0_242_1541">
<rect width="54" height="66" fill="white" transform="translate(91.6981 74.7812) rotate(10.7673)"/>
</clipPath>
</defs>
</svg>
