<svg width="1300" height="686" viewBox="0 0 1300 686" fill="none" xmlns="http://www.w3.org/2000/svg">
<rect x="234.5" y="543.5" width="52" height="52" stroke="white" stroke-width="3"/>
<line x1="235.815" y1="544.183" x2="285.312" y2="593.681" stroke="white" stroke-width="3"/>
<line y1="-1.5" x2="70" y2="-1.5" transform="matrix(-0.707107 0.707107 0.707107 0.707107 286.498 546)" stroke="white" stroke-width="3"/>
<rect x="234.5" y="335.5" width="52" height="52" stroke="white" stroke-width="3"/>
<line x1="235.815" y1="336.183" x2="285.312" y2="385.681" stroke="white" stroke-width="3"/>
<line y1="-1.5" x2="70" y2="-1.5" transform="matrix(-0.707107 0.707107 0.707107 0.707107 286.498 338)" stroke="white" stroke-width="3"/>
<rect x="234.5" y="439.5" width="52" height="52" stroke="white" stroke-width="3"/>
<line x1="235.815" y1="440.183" x2="285.312" y2="489.681" stroke="white" stroke-width="3"/>
<line y1="-1.5" x2="70" y2="-1.5" transform="matrix(-0.707107 0.707107 0.707107 0.707107 286.498 442)" stroke="white" stroke-width="3"/>
<rect x="234.5" y="231.5" width="52" height="52" stroke="white" stroke-width="3"/>
<line x1="235.815" y1="232.183" x2="285.312" y2="281.681" stroke="white" stroke-width="3"/>
<line y1="-1.5" x2="70" y2="-1.5" transform="matrix(-0.707107 0.707107 0.707107 0.707107 286.498 234)" stroke="white" stroke-width="3"/>
<rect x="234.5" y="491.5" width="52" height="52" stroke="white" stroke-width="3"/>
<line x1="235.815" y1="492.183" x2="285.312" y2="541.681" stroke="white" stroke-width="3"/>
<line y1="-1.5" x2="70" y2="-1.5" transform="matrix(-0.707107 0.707107 0.707107 0.707107 286.498 494)" stroke="white" stroke-width="3"/>
<rect x="234.5" y="283.5" width="52" height="52" stroke="white" stroke-width="3"/>
<line x1="235.815" y1="284.183" x2="285.312" y2="333.681" stroke="white" stroke-width="3"/>
<line y1="-1.5" x2="70" y2="-1.5" transform="matrix(-0.707107 0.707107 0.707107 0.707107 286.498 286)" stroke="white" stroke-width="3"/>
<rect x="234.5" y="387.5" width="52" height="52" stroke="white" stroke-width="3"/>
<line x1="235.815" y1="388.183" x2="285.312" y2="437.681" stroke="white" stroke-width="3"/>
<line y1="-1.5" x2="70" y2="-1.5" transform="matrix(-0.707107 0.707107 0.707107 0.707107 286.498 390)" stroke="white" stroke-width="3"/>
<rect x="234.5" y="179.5" width="52" height="52" stroke="white" stroke-width="3"/>
<line x1="235.815" y1="180.183" x2="285.312" y2="229.681" stroke="white" stroke-width="3"/>
<line y1="-1.5" x2="70" y2="-1.5" transform="matrix(-0.707107 0.707107 0.707107 0.707107 286.498 182)" stroke="white" stroke-width="3"/>
<rect x="1014.5" y="543.5" width="52" height="52" stroke="white" stroke-width="3"/>
<line x1="1015.81" y1="544.183" x2="1065.31" y2="593.681" stroke="white" stroke-width="3"/>
<line y1="-1.5" x2="70" y2="-1.5" transform="matrix(-0.707107 0.707107 0.707107 0.707107 1066.5 546)" stroke="white" stroke-width="3"/>
<rect x="1014.5" y="335.5" width="52" height="52" stroke="white" stroke-width="3"/>
<line x1="1015.81" y1="336.183" x2="1065.31" y2="385.681" stroke="white" stroke-width="3"/>
<line y1="-1.5" x2="70" y2="-1.5" transform="matrix(-0.707107 0.707107 0.707107 0.707107 1066.5 338)" stroke="white" stroke-width="3"/>
<rect x="1014.5" y="439.5" width="52" height="52" stroke="white" stroke-width="3"/>
<line x1="1015.81" y1="440.183" x2="1065.31" y2="489.681" stroke="white" stroke-width="3"/>
<line y1="-1.5" x2="70" y2="-1.5" transform="matrix(-0.707107 0.707107 0.707107 0.707107 1066.5 442)" stroke="white" stroke-width="3"/>
<rect x="1014.5" y="231.5" width="52" height="52" stroke="white" stroke-width="3"/>
<line x1="1015.81" y1="232.183" x2="1065.31" y2="281.681" stroke="white" stroke-width="3"/>
<line y1="-1.5" x2="70" y2="-1.5" transform="matrix(-0.707107 0.707107 0.707107 0.707107 1066.5 234)" stroke="white" stroke-width="3"/>
<rect x="1014.5" y="491.5" width="52" height="52" stroke="white" stroke-width="3"/>
<line x1="1015.81" y1="492.183" x2="1065.31" y2="541.681" stroke="white" stroke-width="3"/>
<line y1="-1.5" x2="70" y2="-1.5" transform="matrix(-0.707107 0.707107 0.707107 0.707107 1066.5 494)" stroke="white" stroke-width="3"/>
<rect x="1014.5" y="283.5" width="52" height="52" stroke="white" stroke-width="3"/>
<line x1="1015.81" y1="284.183" x2="1065.31" y2="333.681" stroke="white" stroke-width="3"/>
<line y1="-1.5" x2="70" y2="-1.5" transform="matrix(-0.707107 0.707107 0.707107 0.707107 1066.5 286)" stroke="white" stroke-width="3"/>
<rect x="1014.5" y="387.5" width="52" height="52" stroke="white" stroke-width="3"/>
<line x1="1015.81" y1="388.183" x2="1065.31" y2="437.681" stroke="white" stroke-width="3"/>
<line y1="-1.5" x2="70" y2="-1.5" transform="matrix(-0.707107 0.707107 0.707107 0.707107 1066.5 390)" stroke="white" stroke-width="3"/>
<rect x="1014.5" y="179.5" width="52" height="52" stroke="white" stroke-width="3"/>
<line x1="1015.81" y1="180.183" x2="1065.31" y2="229.681" stroke="white" stroke-width="3"/>
<line y1="-1.5" x2="70" y2="-1.5" transform="matrix(-0.707107 0.707107 0.707107 0.707107 1066.5 182)" stroke="white" stroke-width="3"/>
<rect x="261.5" y="153.5" width="780" height="442" stroke="white" stroke-width="3"/>
<rect x="136.5" y="595.5" width="1027" height="89" stroke="white" stroke-width="3"/>
<rect x="314.5" y="202.812" width="42" height="42.0635" stroke="white" stroke-width="3"/>
<line y1="-1.5" x2="56.0395" y2="-1.5" transform="matrix(0.706608 0.707605 -0.706608 0.707605 314.749 205.566)" stroke="white" stroke-width="3"/>
<line y1="-1.5" x2="56.0395" y2="-1.5" transform="matrix(-0.706608 0.707605 0.706608 0.707605 356.598 205.317)" stroke="white" stroke-width="3"/>
<rect x="482.5" y="202.812" width="42" height="42.0635" stroke="white" stroke-width="3"/>
<line y1="-1.5" x2="56.0395" y2="-1.5" transform="matrix(0.706608 0.707605 -0.706608 0.707605 482.749 205.566)" stroke="white" stroke-width="3"/>
<line y1="-1.5" x2="56.0395" y2="-1.5" transform="matrix(-0.706608 0.707605 0.706608 0.707605 524.598 205.317)" stroke="white" stroke-width="3"/>
<rect x="482.5" y="202.812" width="42" height="42.0635" stroke="white" stroke-width="3"/>
<line y1="-1.5" x2="56.0395" y2="-1.5" transform="matrix(0.706608 0.707605 -0.706608 0.707605 482.749 205.566)" stroke="white" stroke-width="3"/>
<line y1="-1.5" x2="56.0395" y2="-1.5" transform="matrix(-0.706608 0.707605 0.706608 0.707605 524.598 205.317)" stroke="white" stroke-width="3"/>
<rect x="650.5" y="202.812" width="42" height="42.0635" stroke="white" stroke-width="3"/>
<line y1="-1.5" x2="56.0395" y2="-1.5" transform="matrix(0.706608 0.707605 -0.706608 0.707605 650.749 205.566)" stroke="white" stroke-width="3"/>
<line y1="-1.5" x2="56.0395" y2="-1.5" transform="matrix(-0.706608 0.707605 0.706608 0.707605 692.598 205.317)" stroke="white" stroke-width="3"/>
<rect x="818.5" y="202.812" width="42" height="42.0635" stroke="white" stroke-width="3"/>
<line y1="-1.5" x2="56.0395" y2="-1.5" transform="matrix(0.706608 0.707605 -0.706608 0.707605 818.749 205.566)" stroke="white" stroke-width="3"/>
<line y1="-1.5" x2="56.0395" y2="-1.5" transform="matrix(-0.706608 0.707605 0.706608 0.707605 860.598 205.317)" stroke="white" stroke-width="3"/>
<rect x="398.5" y="202.812" width="42" height="42.0635" stroke="white" stroke-width="3"/>
<line y1="-1.5" x2="56.0395" y2="-1.5" transform="matrix(0.706608 0.707605 -0.706608 0.707605 398.749 205.566)" stroke="white" stroke-width="3"/>
<line y1="-1.5" x2="56.0395" y2="-1.5" transform="matrix(-0.706608 0.707605 0.706608 0.707605 440.598 205.317)" stroke="white" stroke-width="3"/>
<rect x="566.5" y="202.812" width="42" height="42.0635" stroke="white" stroke-width="3"/>
<line y1="-1.5" x2="56.0395" y2="-1.5" transform="matrix(0.706608 0.707605 -0.706608 0.707605 566.749 205.566)" stroke="white" stroke-width="3"/>
<line y1="-1.5" x2="56.0395" y2="-1.5" transform="matrix(-0.706608 0.707605 0.706608 0.707605 608.598 205.317)" stroke="white" stroke-width="3"/>
<rect x="566.5" y="202.812" width="42" height="42.0635" stroke="white" stroke-width="3"/>
<line y1="-1.5" x2="56.0395" y2="-1.5" transform="matrix(0.706608 0.707605 -0.706608 0.707605 566.749 205.566)" stroke="white" stroke-width="3"/>
<line y1="-1.5" x2="56.0395" y2="-1.5" transform="matrix(-0.706608 0.707605 0.706608 0.707605 608.598 205.317)" stroke="white" stroke-width="3"/>
<rect x="734.5" y="202.812" width="42" height="42.0635" stroke="white" stroke-width="3"/>
<line y1="-1.5" x2="56.0395" y2="-1.5" transform="matrix(0.706608 0.707605 -0.706608 0.707605 734.749 205.566)" stroke="white" stroke-width="3"/>
<line y1="-1.5" x2="56.0395" y2="-1.5" transform="matrix(-0.706608 0.707605 0.706608 0.707605 776.598 205.317)" stroke="white" stroke-width="3"/>
<rect x="902.5" y="202.812" width="42" height="42.0635" stroke="white" stroke-width="3"/>
<line y1="-1.5" x2="56.0395" y2="-1.5" transform="matrix(0.706608 0.707605 -0.706608 0.707605 902.749 205.566)" stroke="white" stroke-width="3"/>
<line y1="-1.5" x2="56.0395" y2="-1.5" transform="matrix(-0.706608 0.707605 0.706608 0.707605 944.598 205.317)" stroke="white" stroke-width="3"/>
<rect x="356.5" y="202.812" width="42" height="42.0635" stroke="white" stroke-width="3"/>
<line y1="-1.5" x2="56.0395" y2="-1.5" transform="matrix(0.706608 0.707605 -0.706608 0.707605 356.749 205.566)" stroke="white" stroke-width="3"/>
<line y1="-1.5" x2="56.0395" y2="-1.5" transform="matrix(-0.706608 0.707605 0.706608 0.707605 398.598 205.317)" stroke="white" stroke-width="3"/>
<rect x="524.5" y="202.812" width="42" height="42.0635" stroke="white" stroke-width="3"/>
<line y1="-1.5" x2="56.0395" y2="-1.5" transform="matrix(0.706608 0.707605 -0.706608 0.707605 524.749 205.566)" stroke="white" stroke-width="3"/>
<line y1="-1.5" x2="56.0395" y2="-1.5" transform="matrix(-0.706608 0.707605 0.706608 0.707605 566.598 205.317)" stroke="white" stroke-width="3"/>
<rect x="524.5" y="202.812" width="42" height="42.0635" stroke="white" stroke-width="3"/>
<line y1="-1.5" x2="56.0395" y2="-1.5" transform="matrix(0.706608 0.707605 -0.706608 0.707605 524.749 205.566)" stroke="white" stroke-width="3"/>
<line y1="-1.5" x2="56.0395" y2="-1.5" transform="matrix(-0.706608 0.707605 0.706608 0.707605 566.598 205.317)" stroke="white" stroke-width="3"/>
<rect x="692.5" y="202.812" width="42" height="42.0635" stroke="white" stroke-width="3"/>
<line y1="-1.5" x2="56.0395" y2="-1.5" transform="matrix(0.706608 0.707605 -0.706608 0.707605 692.749 205.566)" stroke="white" stroke-width="3"/>
<line y1="-1.5" x2="56.0395" y2="-1.5" transform="matrix(-0.706608 0.707605 0.706608 0.707605 734.598 205.317)" stroke="white" stroke-width="3"/>
<rect x="860.5" y="202.812" width="42" height="42.0635" stroke="white" stroke-width="3"/>
<line y1="-1.5" x2="56.0395" y2="-1.5" transform="matrix(0.706608 0.707605 -0.706608 0.707605 860.749 205.566)" stroke="white" stroke-width="3"/>
<line y1="-1.5" x2="56.0395" y2="-1.5" transform="matrix(-0.706608 0.707605 0.706608 0.707605 902.598 205.317)" stroke="white" stroke-width="3"/>
<rect x="440.5" y="202.812" width="42" height="42.0635" stroke="white" stroke-width="3"/>
<line y1="-1.5" x2="56.0395" y2="-1.5" transform="matrix(0.706608 0.707605 -0.706608 0.707605 440.749 205.566)" stroke="white" stroke-width="3"/>
<line y1="-1.5" x2="56.0395" y2="-1.5" transform="matrix(-0.706608 0.707605 0.706608 0.707605 482.598 205.317)" stroke="white" stroke-width="3"/>
<rect x="608.5" y="202.812" width="42" height="42.0635" stroke="white" stroke-width="3"/>
<line y1="-1.5" x2="56.0395" y2="-1.5" transform="matrix(0.706608 0.707605 -0.706608 0.707605 608.749 205.566)" stroke="white" stroke-width="3"/>
<line y1="-1.5" x2="56.0395" y2="-1.5" transform="matrix(-0.706608 0.707605 0.706608 0.707605 650.598 205.317)" stroke="white" stroke-width="3"/>
<rect x="608.5" y="202.812" width="42" height="42.0635" stroke="white" stroke-width="3"/>
<line y1="-1.5" x2="56.0395" y2="-1.5" transform="matrix(0.706608 0.707605 -0.706608 0.707605 608.749 205.566)" stroke="white" stroke-width="3"/>
<line y1="-1.5" x2="56.0395" y2="-1.5" transform="matrix(-0.706608 0.707605 0.706608 0.707605 650.598 205.317)" stroke="white" stroke-width="3"/>
<rect x="776.5" y="202.812" width="42" height="42.0635" stroke="white" stroke-width="3"/>
<line y1="-1.5" x2="56.0395" y2="-1.5" transform="matrix(0.706608 0.707605 -0.706608 0.707605 776.749 205.566)" stroke="white" stroke-width="3"/>
<line y1="-1.5" x2="56.0395" y2="-1.5" transform="matrix(-0.706608 0.707605 0.706608 0.707605 818.598 205.317)" stroke="white" stroke-width="3"/>
<rect x="944.5" y="202.812" width="42" height="42.0635" stroke="white" stroke-width="3"/>
<line y1="-1.5" x2="56.0395" y2="-1.5" transform="matrix(0.706608 0.707605 -0.706608 0.707605 944.749 205.566)" stroke="white" stroke-width="3"/>
<line y1="-1.5" x2="56.0395" y2="-1.5" transform="matrix(-0.706608 0.707605 0.706608 0.707605 986.598 205.317)" stroke="white" stroke-width="3"/>
<rect x="1.5" y="595.185" width="42" height="42" stroke="white" stroke-width="3"/>
<line x1="2.8092" y1="596.873" x2="42.4072" y2="636.471" stroke="white" stroke-width="3"/>
<line y1="-1.5" x2="56" y2="-1.5" transform="matrix(-0.707107 0.707107 0.707107 0.707107 43.5977 597.685)" stroke="white" stroke-width="3"/>
<rect x="1.5" y="511.16" width="42" height="42" stroke="white" stroke-width="3"/>
<line x1="2.8092" y1="512.848" x2="42.4072" y2="552.445" stroke="white" stroke-width="3"/>
<line y1="-1.5" x2="56" y2="-1.5" transform="matrix(-0.707107 0.707107 0.707107 0.707107 43.5977 513.66)" stroke="white" stroke-width="3"/>
<rect x="1.5" y="553.172" width="42" height="42" stroke="white" stroke-width="3"/>
<line x1="2.8092" y1="554.86" x2="42.4072" y2="594.458" stroke="white" stroke-width="3"/>
<line y1="-1.5" x2="56" y2="-1.5" transform="matrix(-0.707107 0.707107 0.707107 0.707107 43.5977 555.672)" stroke="white" stroke-width="3"/>
<rect x="1.5" y="469.147" width="42" height="42" stroke="white" stroke-width="3"/>
<line x1="2.8092" y1="470.835" x2="42.4072" y2="510.433" stroke="white" stroke-width="3"/>
<line y1="-1.5" x2="56" y2="-1.5" transform="matrix(-0.707107 0.707107 0.707107 0.707107 43.5977 471.647)" stroke="white" stroke-width="3"/>
<rect x="1.5" y="427.135" width="42" height="42" stroke="white" stroke-width="3"/>
<line x1="2.8092" y1="428.823" x2="42.4072" y2="468.421" stroke="white" stroke-width="3"/>
<line y1="-1.5" x2="56" y2="-1.5" transform="matrix(-0.707107 0.707107 0.707107 0.707107 43.5977 429.635)" stroke="white" stroke-width="3"/>
<rect x="-1.5" y="1.5" width="42" height="42" transform="matrix(-1 0 0 1 1297 594.685)" stroke="white" stroke-width="3"/>
<line y1="-1.5" x2="56" y2="-1.5" transform="matrix(-0.707107 0.707107 0.707107 0.707107 1298.25 598.933)" stroke="white" stroke-width="3"/>
<line x1="1257.46" y1="597.624" x2="1297.06" y2="637.222" stroke="white" stroke-width="3"/>
<rect x="-1.5" y="1.5" width="42" height="42" transform="matrix(-1 0 0 1 1297 510.66)" stroke="white" stroke-width="3"/>
<line y1="-1.5" x2="56" y2="-1.5" transform="matrix(-0.707107 0.707107 0.707107 0.707107 1298.25 514.908)" stroke="white" stroke-width="3"/>
<line x1="1257.46" y1="513.599" x2="1297.06" y2="553.197" stroke="white" stroke-width="3"/>
<rect x="-1.5" y="1.5" width="42" height="42" transform="matrix(-1 0 0 1 1297 552.672)" stroke="white" stroke-width="3"/>
<line y1="-1.5" x2="56" y2="-1.5" transform="matrix(-0.707107 0.707107 0.707107 0.707107 1298.25 556.921)" stroke="white" stroke-width="3"/>
<line x1="1257.46" y1="555.612" x2="1297.06" y2="595.21" stroke="white" stroke-width="3"/>
<rect x="-1.5" y="1.5" width="42" height="42" transform="matrix(-1 0 0 1 1297 468.647)" stroke="white" stroke-width="3"/>
<line y1="-1.5" x2="56" y2="-1.5" transform="matrix(-0.707107 0.707107 0.707107 0.707107 1298.25 472.896)" stroke="white" stroke-width="3"/>
<line x1="1257.46" y1="471.587" x2="1297.06" y2="511.185" stroke="white" stroke-width="3"/>
<rect x="-1.5" y="1.5" width="42" height="42" transform="matrix(-1 0 0 1 1297 426.635)" stroke="white" stroke-width="3"/>
<line y1="-1.5" x2="56" y2="-1.5" transform="matrix(-0.707107 0.707107 0.707107 0.707107 1298.25 430.883)" stroke="white" stroke-width="3"/>
<line x1="1257.46" y1="429.574" x2="1297.06" y2="469.172" stroke="white" stroke-width="3"/>
<rect x="136.5" y="510.525" width="42" height="42" stroke="white" stroke-width="3"/>
<line x1="137.809" y1="512.213" x2="177.407" y2="551.811" stroke="white" stroke-width="3"/>
<line y1="-1.5" x2="56" y2="-1.5" transform="matrix(-0.707107 0.707107 0.707107 0.707107 178.598 513.025)" stroke="white" stroke-width="3"/>
<rect x="136.5" y="552.537" width="42" height="42" stroke="white" stroke-width="3"/>
<line x1="137.809" y1="554.225" x2="177.407" y2="593.823" stroke="white" stroke-width="3"/>
<line y1="-1.5" x2="56" y2="-1.5" transform="matrix(-0.707107 0.707107 0.707107 0.707107 178.598 555.037)" stroke="white" stroke-width="3"/>
<rect x="136.5" y="468.512" width="42" height="42" stroke="white" stroke-width="3"/>
<line x1="137.809" y1="470.2" x2="177.407" y2="509.798" stroke="white" stroke-width="3"/>
<line y1="-1.5" x2="56" y2="-1.5" transform="matrix(-0.707107 0.707107 0.707107 0.707107 178.598 471.012)" stroke="white" stroke-width="3"/>
<rect x="136.5" y="426.5" width="42" height="42" stroke="white" stroke-width="3"/>
<line x1="137.809" y1="428.188" x2="177.407" y2="467.786" stroke="white" stroke-width="3"/>
<line y1="-1.5" x2="56" y2="-1.5" transform="matrix(-0.707107 0.707107 0.707107 0.707107 178.598 429)" stroke="white" stroke-width="3"/>
<rect x="-1.5" y="1.5" width="42" height="42" transform="matrix(-1 0 0 1 1162 510.025)" stroke="white" stroke-width="3"/>
<line y1="-1.5" x2="56" y2="-1.5" transform="matrix(-0.707107 0.707107 0.707107 0.707107 1163.25 514.273)" stroke="white" stroke-width="3"/>
<line x1="1122.46" y1="512.964" x2="1162.06" y2="552.562" stroke="white" stroke-width="3"/>
<rect x="-1.5" y="1.5" width="42" height="42" transform="matrix(-1 0 0 1 1162 552.037)" stroke="white" stroke-width="3"/>
<line y1="-1.5" x2="56" y2="-1.5" transform="matrix(-0.707107 0.707107 0.707107 0.707107 1163.25 556.286)" stroke="white" stroke-width="3"/>
<line x1="1122.46" y1="554.977" x2="1162.06" y2="594.575" stroke="white" stroke-width="3"/>
<rect x="-1.5" y="1.5" width="42" height="42" transform="matrix(-1 0 0 1 1162 468.012)" stroke="white" stroke-width="3"/>
<line y1="-1.5" x2="56" y2="-1.5" transform="matrix(-0.707107 0.707107 0.707107 0.707107 1163.25 472.261)" stroke="white" stroke-width="3"/>
<line x1="1122.46" y1="470.952" x2="1162.06" y2="510.55" stroke="white" stroke-width="3"/>
<rect x="-1.5" y="1.5" width="42" height="42" transform="matrix(-1 0 0 1 1162 426)" stroke="white" stroke-width="3"/>
<line y1="-1.5" x2="56" y2="-1.5" transform="matrix(-0.707107 0.707107 0.707107 0.707107 1163.25 430.248)" stroke="white" stroke-width="3"/>
<line x1="1122.46" y1="428.939" x2="1162.06" y2="468.537" stroke="white" stroke-width="3"/>
<rect x="234.5" y="127.699" width="52" height="52.0776" stroke="white" stroke-width="3"/>
<line y1="-1.5" x2="70.0494" y2="-1.5" transform="matrix(0.706608 0.707605 -0.706608 0.707605 234.754 129.447)" stroke="white" stroke-width="3"/>
<line y1="-1.5" x2="70.0494" y2="-1.5" transform="matrix(-0.706608 0.707605 0.706608 0.707605 286.498 130.204)" stroke="white" stroke-width="3"/>
<rect x="286.5" y="127.699" width="52" height="52.0776" stroke="white" stroke-width="3"/>
<line y1="-1.5" x2="70.0494" y2="-1.5" transform="matrix(0.706608 0.707605 -0.706608 0.707605 286.754 129.447)" stroke="white" stroke-width="3"/>
<line y1="-1.5" x2="70.0494" y2="-1.5" transform="matrix(-0.706608 0.707605 0.706608 0.707605 338.498 130.204)" stroke="white" stroke-width="3"/>
<rect x="390.5" y="127.699" width="52" height="52.0776" stroke="white" stroke-width="3"/>
<line y1="-1.5" x2="70.0494" y2="-1.5" transform="matrix(0.706608 0.707605 -0.706608 0.707605 390.754 129.447)" stroke="white" stroke-width="3"/>
<line y1="-1.5" x2="70.0494" y2="-1.5" transform="matrix(-0.706608 0.707605 0.706608 0.707605 442.498 130.204)" stroke="white" stroke-width="3"/>
<rect x="598.5" y="127.699" width="52" height="52.0776" stroke="white" stroke-width="3"/>
<line y1="-1.5" x2="70.0494" y2="-1.5" transform="matrix(0.706608 0.707605 -0.706608 0.707605 598.754 129.447)" stroke="white" stroke-width="3"/>
<line y1="-1.5" x2="70.0494" y2="-1.5" transform="matrix(-0.706608 0.707605 0.706608 0.707605 650.498 130.204)" stroke="white" stroke-width="3"/>
<rect x="806.5" y="127.699" width="52" height="52.0776" stroke="white" stroke-width="3"/>
<line y1="-1.5" x2="70.0494" y2="-1.5" transform="matrix(0.706608 0.707605 -0.706608 0.707605 806.754 129.447)" stroke="white" stroke-width="3"/>
<line y1="-1.5" x2="70.0494" y2="-1.5" transform="matrix(-0.706608 0.707605 0.706608 0.707605 858.498 130.204)" stroke="white" stroke-width="3"/>
<rect x="1013.5" y="127.699" width="52" height="52.0776" stroke="white" stroke-width="3"/>
<line y1="-1.5" x2="70.0494" y2="-1.5" transform="matrix(0.706608 0.707605 -0.706608 0.707605 1013.75 129.447)" stroke="white" stroke-width="3"/>
<line y1="-1.5" x2="70.0494" y2="-1.5" transform="matrix(-0.706608 0.707605 0.706608 0.707605 1065.5 130.204)" stroke="white" stroke-width="3"/>
<rect x="494.5" y="127.699" width="52" height="52.0776" stroke="white" stroke-width="3"/>
<line y1="-1.5" x2="70.0494" y2="-1.5" transform="matrix(0.706608 0.707605 -0.706608 0.707605 494.754 129.447)" stroke="white" stroke-width="3"/>
<line y1="-1.5" x2="70.0494" y2="-1.5" transform="matrix(-0.706608 0.707605 0.706608 0.707605 546.498 130.204)" stroke="white" stroke-width="3"/>
<rect x="702.5" y="127.699" width="52" height="52.0776" stroke="white" stroke-width="3"/>
<line y1="-1.5" x2="70.0494" y2="-1.5" transform="matrix(0.706608 0.707605 -0.706608 0.707605 702.754 129.447)" stroke="white" stroke-width="3"/>
<line y1="-1.5" x2="70.0494" y2="-1.5" transform="matrix(-0.706608 0.707605 0.706608 0.707605 754.498 130.204)" stroke="white" stroke-width="3"/>
<rect x="910.5" y="127.699" width="52" height="52.0776" stroke="white" stroke-width="3"/>
<line y1="-1.5" x2="70.0494" y2="-1.5" transform="matrix(0.706608 0.707605 -0.706608 0.707605 910.754 129.447)" stroke="white" stroke-width="3"/>
<line y1="-1.5" x2="70.0494" y2="-1.5" transform="matrix(-0.706608 0.707605 0.706608 0.707605 962.498 130.204)" stroke="white" stroke-width="3"/>
<rect x="338.5" y="127.699" width="52" height="52.0776" stroke="white" stroke-width="3"/>
<line y1="-1.5" x2="70.0494" y2="-1.5" transform="matrix(0.706608 0.707605 -0.706608 0.707605 338.754 129.447)" stroke="white" stroke-width="3"/>
<line y1="-1.5" x2="70.0494" y2="-1.5" transform="matrix(-0.706608 0.707605 0.706608 0.707605 390.498 130.204)" stroke="white" stroke-width="3"/>
<rect x="442.5" y="127.699" width="52" height="52.0776" stroke="white" stroke-width="3"/>
<line y1="-1.5" x2="70.0494" y2="-1.5" transform="matrix(0.706608 0.707605 -0.706608 0.707605 442.754 129.447)" stroke="white" stroke-width="3"/>
<line y1="-1.5" x2="70.0494" y2="-1.5" transform="matrix(-0.706608 0.707605 0.706608 0.707605 494.498 130.204)" stroke="white" stroke-width="3"/>
<rect x="650.5" y="127.699" width="52" height="52.0776" stroke="white" stroke-width="3"/>
<line y1="-1.5" x2="70.0494" y2="-1.5" transform="matrix(0.706608 0.707605 -0.706608 0.707605 650.754 129.447)" stroke="white" stroke-width="3"/>
<line y1="-1.5" x2="70.0494" y2="-1.5" transform="matrix(-0.706608 0.707605 0.706608 0.707605 702.498 130.204)" stroke="white" stroke-width="3"/>
<rect x="858.5" y="127.699" width="52" height="52.0776" stroke="white" stroke-width="3"/>
<line y1="-1.5" x2="70.0494" y2="-1.5" transform="matrix(0.706608 0.707605 -0.706608 0.707605 858.754 129.447)" stroke="white" stroke-width="3"/>
<line y1="-1.5" x2="70.0494" y2="-1.5" transform="matrix(-0.706608 0.707605 0.706608 0.707605 910.498 130.204)" stroke="white" stroke-width="3"/>
<rect x="1065.5" y="127.699" width="52" height="52" stroke="white" stroke-width="3"/>
<line x1="1066.81" y1="128.382" x2="1116.31" y2="177.88" stroke="white" stroke-width="3"/>
<line y1="-1.5" x2="70" y2="-1.5" transform="matrix(-0.707107 0.707107 0.707107 0.707107 1117.5 130.199)" stroke="white" stroke-width="3"/>
<rect x="546.5" y="127.699" width="52" height="52.0776" stroke="white" stroke-width="3"/>
<line y1="-1.5" x2="70.0494" y2="-1.5" transform="matrix(0.706608 0.707605 -0.706608 0.707605 546.754 129.447)" stroke="white" stroke-width="3"/>
<line y1="-1.5" x2="70.0494" y2="-1.5" transform="matrix(-0.706608 0.707605 0.706608 0.707605 598.498 130.204)" stroke="white" stroke-width="3"/>
<rect x="754.5" y="127.699" width="52" height="52.0776" stroke="white" stroke-width="3"/>
<line y1="-1.5" x2="70.0494" y2="-1.5" transform="matrix(0.706608 0.707605 -0.706608 0.707605 754.754 129.447)" stroke="white" stroke-width="3"/>
<line y1="-1.5" x2="70.0494" y2="-1.5" transform="matrix(-0.706608 0.707605 0.706608 0.707605 806.498 130.204)" stroke="white" stroke-width="3"/>
<rect x="962.5" y="127.699" width="52" height="52.0776" stroke="white" stroke-width="3"/>
<line y1="-1.5" x2="70.0494" y2="-1.5" transform="matrix(0.706608 0.707605 -0.706608 0.707605 962.754 129.447)" stroke="white" stroke-width="3"/>
<line y1="-1.5" x2="70.0494" y2="-1.5" transform="matrix(-0.706608 0.707605 0.706608 0.707605 1014.5 130.204)" stroke="white" stroke-width="3"/>
<rect x="182.5" y="127.699" width="52" height="52.0776" stroke="white" stroke-width="3"/>
<line y1="-1.5" x2="70.0494" y2="-1.5" transform="matrix(0.706608 0.707605 -0.706608 0.707605 182.754 129.447)" stroke="white" stroke-width="3"/>
<line y1="-1.5" x2="70.0494" y2="-1.5" transform="matrix(-0.706608 0.707605 0.706608 0.707605 234.498 130.204)" stroke="white" stroke-width="3"/>
<rect x="314.5" y="304.5" width="77" height="77" stroke="white" stroke-width="3"/>
<circle cx="353" cy="343" r="33.5" stroke="white" stroke-width="3"/>
<circle cx="352.5" cy="342.5" r="19" stroke="white" stroke-width="3"/>
<rect x="314.5" y="397.5" width="77" height="198" stroke="white" stroke-width="3"/>
<circle cx="353" cy="441" r="23.5" stroke="white" stroke-width="3"/>
<circle cx="353" cy="497" r="23.5" stroke="white" stroke-width="3"/>
<circle cx="353" cy="552" r="23.5" stroke="white" stroke-width="3"/>
<circle cx="353" cy="441" r="15.5" stroke="white" stroke-width="3"/>
<circle cx="353" cy="497" r="15.5" stroke="white" stroke-width="3"/>
<circle cx="353" cy="552" r="15.5" stroke="white" stroke-width="3"/>
<rect x="909.5" y="302.5" width="77" height="77" stroke="white" stroke-width="3"/>
<circle cx="948" cy="341" r="33.5" stroke="white" stroke-width="3"/>
<circle cx="947.5" cy="340.5" r="19" stroke="white" stroke-width="3"/>
<rect x="909.5" y="395.5" width="77" height="198" stroke="white" stroke-width="3"/>
<circle cx="948" cy="439" r="23.5" stroke="white" stroke-width="3"/>
<circle cx="948" cy="495" r="23.5" stroke="white" stroke-width="3"/>
<circle cx="948" cy="550" r="23.5" stroke="white" stroke-width="3"/>
<circle cx="948" cy="439" r="15.5" stroke="white" stroke-width="3"/>
<circle cx="948" cy="495" r="15.5" stroke="white" stroke-width="3"/>
<circle cx="948" cy="550" r="15.5" stroke="white" stroke-width="3"/>
<rect x="162.5" y="110.5" width="977" height="17" fill="#FF5C00" stroke="white" stroke-width="3"/>
<path d="M238.234 110.25L651 1.55114L1063.77 110.25H238.234Z" fill="#FF5C00" stroke="white" stroke-width="3"/>
<rect x="444.5" y="518.5" width="77" height="77" fill="#0029FF" stroke="white" stroke-width="3"/>
<circle cx="483" cy="557" r="33.5" fill="#0029FF" stroke="white" stroke-width="3"/>
<circle cx="482.5" cy="556.5" r="19" fill="#0029FF" stroke="white" stroke-width="3"/>
<rect x="779.5" y="518.5" width="77" height="77" fill="#0029FF" stroke="white" stroke-width="3"/>
<circle cx="818" cy="557" r="33.5" fill="#0029FF" stroke="white" stroke-width="3"/>
<circle cx="817.5" cy="556.5" r="19" fill="#0029FF" stroke="white" stroke-width="3"/>
</svg>
