<svg width="1440" height="800" viewBox="0 0 1440 800" fill="none" xmlns="http://www.w3.org/2000/svg">
<rect x="304.5" y="657.5" width="52" height="52" stroke="white" stroke-width="3"/>
<line x1="305.814" y1="658.183" x2="355.312" y2="707.681" stroke="white" stroke-width="3"/>
<line y1="-1.5" x2="70" y2="-1.5" transform="matrix(-0.707107 0.707107 0.707107 0.707107 356.497 660)" stroke="white" stroke-width="3"/>
<rect x="304.5" y="449.5" width="52" height="52" stroke="white" stroke-width="3"/>
<line x1="305.814" y1="450.183" x2="355.312" y2="499.681" stroke="white" stroke-width="3"/>
<line y1="-1.5" x2="70" y2="-1.5" transform="matrix(-0.707107 0.707107 0.707107 0.707107 356.497 452)" stroke="white" stroke-width="3"/>
<rect x="304.5" y="553.5" width="52" height="52" stroke="white" stroke-width="3"/>
<line x1="305.814" y1="554.183" x2="355.312" y2="603.681" stroke="white" stroke-width="3"/>
<line y1="-1.5" x2="70" y2="-1.5" transform="matrix(-0.707107 0.707107 0.707107 0.707107 356.497 556)" stroke="white" stroke-width="3"/>
<rect x="304.5" y="345.5" width="52" height="52" stroke="white" stroke-width="3"/>
<line x1="305.814" y1="346.183" x2="355.312" y2="395.681" stroke="white" stroke-width="3"/>
<line y1="-1.5" x2="70" y2="-1.5" transform="matrix(-0.707107 0.707107 0.707107 0.707107 356.497 348)" stroke="white" stroke-width="3"/>
<rect x="304.5" y="605.5" width="52" height="52" stroke="white" stroke-width="3"/>
<line x1="305.814" y1="606.183" x2="355.312" y2="655.681" stroke="white" stroke-width="3"/>
<line y1="-1.5" x2="70" y2="-1.5" transform="matrix(-0.707107 0.707107 0.707107 0.707107 356.497 608)" stroke="white" stroke-width="3"/>
<rect x="304.5" y="397.5" width="52" height="52" stroke="white" stroke-width="3"/>
<line x1="305.814" y1="398.183" x2="355.312" y2="447.681" stroke="white" stroke-width="3"/>
<line y1="-1.5" x2="70" y2="-1.5" transform="matrix(-0.707107 0.707107 0.707107 0.707107 356.497 400)" stroke="white" stroke-width="3"/>
<rect x="304.5" y="501.5" width="52" height="52" stroke="white" stroke-width="3"/>
<line x1="305.814" y1="502.183" x2="355.312" y2="551.681" stroke="white" stroke-width="3"/>
<line y1="-1.5" x2="70" y2="-1.5" transform="matrix(-0.707107 0.707107 0.707107 0.707107 356.497 504)" stroke="white" stroke-width="3"/>
<rect x="304.5" y="293.5" width="52" height="52" stroke="white" stroke-width="3"/>
<line x1="305.814" y1="294.183" x2="355.312" y2="343.681" stroke="white" stroke-width="3"/>
<line y1="-1.5" x2="70" y2="-1.5" transform="matrix(-0.707107 0.707107 0.707107 0.707107 356.497 296)" stroke="white" stroke-width="3"/>
<rect x="1084.5" y="657.5" width="52" height="52" stroke="white" stroke-width="3"/>
<line x1="1085.81" y1="658.183" x2="1135.31" y2="707.681" stroke="white" stroke-width="3"/>
<line y1="-1.5" x2="70" y2="-1.5" transform="matrix(-0.707107 0.707107 0.707107 0.707107 1136.5 660)" stroke="white" stroke-width="3"/>
<rect x="1084.5" y="449.5" width="52" height="52" stroke="white" stroke-width="3"/>
<line x1="1085.81" y1="450.183" x2="1135.31" y2="499.681" stroke="white" stroke-width="3"/>
<line y1="-1.5" x2="70" y2="-1.5" transform="matrix(-0.707107 0.707107 0.707107 0.707107 1136.5 452)" stroke="white" stroke-width="3"/>
<rect x="1084.5" y="553.5" width="52" height="52" stroke="white" stroke-width="3"/>
<line x1="1085.81" y1="554.183" x2="1135.31" y2="603.681" stroke="white" stroke-width="3"/>
<line y1="-1.5" x2="70" y2="-1.5" transform="matrix(-0.707107 0.707107 0.707107 0.707107 1136.5 556)" stroke="white" stroke-width="3"/>
<rect x="1084.5" y="345.5" width="52" height="52" stroke="white" stroke-width="3"/>
<line x1="1085.81" y1="346.183" x2="1135.31" y2="395.681" stroke="white" stroke-width="3"/>
<line y1="-1.5" x2="70" y2="-1.5" transform="matrix(-0.707107 0.707107 0.707107 0.707107 1136.5 348)" stroke="white" stroke-width="3"/>
<rect x="1084.5" y="605.5" width="52" height="52" stroke="white" stroke-width="3"/>
<line x1="1085.81" y1="606.183" x2="1135.31" y2="655.681" stroke="white" stroke-width="3"/>
<line y1="-1.5" x2="70" y2="-1.5" transform="matrix(-0.707107 0.707107 0.707107 0.707107 1136.5 608)" stroke="white" stroke-width="3"/>
<rect x="1084.5" y="397.5" width="52" height="52" stroke="white" stroke-width="3"/>
<line x1="1085.81" y1="398.183" x2="1135.31" y2="447.681" stroke="white" stroke-width="3"/>
<line y1="-1.5" x2="70" y2="-1.5" transform="matrix(-0.707107 0.707107 0.707107 0.707107 1136.5 400)" stroke="white" stroke-width="3"/>
<rect x="1084.5" y="501.5" width="52" height="52" stroke="white" stroke-width="3"/>
<line x1="1085.81" y1="502.183" x2="1135.31" y2="551.681" stroke="white" stroke-width="3"/>
<line y1="-1.5" x2="70" y2="-1.5" transform="matrix(-0.707107 0.707107 0.707107 0.707107 1136.5 504)" stroke="white" stroke-width="3"/>
<rect x="1084.5" y="293.5" width="52" height="52" stroke="white" stroke-width="3"/>
<line x1="1085.81" y1="294.183" x2="1135.31" y2="343.681" stroke="white" stroke-width="3"/>
<line y1="-1.5" x2="70" y2="-1.5" transform="matrix(-0.707107 0.707107 0.707107 0.707107 1136.5 296)" stroke="white" stroke-width="3"/>
<rect x="331.5" y="267.5" width="780" height="442" stroke="white" stroke-width="3"/>
<rect x="206.5" y="709.5" width="1027" height="89" stroke="white" stroke-width="3"/>
<rect x="384.5" y="316.812" width="42" height="42.0635" stroke="white" stroke-width="3"/>
<line y1="-1.5" x2="56.0395" y2="-1.5" transform="matrix(0.706608 0.707605 -0.706608 0.707605 384.749 319.566)" stroke="white" stroke-width="3"/>
<line y1="-1.5" x2="56.0395" y2="-1.5" transform="matrix(-0.706608 0.707605 0.706608 0.707605 426.598 319.317)" stroke="white" stroke-width="3"/>
<rect x="552.5" y="316.812" width="42" height="42.0635" stroke="white" stroke-width="3"/>
<line y1="-1.5" x2="56.0395" y2="-1.5" transform="matrix(0.706608 0.707605 -0.706608 0.707605 552.749 319.566)" stroke="white" stroke-width="3"/>
<line y1="-1.5" x2="56.0395" y2="-1.5" transform="matrix(-0.706608 0.707605 0.706608 0.707605 594.598 319.317)" stroke="white" stroke-width="3"/>
<rect x="552.5" y="316.812" width="42" height="42.0635" stroke="white" stroke-width="3"/>
<line y1="-1.5" x2="56.0395" y2="-1.5" transform="matrix(0.706608 0.707605 -0.706608 0.707605 552.749 319.566)" stroke="white" stroke-width="3"/>
<line y1="-1.5" x2="56.0395" y2="-1.5" transform="matrix(-0.706608 0.707605 0.706608 0.707605 594.598 319.317)" stroke="white" stroke-width="3"/>
<rect x="720.5" y="316.812" width="42" height="42.0635" stroke="white" stroke-width="3"/>
<line y1="-1.5" x2="56.0395" y2="-1.5" transform="matrix(0.706608 0.707605 -0.706608 0.707605 720.749 319.566)" stroke="white" stroke-width="3"/>
<line y1="-1.5" x2="56.0395" y2="-1.5" transform="matrix(-0.706608 0.707605 0.706608 0.707605 762.598 319.317)" stroke="white" stroke-width="3"/>
<rect x="888.5" y="316.812" width="42" height="42.0635" stroke="white" stroke-width="3"/>
<line y1="-1.5" x2="56.0395" y2="-1.5" transform="matrix(0.706608 0.707605 -0.706608 0.707605 888.749 319.566)" stroke="white" stroke-width="3"/>
<line y1="-1.5" x2="56.0395" y2="-1.5" transform="matrix(-0.706608 0.707605 0.706608 0.707605 930.598 319.317)" stroke="white" stroke-width="3"/>
<rect x="468.5" y="316.812" width="42" height="42.0635" stroke="white" stroke-width="3"/>
<line y1="-1.5" x2="56.0395" y2="-1.5" transform="matrix(0.706608 0.707605 -0.706608 0.707605 468.749 319.566)" stroke="white" stroke-width="3"/>
<line y1="-1.5" x2="56.0395" y2="-1.5" transform="matrix(-0.706608 0.707605 0.706608 0.707605 510.598 319.317)" stroke="white" stroke-width="3"/>
<rect x="636.5" y="316.812" width="42" height="42.0635" stroke="white" stroke-width="3"/>
<line y1="-1.5" x2="56.0395" y2="-1.5" transform="matrix(0.706608 0.707605 -0.706608 0.707605 636.749 319.566)" stroke="white" stroke-width="3"/>
<line y1="-1.5" x2="56.0395" y2="-1.5" transform="matrix(-0.706608 0.707605 0.706608 0.707605 678.598 319.317)" stroke="white" stroke-width="3"/>
<rect x="636.5" y="316.812" width="42" height="42.0635" stroke="white" stroke-width="3"/>
<line y1="-1.5" x2="56.0395" y2="-1.5" transform="matrix(0.706608 0.707605 -0.706608 0.707605 636.749 319.566)" stroke="white" stroke-width="3"/>
<line y1="-1.5" x2="56.0395" y2="-1.5" transform="matrix(-0.706608 0.707605 0.706608 0.707605 678.598 319.317)" stroke="white" stroke-width="3"/>
<rect x="804.5" y="316.812" width="42" height="42.0635" stroke="white" stroke-width="3"/>
<line y1="-1.5" x2="56.0395" y2="-1.5" transform="matrix(0.706608 0.707605 -0.706608 0.707605 804.749 319.566)" stroke="white" stroke-width="3"/>
<line y1="-1.5" x2="56.0395" y2="-1.5" transform="matrix(-0.706608 0.707605 0.706608 0.707605 846.598 319.317)" stroke="white" stroke-width="3"/>
<rect x="972.5" y="316.812" width="42" height="42.0635" stroke="white" stroke-width="3"/>
<line y1="-1.5" x2="56.0395" y2="-1.5" transform="matrix(0.706608 0.707605 -0.706608 0.707605 972.749 319.566)" stroke="white" stroke-width="3"/>
<line y1="-1.5" x2="56.0395" y2="-1.5" transform="matrix(-0.706608 0.707605 0.706608 0.707605 1014.6 319.317)" stroke="white" stroke-width="3"/>
<rect x="426.5" y="316.812" width="42" height="42.0635" stroke="white" stroke-width="3"/>
<line y1="-1.5" x2="56.0395" y2="-1.5" transform="matrix(0.706608 0.707605 -0.706608 0.707605 426.749 319.566)" stroke="white" stroke-width="3"/>
<line y1="-1.5" x2="56.0395" y2="-1.5" transform="matrix(-0.706608 0.707605 0.706608 0.707605 468.598 319.317)" stroke="white" stroke-width="3"/>
<rect x="594.5" y="316.812" width="42" height="42.0635" stroke="white" stroke-width="3"/>
<line y1="-1.5" x2="56.0395" y2="-1.5" transform="matrix(0.706608 0.707605 -0.706608 0.707605 594.749 319.566)" stroke="white" stroke-width="3"/>
<line y1="-1.5" x2="56.0395" y2="-1.5" transform="matrix(-0.706608 0.707605 0.706608 0.707605 636.598 319.317)" stroke="white" stroke-width="3"/>
<rect x="594.5" y="316.812" width="42" height="42.0635" stroke="white" stroke-width="3"/>
<line y1="-1.5" x2="56.0395" y2="-1.5" transform="matrix(0.706608 0.707605 -0.706608 0.707605 594.749 319.566)" stroke="white" stroke-width="3"/>
<line y1="-1.5" x2="56.0395" y2="-1.5" transform="matrix(-0.706608 0.707605 0.706608 0.707605 636.598 319.317)" stroke="white" stroke-width="3"/>
<rect x="762.5" y="316.812" width="42" height="42.0635" stroke="white" stroke-width="3"/>
<line y1="-1.5" x2="56.0395" y2="-1.5" transform="matrix(0.706608 0.707605 -0.706608 0.707605 762.749 319.566)" stroke="white" stroke-width="3"/>
<line y1="-1.5" x2="56.0395" y2="-1.5" transform="matrix(-0.706608 0.707605 0.706608 0.707605 804.598 319.317)" stroke="white" stroke-width="3"/>
<rect x="930.5" y="316.812" width="42" height="42.0635" stroke="white" stroke-width="3"/>
<line y1="-1.5" x2="56.0395" y2="-1.5" transform="matrix(0.706608 0.707605 -0.706608 0.707605 930.749 319.566)" stroke="white" stroke-width="3"/>
<line y1="-1.5" x2="56.0395" y2="-1.5" transform="matrix(-0.706608 0.707605 0.706608 0.707605 972.598 319.317)" stroke="white" stroke-width="3"/>
<rect x="510.5" y="316.812" width="42" height="42.0635" stroke="white" stroke-width="3"/>
<line y1="-1.5" x2="56.0395" y2="-1.5" transform="matrix(0.706608 0.707605 -0.706608 0.707605 510.749 319.566)" stroke="white" stroke-width="3"/>
<line y1="-1.5" x2="56.0395" y2="-1.5" transform="matrix(-0.706608 0.707605 0.706608 0.707605 552.598 319.317)" stroke="white" stroke-width="3"/>
<rect x="678.5" y="316.812" width="42" height="42.0635" stroke="white" stroke-width="3"/>
<line y1="-1.5" x2="56.0395" y2="-1.5" transform="matrix(0.706608 0.707605 -0.706608 0.707605 678.749 319.566)" stroke="white" stroke-width="3"/>
<line y1="-1.5" x2="56.0395" y2="-1.5" transform="matrix(-0.706608 0.707605 0.706608 0.707605 720.598 319.317)" stroke="white" stroke-width="3"/>
<rect x="678.5" y="316.812" width="42" height="42.0635" stroke="white" stroke-width="3"/>
<line y1="-1.5" x2="56.0395" y2="-1.5" transform="matrix(0.706608 0.707605 -0.706608 0.707605 678.749 319.566)" stroke="white" stroke-width="3"/>
<line y1="-1.5" x2="56.0395" y2="-1.5" transform="matrix(-0.706608 0.707605 0.706608 0.707605 720.598 319.317)" stroke="white" stroke-width="3"/>
<rect x="846.5" y="316.812" width="42" height="42.0635" stroke="white" stroke-width="3"/>
<line y1="-1.5" x2="56.0395" y2="-1.5" transform="matrix(0.706608 0.707605 -0.706608 0.707605 846.749 319.566)" stroke="white" stroke-width="3"/>
<line y1="-1.5" x2="56.0395" y2="-1.5" transform="matrix(-0.706608 0.707605 0.706608 0.707605 888.598 319.317)" stroke="white" stroke-width="3"/>
<rect x="1014.5" y="316.812" width="42" height="42.0635" stroke="white" stroke-width="3"/>
<line y1="-1.5" x2="56.0395" y2="-1.5" transform="matrix(0.706608 0.707605 -0.706608 0.707605 1014.75 319.566)" stroke="white" stroke-width="3"/>
<line y1="-1.5" x2="56.0395" y2="-1.5" transform="matrix(-0.706608 0.707605 0.706608 0.707605 1056.6 319.317)" stroke="white" stroke-width="3"/>
<rect x="71.5" y="709.185" width="42" height="42" stroke="white" stroke-width="3"/>
<line x1="72.8092" y1="710.873" x2="112.407" y2="750.471" stroke="white" stroke-width="3"/>
<line y1="-1.5" x2="56" y2="-1.5" transform="matrix(-0.707107 0.707107 0.707107 0.707107 113.598 711.685)" stroke="white" stroke-width="3"/>
<rect x="71.5" y="625.16" width="42" height="42" stroke="white" stroke-width="3"/>
<line x1="72.8092" y1="626.848" x2="112.407" y2="666.445" stroke="white" stroke-width="3"/>
<line y1="-1.5" x2="56" y2="-1.5" transform="matrix(-0.707107 0.707107 0.707107 0.707107 113.598 627.66)" stroke="white" stroke-width="3"/>
<rect x="71.5" y="667.172" width="42" height="42" stroke="white" stroke-width="3"/>
<line x1="72.8092" y1="668.86" x2="112.407" y2="708.458" stroke="white" stroke-width="3"/>
<line y1="-1.5" x2="56" y2="-1.5" transform="matrix(-0.707107 0.707107 0.707107 0.707107 113.598 669.672)" stroke="white" stroke-width="3"/>
<rect x="71.5" y="583.147" width="42" height="42" stroke="white" stroke-width="3"/>
<line x1="72.8092" y1="584.835" x2="112.407" y2="624.433" stroke="white" stroke-width="3"/>
<line y1="-1.5" x2="56" y2="-1.5" transform="matrix(-0.707107 0.707107 0.707107 0.707107 113.598 585.647)" stroke="white" stroke-width="3"/>
<rect x="71.5" y="541.135" width="42" height="42" stroke="white" stroke-width="3"/>
<line x1="72.8092" y1="542.823" x2="112.407" y2="582.42" stroke="white" stroke-width="3"/>
<line y1="-1.5" x2="56" y2="-1.5" transform="matrix(-0.707107 0.707107 0.707107 0.707107 113.598 543.635)" stroke="white" stroke-width="3"/>
<rect x="-1.5" y="1.5" width="42" height="42" transform="matrix(-1 0 0 1 1367 707.685)" stroke="white" stroke-width="3"/>
<line y1="-1.5" x2="56" y2="-1.5" transform="matrix(-0.707107 0.707107 0.707107 0.707107 1368.25 711.933)" stroke="white" stroke-width="3"/>
<line x1="1327.46" y1="710.624" x2="1367.06" y2="750.222" stroke="white" stroke-width="3"/>
<rect x="-1.5" y="1.5" width="42" height="42" transform="matrix(-1 0 0 1 1367 623.66)" stroke="white" stroke-width="3"/>
<line y1="-1.5" x2="56" y2="-1.5" transform="matrix(-0.707107 0.707107 0.707107 0.707107 1368.25 627.908)" stroke="white" stroke-width="3"/>
<line x1="1327.46" y1="626.599" x2="1367.06" y2="666.197" stroke="white" stroke-width="3"/>
<rect x="-1.5" y="1.5" width="42" height="42" transform="matrix(-1 0 0 1 1367 665.672)" stroke="white" stroke-width="3"/>
<line y1="-1.5" x2="56" y2="-1.5" transform="matrix(-0.707107 0.707107 0.707107 0.707107 1368.25 669.921)" stroke="white" stroke-width="3"/>
<line x1="1327.46" y1="668.612" x2="1367.06" y2="708.21" stroke="white" stroke-width="3"/>
<rect x="-1.5" y="1.5" width="42" height="42" transform="matrix(-1 0 0 1 1367 581.647)" stroke="white" stroke-width="3"/>
<line y1="-1.5" x2="56" y2="-1.5" transform="matrix(-0.707107 0.707107 0.707107 0.707107 1368.25 585.896)" stroke="white" stroke-width="3"/>
<line x1="1327.46" y1="584.587" x2="1367.06" y2="624.185" stroke="white" stroke-width="3"/>
<rect x="-1.5" y="1.5" width="42" height="42" transform="matrix(-1 0 0 1 1367 539.635)" stroke="white" stroke-width="3"/>
<line y1="-1.5" x2="56" y2="-1.5" transform="matrix(-0.707107 0.707107 0.707107 0.707107 1368.25 543.883)" stroke="white" stroke-width="3"/>
<line x1="1327.46" y1="542.574" x2="1367.06" y2="582.172" stroke="white" stroke-width="3"/>
<rect x="206.5" y="624.525" width="42" height="42" stroke="white" stroke-width="3"/>
<line x1="207.809" y1="626.213" x2="247.407" y2="665.811" stroke="white" stroke-width="3"/>
<line y1="-1.5" x2="56" y2="-1.5" transform="matrix(-0.707107 0.707107 0.707107 0.707107 248.598 627.025)" stroke="white" stroke-width="3"/>
<rect x="206.5" y="666.537" width="42" height="42" stroke="white" stroke-width="3"/>
<line x1="207.809" y1="668.225" x2="247.407" y2="707.823" stroke="white" stroke-width="3"/>
<line y1="-1.5" x2="56" y2="-1.5" transform="matrix(-0.707107 0.707107 0.707107 0.707107 248.598 669.037)" stroke="white" stroke-width="3"/>
<rect x="206.5" y="582.512" width="42" height="42" stroke="white" stroke-width="3"/>
<line x1="207.809" y1="584.2" x2="247.407" y2="623.798" stroke="white" stroke-width="3"/>
<line y1="-1.5" x2="56" y2="-1.5" transform="matrix(-0.707107 0.707107 0.707107 0.707107 248.598 585.012)" stroke="white" stroke-width="3"/>
<rect x="206.5" y="540.5" width="42" height="42" stroke="white" stroke-width="3"/>
<line x1="207.809" y1="542.188" x2="247.407" y2="581.786" stroke="white" stroke-width="3"/>
<line y1="-1.5" x2="56" y2="-1.5" transform="matrix(-0.707107 0.707107 0.707107 0.707107 248.598 543)" stroke="white" stroke-width="3"/>
<rect x="-1.5" y="1.5" width="42" height="42" transform="matrix(-1 0 0 1 1232 624.025)" stroke="white" stroke-width="3"/>
<line y1="-1.5" x2="56" y2="-1.5" transform="matrix(-0.707107 0.707107 0.707107 0.707107 1233.25 628.273)" stroke="white" stroke-width="3"/>
<line x1="1192.46" y1="626.964" x2="1232.06" y2="666.562" stroke="white" stroke-width="3"/>
<rect x="-1.5" y="1.5" width="42" height="42" transform="matrix(-1 0 0 1 1232 666.037)" stroke="white" stroke-width="3"/>
<line y1="-1.5" x2="56" y2="-1.5" transform="matrix(-0.707107 0.707107 0.707107 0.707107 1233.25 670.286)" stroke="white" stroke-width="3"/>
<line x1="1192.46" y1="668.977" x2="1232.06" y2="708.575" stroke="white" stroke-width="3"/>
<rect x="-1.5" y="1.5" width="42" height="42" transform="matrix(-1 0 0 1 1232 582.012)" stroke="white" stroke-width="3"/>
<line y1="-1.5" x2="56" y2="-1.5" transform="matrix(-0.707107 0.707107 0.707107 0.707107 1233.25 586.261)" stroke="white" stroke-width="3"/>
<line x1="1192.46" y1="584.952" x2="1232.06" y2="624.55" stroke="white" stroke-width="3"/>
<rect x="-1.5" y="1.5" width="42" height="42" transform="matrix(-1 0 0 1 1232 540)" stroke="white" stroke-width="3"/>
<line y1="-1.5" x2="56" y2="-1.5" transform="matrix(-0.707107 0.707107 0.707107 0.707107 1233.25 544.248)" stroke="white" stroke-width="3"/>
<line x1="1192.46" y1="542.939" x2="1232.06" y2="582.537" stroke="white" stroke-width="3"/>
<rect x="304.5" y="241.699" width="52" height="52.0776" stroke="white" stroke-width="3"/>
<line y1="-1.5" x2="70.0494" y2="-1.5" transform="matrix(0.706608 0.707605 -0.706608 0.707605 304.754 243.447)" stroke="white" stroke-width="3"/>
<line y1="-1.5" x2="70.0494" y2="-1.5" transform="matrix(-0.706608 0.707605 0.706608 0.707605 356.497 244.204)" stroke="white" stroke-width="3"/>
<rect x="356.5" y="241.699" width="52" height="52.0776" stroke="white" stroke-width="3"/>
<line y1="-1.5" x2="70.0494" y2="-1.5" transform="matrix(0.706608 0.707605 -0.706608 0.707605 356.754 243.447)" stroke="white" stroke-width="3"/>
<line y1="-1.5" x2="70.0494" y2="-1.5" transform="matrix(-0.706608 0.707605 0.706608 0.707605 408.497 244.204)" stroke="white" stroke-width="3"/>
<rect x="460.5" y="241.699" width="52" height="52.0776" stroke="white" stroke-width="3"/>
<line y1="-1.5" x2="70.0494" y2="-1.5" transform="matrix(0.706608 0.707605 -0.706608 0.707605 460.754 243.447)" stroke="white" stroke-width="3"/>
<line y1="-1.5" x2="70.0494" y2="-1.5" transform="matrix(-0.706608 0.707605 0.706608 0.707605 512.497 244.204)" stroke="white" stroke-width="3"/>
<rect x="668.5" y="241.699" width="52" height="52.0776" stroke="white" stroke-width="3"/>
<line y1="-1.5" x2="70.0494" y2="-1.5" transform="matrix(0.706608 0.707605 -0.706608 0.707605 668.754 243.447)" stroke="white" stroke-width="3"/>
<line y1="-1.5" x2="70.0494" y2="-1.5" transform="matrix(-0.706608 0.707605 0.706608 0.707605 720.497 244.204)" stroke="white" stroke-width="3"/>
<rect x="876.5" y="241.699" width="52" height="52.0776" stroke="white" stroke-width="3"/>
<line y1="-1.5" x2="70.0494" y2="-1.5" transform="matrix(0.706608 0.707605 -0.706608 0.707605 876.754 243.447)" stroke="white" stroke-width="3"/>
<line y1="-1.5" x2="70.0494" y2="-1.5" transform="matrix(-0.706608 0.707605 0.706608 0.707605 928.497 244.204)" stroke="white" stroke-width="3"/>
<rect x="1083.5" y="241.699" width="52" height="52.0776" stroke="white" stroke-width="3"/>
<line y1="-1.5" x2="70.0494" y2="-1.5" transform="matrix(0.706608 0.707605 -0.706608 0.707605 1083.75 243.447)" stroke="white" stroke-width="3"/>
<line y1="-1.5" x2="70.0494" y2="-1.5" transform="matrix(-0.706608 0.707605 0.706608 0.707605 1135.5 244.204)" stroke="white" stroke-width="3"/>
<rect x="564.5" y="241.699" width="52" height="52.0776" stroke="white" stroke-width="3"/>
<line y1="-1.5" x2="70.0494" y2="-1.5" transform="matrix(0.706608 0.707605 -0.706608 0.707605 564.754 243.447)" stroke="white" stroke-width="3"/>
<line y1="-1.5" x2="70.0494" y2="-1.5" transform="matrix(-0.706608 0.707605 0.706608 0.707605 616.497 244.204)" stroke="white" stroke-width="3"/>
<rect x="772.5" y="241.699" width="52" height="52.0776" stroke="white" stroke-width="3"/>
<line y1="-1.5" x2="70.0494" y2="-1.5" transform="matrix(0.706608 0.707605 -0.706608 0.707605 772.754 243.447)" stroke="white" stroke-width="3"/>
<line y1="-1.5" x2="70.0494" y2="-1.5" transform="matrix(-0.706608 0.707605 0.706608 0.707605 824.497 244.204)" stroke="white" stroke-width="3"/>
<rect x="980.5" y="241.699" width="52" height="52.0776" stroke="white" stroke-width="3"/>
<line y1="-1.5" x2="70.0494" y2="-1.5" transform="matrix(0.706608 0.707605 -0.706608 0.707605 980.754 243.447)" stroke="white" stroke-width="3"/>
<line y1="-1.5" x2="70.0494" y2="-1.5" transform="matrix(-0.706608 0.707605 0.706608 0.707605 1032.5 244.204)" stroke="white" stroke-width="3"/>
<rect x="408.5" y="241.699" width="52" height="52.0776" stroke="white" stroke-width="3"/>
<line y1="-1.5" x2="70.0494" y2="-1.5" transform="matrix(0.706608 0.707605 -0.706608 0.707605 408.754 243.447)" stroke="white" stroke-width="3"/>
<line y1="-1.5" x2="70.0494" y2="-1.5" transform="matrix(-0.706608 0.707605 0.706608 0.707605 460.497 244.204)" stroke="white" stroke-width="3"/>
<rect x="512.5" y="241.699" width="52" height="52.0776" stroke="white" stroke-width="3"/>
<line y1="-1.5" x2="70.0494" y2="-1.5" transform="matrix(0.706608 0.707605 -0.706608 0.707605 512.754 243.447)" stroke="white" stroke-width="3"/>
<line y1="-1.5" x2="70.0494" y2="-1.5" transform="matrix(-0.706608 0.707605 0.706608 0.707605 564.497 244.204)" stroke="white" stroke-width="3"/>
<rect x="720.5" y="241.699" width="52" height="52.0776" stroke="white" stroke-width="3"/>
<line y1="-1.5" x2="70.0494" y2="-1.5" transform="matrix(0.706608 0.707605 -0.706608 0.707605 720.754 243.447)" stroke="white" stroke-width="3"/>
<line y1="-1.5" x2="70.0494" y2="-1.5" transform="matrix(-0.706608 0.707605 0.706608 0.707605 772.497 244.204)" stroke="white" stroke-width="3"/>
<rect x="928.5" y="241.699" width="52" height="52.0776" stroke="white" stroke-width="3"/>
<line y1="-1.5" x2="70.0494" y2="-1.5" transform="matrix(0.706608 0.707605 -0.706608 0.707605 928.754 243.447)" stroke="white" stroke-width="3"/>
<line y1="-1.5" x2="70.0494" y2="-1.5" transform="matrix(-0.706608 0.707605 0.706608 0.707605 980.497 244.204)" stroke="white" stroke-width="3"/>
<rect x="1135.5" y="241.699" width="52" height="52" stroke="white" stroke-width="3"/>
<line x1="1136.81" y1="242.382" x2="1186.31" y2="291.879" stroke="white" stroke-width="3"/>
<line y1="-1.5" x2="70" y2="-1.5" transform="matrix(-0.707107 0.707107 0.707107 0.707107 1187.5 244.199)" stroke="white" stroke-width="3"/>
<rect x="616.5" y="241.699" width="52" height="52.0776" stroke="white" stroke-width="3"/>
<line y1="-1.5" x2="70.0494" y2="-1.5" transform="matrix(0.706608 0.707605 -0.706608 0.707605 616.754 243.447)" stroke="white" stroke-width="3"/>
<line y1="-1.5" x2="70.0494" y2="-1.5" transform="matrix(-0.706608 0.707605 0.706608 0.707605 668.497 244.204)" stroke="white" stroke-width="3"/>
<rect x="824.5" y="241.699" width="52" height="52.0776" stroke="white" stroke-width="3"/>
<line y1="-1.5" x2="70.0494" y2="-1.5" transform="matrix(0.706608 0.707605 -0.706608 0.707605 824.754 243.447)" stroke="white" stroke-width="3"/>
<line y1="-1.5" x2="70.0494" y2="-1.5" transform="matrix(-0.706608 0.707605 0.706608 0.707605 876.497 244.204)" stroke="white" stroke-width="3"/>
<rect x="1032.5" y="241.699" width="52" height="52.0776" stroke="white" stroke-width="3"/>
<line y1="-1.5" x2="70.0494" y2="-1.5" transform="matrix(0.706608 0.707605 -0.706608 0.707605 1032.75 243.447)" stroke="white" stroke-width="3"/>
<line y1="-1.5" x2="70.0494" y2="-1.5" transform="matrix(-0.706608 0.707605 0.706608 0.707605 1084.5 244.204)" stroke="white" stroke-width="3"/>
<rect x="252.5" y="241.699" width="52" height="52.0776" stroke="white" stroke-width="3"/>
<line y1="-1.5" x2="70.0494" y2="-1.5" transform="matrix(0.706608 0.707605 -0.706608 0.707605 252.754 243.447)" stroke="white" stroke-width="3"/>
<line y1="-1.5" x2="70.0494" y2="-1.5" transform="matrix(-0.706608 0.707605 0.706608 0.707605 304.497 244.204)" stroke="white" stroke-width="3"/>
<rect x="384.5" y="418.5" width="77" height="77" stroke="white" stroke-width="3"/>
<circle cx="423" cy="457" r="33.5" stroke="white" stroke-width="3"/>
<circle cx="422.5" cy="456.5" r="19" stroke="white" stroke-width="3"/>
<rect x="384.5" y="511.5" width="77" height="198" stroke="white" stroke-width="3"/>
<circle cx="423" cy="555" r="23.5" stroke="white" stroke-width="3"/>
<circle cx="423" cy="611" r="23.5" stroke="white" stroke-width="3"/>
<circle cx="423" cy="666" r="23.5" stroke="white" stroke-width="3"/>
<circle cx="423" cy="555" r="15.5" stroke="white" stroke-width="3"/>
<circle cx="423" cy="611" r="15.5" stroke="white" stroke-width="3"/>
<circle cx="423" cy="666" r="15.5" stroke="white" stroke-width="3"/>
<rect x="979.5" y="418.5" width="77" height="77" stroke="white" stroke-width="3"/>
<circle cx="1018" cy="457" r="33.5" stroke="white" stroke-width="3"/>
<circle cx="1017.5" cy="456.5" r="19" stroke="white" stroke-width="3"/>
<rect x="979.5" y="511.5" width="77" height="198" stroke="white" stroke-width="3"/>
<circle cx="1018" cy="555" r="23.5" stroke="white" stroke-width="3"/>
<circle cx="1018" cy="611" r="23.5" stroke="white" stroke-width="3"/>
<circle cx="1018" cy="666" r="23.5" stroke="white" stroke-width="3"/>
<circle cx="1018" cy="555" r="15.5" stroke="white" stroke-width="3"/>
<circle cx="1018" cy="611" r="15.5" stroke="white" stroke-width="3"/>
<circle cx="1018" cy="666" r="15.5" stroke="white" stroke-width="3"/>
<rect x="232.5" y="224.5" width="977" height="17" fill="#FF5C00" stroke="white" stroke-width="3"/>
<path d="M308.234 224.25L721 115.551L1133.77 224.25H308.234Z" fill="#FF5C00" stroke="white" stroke-width="3"/>
</svg>
