<svg width="1430" height="1148" viewBox="0 0 1430 1148" fill="none" xmlns="http://www.w3.org/2000/svg">
<mask id="path-1-inside-1_384_4" fill="white">
<path d="M1022.3 20V26.043C1022.3 35.2699 1012.93 42.7423 1001.36 42.7423C989.785 42.7423 980.415 35.2699 980.415 26.043V20H965.993V26.043C965.993 35.2699 956.622 42.7423 945.052 42.7423C933.481 42.7423 924.111 35.2699 924.111 26.043V20H909.689V26.043C909.689 35.2699 900.318 42.7423 888.748 42.7423C877.178 42.7423 867.807 35.2699 867.807 26.043V20H853.385V26.043C853.385 35.2699 844.015 42.7423 832.444 42.7423C820.874 42.7423 811.504 35.2699 811.504 26.043V20H797.081V26.043C797.081 35.2699 787.711 42.7423 776.141 42.7423C764.57 42.7423 755.2 35.2699 755.2 26.043V20H740.778V26.043C740.778 35.2699 731.407 42.7423 719.837 42.7423C708.267 42.7423 698.896 35.2699 698.896 26.043V20H684.474V26.043C684.474 35.2699 675.104 42.7423 663.533 42.7423C651.963 42.7423 642.593 35.2699 642.593 26.043V20H628.17V26.043C628.17 35.2699 618.8 42.7423 607.23 42.7423C595.659 42.7423 586.289 35.2699 586.289 26.043V20H571.867V26.043C571.867 35.2699 562.496 42.7423 550.926 42.7423C539.356 42.7423 529.985 35.2699 529.985 26.043V20H515.563V26.043C515.563 35.2699 506.193 42.7423 494.622 42.7423C483.052 42.7423 473.681 35.2699 473.681 26.043V20H459.259V26.043C459.259 35.2699 449.889 42.7423 438.319 42.7423C426.748 42.7423 417.622 35.2049 417.622 26.043V20H390V1118H417.622V1111.96C417.622 1102.73 426.993 1095.26 438.563 1095.26C450.133 1095.26 459.504 1102.73 459.504 1111.96V1118H473.926V1111.96C473.926 1102.73 483.296 1095.26 494.867 1095.26C506.437 1095.26 515.807 1102.73 515.807 1111.96V1118H530.23V1111.96C530.23 1102.73 539.6 1095.26 551.17 1095.26C562.741 1095.26 572.111 1102.73 572.111 1111.96V1118H586.533V1111.96C586.533 1102.73 595.904 1095.26 607.474 1095.26C619.044 1095.26 628.415 1102.73 628.415 1111.96V1118H642.837V1111.96C642.837 1102.73 652.207 1095.26 663.778 1095.26C675.348 1095.26 684.718 1102.73 684.718 1111.96V1118H699.141V1111.96C699.141 1102.73 708.511 1095.26 720.081 1095.26C731.652 1095.26 741.022 1102.73 741.022 1111.96V1118H755.444V1111.96C755.444 1102.73 764.815 1095.26 776.385 1095.26C787.956 1095.26 797.326 1102.73 797.326 1111.96V1118H811.748V1111.96C811.748 1102.73 821.118 1095.26 832.689 1095.26C844.259 1095.26 853.63 1102.73 853.63 1111.96V1118H868.052V1111.96C868.052 1102.73 877.422 1095.26 888.993 1095.26C900.563 1095.26 909.933 1102.73 909.933 1111.96V1118H924.356V1111.96C924.356 1102.73 933.726 1095.26 945.296 1095.26C956.867 1095.26 966.237 1102.73 966.237 1111.96V1118H980.659V1111.96C980.659 1102.73 990.03 1095.26 1001.6 1095.26C1013.17 1095.26 1022.54 1102.73 1022.54 1111.96V1118H1050.16V20H1022.54H1022.3Z"/>
</mask>
<path d="M1022.3 20V26.043C1022.3 35.2699 1012.93 42.7423 1001.36 42.7423C989.785 42.7423 980.415 35.2699 980.415 26.043V20H965.993V26.043C965.993 35.2699 956.622 42.7423 945.052 42.7423C933.481 42.7423 924.111 35.2699 924.111 26.043V20H909.689V26.043C909.689 35.2699 900.318 42.7423 888.748 42.7423C877.178 42.7423 867.807 35.2699 867.807 26.043V20H853.385V26.043C853.385 35.2699 844.015 42.7423 832.444 42.7423C820.874 42.7423 811.504 35.2699 811.504 26.043V20H797.081V26.043C797.081 35.2699 787.711 42.7423 776.141 42.7423C764.57 42.7423 755.2 35.2699 755.2 26.043V20H740.778V26.043C740.778 35.2699 731.407 42.7423 719.837 42.7423C708.267 42.7423 698.896 35.2699 698.896 26.043V20H684.474V26.043C684.474 35.2699 675.104 42.7423 663.533 42.7423C651.963 42.7423 642.593 35.2699 642.593 26.043V20H628.17V26.043C628.17 35.2699 618.8 42.7423 607.23 42.7423C595.659 42.7423 586.289 35.2699 586.289 26.043V20H571.867V26.043C571.867 35.2699 562.496 42.7423 550.926 42.7423C539.356 42.7423 529.985 35.2699 529.985 26.043V20H515.563V26.043C515.563 35.2699 506.193 42.7423 494.622 42.7423C483.052 42.7423 473.681 35.2699 473.681 26.043V20H459.259V26.043C459.259 35.2699 449.889 42.7423 438.319 42.7423C426.748 42.7423 417.622 35.2049 417.622 26.043V20H390V1118H417.622V1111.96C417.622 1102.73 426.993 1095.26 438.563 1095.26C450.133 1095.26 459.504 1102.73 459.504 1111.96V1118H473.926V1111.96C473.926 1102.73 483.296 1095.26 494.867 1095.26C506.437 1095.26 515.807 1102.73 515.807 1111.96V1118H530.23V1111.96C530.23 1102.73 539.6 1095.26 551.17 1095.26C562.741 1095.26 572.111 1102.73 572.111 1111.96V1118H586.533V1111.96C586.533 1102.73 595.904 1095.26 607.474 1095.26C619.044 1095.26 628.415 1102.73 628.415 1111.96V1118H642.837V1111.96C642.837 1102.73 652.207 1095.26 663.778 1095.26C675.348 1095.26 684.718 1102.73 684.718 1111.96V1118H699.141V1111.96C699.141 1102.73 708.511 1095.26 720.081 1095.26C731.652 1095.26 741.022 1102.73 741.022 1111.96V1118H755.444V1111.96C755.444 1102.73 764.815 1095.26 776.385 1095.26C787.956 1095.26 797.326 1102.73 797.326 1111.96V1118H811.748V1111.96C811.748 1102.73 821.118 1095.26 832.689 1095.26C844.259 1095.26 853.63 1102.73 853.63 1111.96V1118H868.052V1111.96C868.052 1102.73 877.422 1095.26 888.993 1095.26C900.563 1095.26 909.933 1102.73 909.933 1111.96V1118H924.356V1111.96C924.356 1102.73 933.726 1095.26 945.296 1095.26C956.867 1095.26 966.237 1102.73 966.237 1111.96V1118H980.659V1111.96C980.659 1102.73 990.03 1095.26 1001.6 1095.26C1013.17 1095.26 1022.54 1102.73 1022.54 1111.96V1118H1050.16V20H1022.54H1022.3Z" stroke="#0029FF" stroke-width="6" mask="url(#path-1-inside-1_384_4)"/>
<path d="M916.37 851.956H890.215V855.984H916.37V851.956Z" fill="#0E0E0E"/>
<path d="M811.585 851.956H785.43V855.984H811.585V851.956Z" fill="#0E0E0E"/>
<path d="M968.763 851.956H942.607V855.984H968.763V851.956Z" fill="#0E0E0E"/>
<path d="M1021.16 851.956H995V855.984H1021.16V851.956Z" fill="#0E0E0E"/>
<path d="M1050 851.956H1047.39V855.984H1050V851.956Z" fill="#0E0E0E"/>
<path d="M759.274 851.956H733.119V855.984H759.274V851.956Z" fill="#0E0E0E"/>
<path d="M863.978 851.956H837.822V855.984H863.978V851.956Z" fill="#0E0E0E"/>
<path d="M497.311 851.956H471.156V855.984H497.311V851.956Z" fill="#0E0E0E"/>
<path d="M444.918 851.956H418.763V855.984H444.918V851.956Z" fill="#0E0E0E"/>
<path d="M392.607 851.956H390V855.984H392.607V851.956Z" fill="#0E0E0E"/>
<path d="M706.881 851.956H680.726V855.984H706.881V851.956Z" fill="#0E0E0E"/>
<path d="M549.704 851.956H523.548V855.984H549.704V851.956Z" fill="#0E0E0E"/>
<path d="M654.489 851.956H628.333V855.984H654.489V851.956Z" fill="#0E0E0E"/>
<path d="M602.096 851.956H575.941V855.984H602.096V851.956Z" fill="#0E0E0E"/>
<path d="M485.007 913.295H482.156V1026.81H485.007V913.295Z" fill="#0029FF"/>
<path d="M496.904 913.295H492.667V1026.81H496.904V913.295Z" fill="#0029FF"/>
<path d="M507.496 913.295H504.644V1026.81H507.496V913.295Z" fill="#0029FF"/>
<path d="M522.081 913.295H519.23V1026.81H522.081V913.295Z" fill="#0029FF"/>
<path d="M540.415 913.295H531.941V1026.81H540.415V913.295Z" fill="#0029FF"/>
<path d="M551.007 913.295H546.77V1026.81H551.007V913.295Z" fill="#0029FF"/>
<path d="M566 913.295H561.763V1026.81H566V913.295Z" fill="#0029FF"/>
<path d="M589.711 913.295H581.237V1026.81H589.711V913.295Z" fill="#0029FF"/>
<path d="M610.407 913.295H601.933V1026.81H610.407V913.295Z" fill="#0029FF"/>
<path d="M621.244 913.295H618.393V1026.81H621.244V913.295Z" fill="#0029FF"/>
<path d="M632.978 913.295H630.126V1026.81H632.978V913.295Z" fill="#0029FF"/>
<path d="M652.941 913.295H648.704V1026.81H652.941V913.295Z" fill="#0029FF"/>
<path d="M668.911 913.295H664.674V1026.81H668.911V913.295Z" fill="#0029FF"/>
<path d="M687 913.295H678.526V1026.81H687V913.295Z" fill="#0029FF"/>
<path d="M696.615 913.295H692.378V1026.81H696.615V913.295Z" fill="#0029FF"/>
<path d="M712.585 913.295H708.348V1026.81H712.585V913.295Z" fill="#0029FF"/>
<path d="M726.926 913.295H724.074V1026.81H726.926V913.295Z" fill="#0029FF"/>
<path d="M744.363 913.295H741.511V1026.81H744.363V913.295Z" fill="#0029FF"/>
<path d="M760.496 913.295H756.259V1026.81H760.496V913.295Z" fill="#0029FF"/>
<path d="M769.948 913.295H765.711V1026.81H769.948V913.295Z" fill="#0029FF"/>
<path d="M781.926 913.295H779.074V1026.81H781.926V913.295Z" fill="#0029FF"/>
<path d="M792.274 913.295H789.422V1026.81H792.274V913.295Z" fill="#0029FF"/>
<path d="M812.889 913.295H804.415V1026.81H812.889V913.295Z" fill="#0029FF"/>
<path d="M827.23 913.295H822.993V1026.81H827.23V913.295Z" fill="#0029FF"/>
<path d="M860.881 913.295H858.03V1026.81H860.881V913.295Z" fill="#0029FF"/>
<path d="M878.726 913.295H870.252V1026.81H878.726V913.295Z" fill="#0029FF"/>
<path d="M889.726 913.295H885.489V1026.81H889.726V913.295Z" fill="#0029FF"/>
<path d="M912.785 913.295H908.548V1026.81H912.785V913.295Z" fill="#0029FF"/>
<path d="M928.511 913.295H925.659V1026.81H928.511V913.295Z" fill="#0029FF"/>
<path d="M947.252 913.295H938.778V1026.81H947.252V913.295Z" fill="#0029FF"/>
<path d="M957.844 913.295H953.607V1026.81H957.844V913.295Z" fill="#0029FF"/>
<g clip-path="url(#clip0_384_4)">
<path d="M229.976 618.404C176.654 604.589 121.872 606.013 107.207 655.22C93.1719 702.307 118.354 707.445 105.237 758.073C92.1206 808.701 8.03835 801.677 -17.9573 902.015C-43.9529 1002.35 31.4811 1079.76 118.096 1102.2C204.71 1124.64 308.228 1093.64 334.234 993.261C360.239 892.884 283.305 858.273 296.421 807.645C303.351 780.899 330.254 773.883 343.346 746.49C353.164 725.915 350.135 710.37 341.447 709.424C333.994 708.594 319.68 729.676 294.418 723.906C269.117 718.126 251.993 685.351 251.71 665.502L229.994 618.49L229.976 618.404Z" fill="#0029FF"/>
<path d="M165.078 663.282C162.782 672.146 153.734 677.468 144.867 675.17C135.999 672.873 130.674 663.828 132.97 654.963C135.267 646.098 144.314 640.777 153.182 643.074C162.05 645.372 167.375 654.417 165.078 663.282Z" fill="#FF5C00"/>
<path d="M147.51 664.969C150.74 665.805 154.036 663.866 154.873 660.638C155.709 657.409 153.769 654.113 150.539 653.276C147.309 652.44 144.013 654.379 143.176 657.607C142.34 660.836 144.28 664.132 147.51 664.969Z" fill="#0029FF"/>
<g filter="url(#filter0_d_384_4)">
<path d="M243.324 983.937C251.789 986.131 260.429 981.049 262.621 972.587C264.813 964.124 259.728 955.486 251.263 953.293C242.798 951.1 234.158 956.182 231.966 964.644C229.773 973.107 234.859 981.744 243.324 983.937Z" fill="#FF5C00"/>
</g>
<path d="M258.646 971.557C257.022 977.823 250.622 981.588 244.353 979.964C238.085 978.34 234.318 971.941 235.941 965.674C237.564 959.408 243.965 955.643 250.233 957.267C256.502 958.891 260.269 965.29 258.646 971.557Z" fill="#0029FF"/>
<path d="M252.568 969.982C251.816 972.886 248.832 974.641 245.927 973.889C243.022 973.136 241.266 970.153 242.019 967.249C242.771 964.345 245.755 962.59 248.66 963.343C251.564 964.095 253.321 967.078 252.568 969.982Z" fill="#FF5C00"/>
<g filter="url(#filter1_d_384_4)">
<path d="M322.212 956.221C320.014 964.704 311.362 969.761 302.914 967.572C294.467 965.384 289.369 956.723 291.556 948.279C293.744 939.835 302.406 934.74 310.854 936.928C319.301 939.117 324.399 947.777 322.212 956.221Z" fill="#FF5C00"/>
</g>
<path d="M318.198 955.181C316.575 961.448 310.174 965.212 303.906 963.588C297.637 961.964 293.87 955.565 295.493 949.299C297.117 943.033 303.517 939.268 309.786 940.892C316.055 942.516 319.822 948.915 318.198 955.181Z" fill="#0029FF"/>
<path d="M305.48 957.513C308.393 958.268 311.366 956.519 312.121 953.607C312.875 950.695 311.125 947.722 308.212 946.967C305.299 946.212 302.326 947.961 301.571 950.874C300.817 953.786 302.567 956.758 305.48 957.513Z" fill="#FF5C00"/>
<g filter="url(#filter2_d_384_4)">
<path d="M223.608 1051.69C232.073 1053.89 240.713 1048.8 242.905 1040.34C245.097 1031.88 240.012 1023.24 231.547 1021.05C223.082 1018.86 214.442 1023.94 212.25 1032.4C210.057 1040.86 215.143 1049.5 223.608 1051.69Z" fill="#FF5C00"/>
</g>
<path d="M238.93 1039.31C237.306 1045.58 230.906 1049.34 224.637 1047.72C218.369 1046.1 214.601 1039.7 216.225 1033.43C217.848 1027.16 224.249 1023.4 230.517 1025.02C236.786 1026.65 240.553 1033.05 238.93 1039.31Z" fill="#0029FF"/>
<path d="M232.89 1037.75C232.138 1040.65 229.154 1042.41 226.249 1041.65C223.344 1040.9 221.588 1037.92 222.341 1035.01C223.093 1032.11 226.077 1030.36 228.982 1031.11C231.887 1031.86 233.643 1034.84 232.89 1037.75Z" fill="#FF5C00"/>
<g filter="url(#filter3_d_384_4)">
<path d="M302.496 1023.98C300.298 1032.46 291.646 1037.52 283.199 1035.33C274.751 1033.14 269.653 1024.48 271.841 1016.03C274.028 1007.59 282.69 1002.5 291.138 1004.68C299.585 1006.87 304.684 1015.53 302.496 1023.98Z" fill="#FF5C00"/>
</g>
<path d="M298.482 1022.94C296.859 1029.2 290.458 1032.97 284.19 1031.34C277.921 1029.72 274.154 1023.32 275.778 1017.05C277.401 1010.79 283.801 1007.02 290.07 1008.65C296.339 1010.27 300.106 1016.67 298.482 1022.94Z" fill="#0029FF"/>
<path d="M292.443 1021.37C291.691 1024.28 288.707 1026.03 285.802 1025.28C282.897 1024.53 281.141 1021.54 281.893 1018.64C282.646 1015.74 285.629 1013.98 288.534 1014.73C291.439 1015.49 293.195 1018.47 292.443 1021.37Z" fill="#FF5C00"/>
<path d="M409.557 126.3L409.933 124.848L425.491 128.878L425.115 130.33L409.557 126.3Z" fill="white" stroke="#0029FF" stroke-width="3"/>
<path d="M423.851 121.196L427.214 122.067C428.566 122.417 429.377 123.796 429.027 125.146L426.384 135.348C426.035 136.698 424.656 137.51 423.304 137.16L419.94 136.288C418.589 135.938 417.777 134.559 418.127 133.209L420.77 123.007C421.12 121.657 422.499 120.845 423.851 121.196Z" fill="white" stroke="#0029FF" stroke-width="3"/>
<path d="M321.566 103.503L321.943 102.051L337.5 106.082L337.124 107.534L321.566 103.503Z" fill="white" stroke="#0029FF" stroke-width="3"/>
<path d="M323.743 95.26L327.107 96.1315C328.459 96.4817 329.27 97.8607 328.92 99.2107L326.277 109.413C325.927 110.763 324.549 111.574 323.197 111.224L319.833 110.353C318.481 110.002 317.67 108.623 318.02 107.273L320.663 97.0714C321.013 95.7214 322.392 94.9098 323.743 95.26Z" fill="white" stroke="#0029FF" stroke-width="3"/>
<path d="M401.756 156.409L402.132 154.957L417.69 158.988L417.314 160.44L401.756 156.409Z" fill="white" stroke="#0029FF" stroke-width="3"/>
<path d="M416.05 151.305L419.414 152.176C420.765 152.527 421.577 153.906 421.227 155.256L418.584 165.458C418.234 166.808 416.855 167.619 415.503 167.269L412.14 166.398C410.788 166.047 409.977 164.668 410.327 163.318L412.97 153.116C413.319 151.766 414.698 150.955 416.05 151.305Z" fill="white" stroke="#0029FF" stroke-width="3"/>
<path d="M313.766 133.613L314.142 132.161L329.7 136.191L329.324 137.643L313.766 133.613Z" fill="white" stroke="#0029FF" stroke-width="3"/>
<path d="M315.943 125.369L319.306 126.241C320.658 126.591 321.469 127.97 321.12 129.32L318.476 139.522C318.127 140.872 316.748 141.684 315.396 141.333L312.032 140.462C310.681 140.112 309.869 138.733 310.219 137.383L312.862 127.181C313.212 125.831 314.591 125.019 315.943 125.369Z" fill="white" stroke="#0029FF" stroke-width="3"/>
<path d="M417.358 96.1907L417.734 94.7389L433.292 98.7696L432.915 100.221L417.358 96.1907Z" fill="white" stroke="#0029FF" stroke-width="3"/>
<path d="M431.651 91.0867L435.015 91.9581C436.367 92.3083 437.178 93.6873 436.828 95.0373L434.185 105.239C433.835 106.589 432.457 107.401 431.105 107.051L427.741 106.179C426.389 105.829 425.578 104.45 425.928 103.1L428.571 92.8981C428.921 91.5481 430.299 90.7364 431.651 91.0867Z" fill="white" stroke="#0029FF" stroke-width="3"/>
<path d="M329.367 73.3943L329.743 71.9425L345.301 75.9732L344.925 77.425L329.367 73.3943Z" fill="white" stroke="#0029FF" stroke-width="3"/>
<path d="M331.544 65.1511L334.908 66.0226C336.259 66.3728 337.071 67.7518 336.721 69.1018L334.078 79.3038C333.728 80.6538 332.349 81.4654 330.997 81.1152L327.634 80.2438C326.282 79.8935 325.471 78.5146 325.821 77.1645L328.464 66.9625C328.813 65.6125 330.192 64.8009 331.544 65.1511Z" fill="white" stroke="#0029FF" stroke-width="3"/>
<path d="M374.052 212.962L326.082 200.534L187.067 705.145L250.595 721.604L374.052 212.962Z" fill="#FF5C00"/>
<path d="M430.926 77.1984L427.519 63.268C427.519 63.268 421.132 62.1025 414.78 57.8066C409.019 53.9084 400.826 43.1822 390.922 48.9752C385.088 39.064 372.717 44.4624 365.778 45.1111C358.129 45.8207 351.989 43.6999 351.989 43.6999L342.247 54.2237C336.306 132.888 312.761 167.562 312.761 167.562C328.336 178.61 326.558 198.537 326.558 198.537L374.529 210.965C374.529 210.965 382.641 192.72 401.631 190.586C401.631 190.586 397.884 148.841 430.888 77.1885L430.926 77.1984Z" fill="#0029FF"/>
<path d="M377.166 211.649C376.751 213.253 375.114 214.216 373.509 213.8L326.15 201.53C324.545 201.114 323.582 199.478 323.998 197.874C324.413 196.269 326.049 195.306 327.655 195.722L375.014 207.992C376.619 208.408 377.582 210.044 377.166 211.649Z" fill="#0029FF"/>
<path d="M415.406 94.9101C414.366 98.9222 410.276 101.328 406.262 100.288C402.249 99.2486 399.841 95.1591 400.881 91.147C401.92 87.135 406.01 84.729 410.024 85.7688C414.037 86.8086 416.445 90.8981 415.406 94.9101Z" fill="#FF5C00"/>
<path d="M361.816 81.0264C360.777 85.0384 356.686 87.4444 352.673 86.4046C348.659 85.3648 346.252 81.2753 347.291 77.2633C348.331 73.2512 352.421 70.8452 356.435 71.885C360.448 72.9248 362.856 77.0143 361.816 81.0264Z" fill="#FF5C00"/>
<path d="M407.605 125.02C406.565 129.032 402.475 131.438 398.462 130.398C394.448 129.358 392.041 125.268 393.08 121.256C394.119 117.244 398.21 114.838 402.223 115.878C406.237 116.918 408.644 121.008 407.605 125.02Z" fill="#FF5C00"/>
<path d="M354.016 111.136C352.976 115.148 348.886 117.554 344.872 116.514C340.859 115.474 338.451 111.385 339.491 107.373C340.53 103.361 344.62 100.955 348.634 101.994C352.647 103.034 355.055 107.124 354.016 111.136Z" fill="#FF5C00"/>
<path d="M399.804 155.128C398.765 159.14 394.674 161.546 390.661 160.507C386.647 159.467 384.24 155.377 385.279 151.365C386.319 147.353 390.409 144.947 394.423 145.987C398.436 147.027 400.844 151.116 399.804 155.128Z" fill="#FF5C00"/>
<path d="M346.215 141.245C345.175 145.257 341.085 147.663 337.072 146.623C333.058 145.583 330.65 141.494 331.69 137.482C332.729 133.469 336.82 131.063 340.833 132.103C344.847 133.143 347.254 137.233 346.215 141.245Z" fill="#FF5C00"/>
<g filter="url(#filter4_d_384_4)">
<path d="M265.578 725.486L172.084 701.264C169.931 700.706 167.733 701.998 167.175 704.151L155.167 750.499C154.61 752.652 155.903 754.849 158.057 755.407L251.551 779.629C253.704 780.187 255.902 778.894 256.46 776.742L268.468 730.394C269.025 728.241 267.732 726.044 265.578 725.486Z" fill="white"/>
</g>
<path d="M253.905 729.923L180.096 710.801C178.217 710.314 176.299 711.442 175.813 713.32L167.171 746.677C166.684 748.555 167.813 750.472 169.692 750.959L243.501 770.082C245.38 770.568 247.297 769.441 247.784 767.562L256.426 734.205C256.913 732.327 255.784 730.41 253.905 729.923Z" fill="#0E0E0E"/>
<path d="M239.147 827.506L145.653 803.284C143.499 802.726 141.302 804.018 140.744 806.171L128.736 852.519C128.179 854.672 129.472 856.869 131.625 857.427L225.12 881.649C227.273 882.207 229.471 880.914 230.028 878.762L242.036 832.413C242.594 830.261 241.3 828.064 239.147 827.506Z" fill="white"/>
<path d="M227.464 831.981L153.655 812.859C151.776 812.372 149.858 813.5 149.372 815.378L140.73 848.735C140.243 850.613 141.372 852.53 143.25 853.017L217.06 872.14C218.939 872.627 220.856 871.499 221.343 869.62L229.985 836.263C230.472 834.385 229.343 832.468 227.464 831.981Z" fill="#0E0E0E"/>
<path d="M216.72 914.702C215.74 918.484 211.9 920.711 208.154 919.74L127.961 898.964C124.177 897.984 121.949 894.144 122.919 890.4C123.899 886.617 127.739 884.391 131.485 885.361L211.678 906.138C215.462 907.118 217.69 910.957 216.72 914.702Z" fill="#FF5C00"/>
<path d="M338.952 139.363L329.812 198.891L139.58 890.802L130.488 932.034" stroke="white" stroke-width="3" stroke-miterlimit="10" stroke-dasharray="1 1"/>
<path d="M346.753 109.254L338.132 201.413L152.116 895.314L142.951 932.735" stroke="white" stroke-width="3" stroke-miterlimit="10" stroke-dasharray="1 1"/>
<path d="M354.554 79.145L346.599 203.525L164.347 898.483L154.685 935.776" stroke="white" stroke-width="3" stroke-miterlimit="10" stroke-dasharray="1 1"/>
<path d="M408.143 93.0287L354.997 205.905L176.579 901.652L167.873 939.192" stroke="white" stroke-width="3" stroke-miterlimit="10" stroke-dasharray="1 1"/>
<path d="M400.797 122.644L363.436 207.969L188.772 904.811L178.81 942.474" stroke="white" stroke-width="3" stroke-miterlimit="10" stroke-dasharray="1 1"/>
<path d="M392.542 153.247L371.853 210.272L201.004 907.979L190.21 946.65" stroke="white" stroke-width="3" stroke-miterlimit="10" stroke-dasharray="1 1"/>
<path d="M411.621 93.9298C411.126 95.8403 409.153 97.0009 407.242 96.5057C405.331 96.0106 404.17 94.038 404.665 92.1275C405.16 90.217 407.133 89.0564 409.044 89.5516C410.955 90.0467 412.116 92.0193 411.621 93.9298Z" fill="#0029FF"/>
<path d="M358.032 80.046C357.537 81.9565 355.564 83.1171 353.653 82.6219C351.742 82.1268 350.58 80.1542 351.075 78.2437C351.57 76.3332 353.543 75.1726 355.455 75.6678C357.366 76.1629 358.527 78.1355 358.032 80.046Z" fill="#0029FF"/>
<path d="M403.821 124.039C403.326 125.95 401.353 127.11 399.442 126.615C397.53 126.12 396.369 124.147 396.864 122.237C397.359 120.326 399.332 119.166 401.243 119.661C403.154 120.156 404.316 122.129 403.821 124.039Z" fill="#0029FF"/>
<path d="M350.231 110.155C349.736 112.066 347.763 113.226 345.852 112.731C343.941 112.236 342.78 110.264 343.275 108.353C343.77 106.443 345.743 105.282 347.654 105.777C349.565 106.272 350.726 108.245 350.231 110.155Z" fill="#0029FF"/>
<path d="M396.02 154.148C395.525 156.059 393.552 157.219 391.641 156.724C389.73 156.229 388.568 154.256 389.063 152.346C389.558 150.435 391.531 149.275 393.443 149.77C395.354 150.265 396.515 152.238 396.02 154.148Z" fill="#0029FF"/>
<path d="M342.431 140.264C341.936 142.175 339.963 143.335 338.052 142.84C336.14 142.345 334.979 140.372 335.474 138.462C335.969 136.551 337.942 135.391 339.853 135.886C341.764 136.381 342.926 138.354 342.431 140.264Z" fill="#0029FF"/>
<path d="M216.877 959.594C215.313 965.631 209.153 969.255 203.114 967.69L109.046 943.319C103.007 941.754 99.3812 935.596 100.945 929.559C102.509 923.522 108.669 919.898 114.708 921.463L208.776 945.834C214.816 947.399 218.441 953.557 216.877 959.594Z" fill="#FF5C00"/>
</g>
<rect x="1043.71" y="844.599" width="341.892" height="297.297" transform="rotate(-9.41771 1043.71 844.599)" fill="#0029FF"/>
<rect x="1068.99" y="860.748" width="297.297" height="257.276" transform="rotate(-9.41771 1068.99 860.748)" fill="#FF5C00"/>
<rect x="1031" y="767.944" width="341.892" height="70.6081" transform="rotate(-9.41771 1031 767.944)" fill="#0029FF"/>
<g filter="url(#filter5_d_384_4)">
<path d="M1072.74 809.328C1079.16 808.265 1083.49 802.207 1082.43 795.797C1081.37 789.388 1075.31 785.054 1068.89 786.117C1062.48 787.181 1058.15 793.239 1059.21 799.648C1060.27 806.058 1066.33 810.392 1072.74 809.328Z" fill="#FF5C00"/>
</g>
<path d="M1079.42 796.296C1080.21 801.043 1076.99 805.531 1072.25 806.318C1067.5 807.106 1063.01 803.895 1062.22 799.149C1061.43 794.402 1064.65 789.915 1069.39 789.127C1074.14 788.339 1078.63 791.55 1079.42 796.296Z" fill="#0029FF"/>
<path d="M1074.84 797.055C1075.21 799.255 1073.71 801.347 1071.51 801.712C1069.31 802.077 1067.22 800.58 1066.85 798.381C1066.49 796.181 1067.99 794.089 1070.19 793.724C1072.39 793.359 1074.48 794.856 1074.84 797.055Z" fill="#FF5C00"/>
<g filter="url(#filter6_d_384_4)">
<path d="M1107.54 803.206C1113.95 802.143 1118.29 796.085 1117.23 789.675C1116.16 783.266 1110.1 778.932 1103.69 779.995C1097.28 781.059 1092.95 787.117 1094.01 793.526C1095.07 799.936 1101.13 804.27 1107.54 803.206Z" fill="#FF5C00"/>
</g>
<path d="M1114.22 790.175C1115 794.921 1111.79 799.409 1107.04 800.197C1102.3 800.984 1097.81 797.774 1097.02 793.027C1096.23 788.281 1099.44 783.793 1104.19 783.005C1108.94 782.218 1113.43 785.428 1114.22 790.175Z" fill="#0029FF"/>
<path d="M1109.64 790.933C1110.01 793.133 1108.51 795.225 1106.31 795.59C1104.11 795.955 1102.02 794.458 1101.65 792.259C1101.29 790.059 1102.78 787.967 1104.98 787.602C1107.18 787.237 1109.28 788.734 1109.64 790.933Z" fill="#FF5C00"/>
<path d="M1184.73 783.169C1187.2 783.389 1189.38 781.567 1189.6 779.098C1189.82 776.629 1188 774.448 1185.53 774.227C1183.06 774.007 1180.88 775.829 1180.66 778.298C1180.44 780.767 1182.26 782.948 1184.73 783.169Z" fill="#0029FF"/>
<path d="M1190.69 777.664C1191.76 784.107 1187.41 790.188 1180.96 791.258C1174.51 792.327 1168.43 787.977 1167.36 781.534C1166.29 775.092 1170.64 769.01 1177.09 767.941C1183.54 766.872 1189.62 771.222 1190.69 777.664Z" fill="#FF5C00"/>
<path d="M1180.53 778.287C1180.38 779.191 1179.54 779.812 1178.64 779.679C1177.74 779.531 1177.11 778.688 1177.25 777.787L1178.7 768.353C1178.85 767.449 1179.7 766.828 1180.6 766.961C1181.5 767.109 1182.12 767.952 1181.99 768.853L1180.53 778.287Z" fill="white"/>
<path d="M1226.01 771.806C1227.08 778.249 1222.73 784.33 1216.28 785.399C1209.83 786.469 1203.75 782.119 1202.68 775.676C1201.61 769.233 1205.96 763.152 1212.41 762.083C1218.86 761.013 1224.94 765.363 1226.01 771.806Z" fill="#FF5C00"/>
<path d="M1214.97 771.68C1215.27 772.541 1214.82 773.496 1213.96 773.805C1213.1 774.114 1212.14 773.659 1211.83 772.797L1208.63 763.821C1208.32 762.96 1208.78 762.005 1209.64 761.696C1210.5 761.387 1211.46 761.842 1211.77 762.704L1214.97 771.68Z" fill="white"/>
<path d="M1261.35 765.945C1262.42 772.387 1258.06 778.469 1251.61 779.538C1245.17 780.607 1239.08 776.257 1238.02 769.815C1236.95 763.372 1241.3 757.291 1247.75 756.221C1254.19 755.152 1260.28 759.502 1261.35 765.945Z" fill="#FF5C00"/>
<path d="M1248.05 765.944C1248.95 766.16 1249.49 767.048 1249.29 767.944C1249.08 768.843 1248.19 769.388 1247.29 769.188L1238 767.013C1237.1 766.797 1236.55 765.909 1236.75 765.013C1236.97 764.115 1237.86 763.569 1238.76 763.769L1248.05 765.944Z" fill="white"/>
<path d="M1296.67 760.086C1297.74 766.529 1293.38 772.61 1286.94 773.68C1280.49 774.749 1274.4 770.399 1273.34 763.956C1272.27 757.513 1276.62 751.432 1283.07 750.363C1289.52 749.294 1295.6 753.644 1296.67 760.086Z" fill="#FF5C00"/>
<path d="M1286.38 760.531C1286.34 761.452 1285.54 762.148 1284.62 762.102C1283.7 762.055 1283 761.258 1283.05 760.338L1283.63 750.818C1283.67 749.898 1284.47 749.201 1285.39 749.248C1286.31 749.294 1287.01 750.091 1286.96 751.011L1286.38 760.531Z" fill="white"/>
<path d="M1327.07 745.188L1319.13 746.504C1317.67 746.747 1316.68 748.129 1316.92 749.592L1319.14 762.945C1319.38 764.408 1320.76 765.397 1322.23 765.154L1330.16 763.838C1331.62 763.595 1332.61 762.213 1332.37 760.75L1330.16 747.397C1329.91 745.934 1328.53 744.945 1327.07 745.188Z" fill="#FF5C00"/>
<path d="M1318.03 756.261L1319.14 762.946C1319.38 764.415 1320.76 765.398 1322.23 765.154L1330.16 763.838C1331.63 763.595 1332.62 762.22 1332.37 760.751L1331.26 754.066L1318.03 756.261Z" fill="white"/>
<path d="M1347.46 741.806L1339.53 743.122C1338.06 743.364 1337.07 744.747 1337.32 746.209L1339.53 759.563C1339.77 761.025 1341.16 762.014 1342.62 761.772L1350.55 760.456C1352.02 760.213 1353.01 758.831 1352.76 757.368L1350.55 744.014C1350.31 742.552 1348.92 741.563 1347.46 741.806Z" fill="#FF5C00"/>
<path d="M1338.42 752.878L1339.53 759.563C1339.77 761.033 1341.15 762.016 1342.62 761.772L1350.55 760.456C1352.02 760.212 1353.01 758.838 1352.76 757.368L1351.65 750.684L1338.42 752.878Z" fill="white"/>
<path d="M1119.97 961.717C1119.21 961.842 1118.48 962.028 1117.78 962.275C1117.1 962.485 1116.39 962.798 1115.65 963.213C1114.93 963.591 1114.38 964.103 1114 964.75C1113.62 965.397 1113.5 966.115 1113.63 966.904C1113.99 969.051 1116.04 970.089 1119.79 970.018C1122.33 969.857 1124.33 969.735 1125.81 969.652C1133.85 969.032 1138.38 971.816 1139.41 978.003C1139.73 979.897 1139.57 981.625 1138.96 983.187C1138.34 984.749 1137.37 986.045 1136.05 987.076C1134.76 988.069 1133.33 988.873 1131.78 989.487C1130.26 990.096 1128.61 990.547 1126.85 990.84C1122.77 991.516 1119.12 991.279 1115.88 990.129C1112.63 988.949 1110.21 986.642 1108.6 983.211L1115.37 982.088C1116.24 983.404 1117.4 984.331 1118.85 984.868C1120.65 985.738 1123.01 985.929 1125.95 985.442C1126.77 985.306 1127.58 985.107 1128.38 984.844C1129.18 984.582 1129.98 984.222 1130.78 983.765C1131.58 983.308 1132.18 982.722 1132.58 982.007C1133.01 981.255 1133.15 980.421 1132.99 979.506C1132.73 977.896 1132.02 976.861 1130.87 976.403C1129.75 975.907 1128.26 975.701 1126.39 975.784L1120.32 976.158C1117.02 976.413 1114.13 975.903 1111.65 974.628C1109.2 973.348 1107.73 971.192 1107.22 968.162C1106.93 966.425 1107.09 964.842 1107.7 963.412C1108.31 961.981 1109.23 960.806 1110.47 959.886C1111.71 958.935 1113.04 958.179 1114.47 957.617C1115.93 957.018 1117.47 956.585 1119.08 956.318C1125.99 955.172 1131.03 956.412 1134.19 960.039C1135.08 961.06 1135.71 962.073 1136.11 963.079L1129.62 964.155C1128.6 962.896 1127.21 962.106 1125.43 961.784C1123.69 961.425 1121.87 961.402 1119.97 961.717ZM1165.39 978.267L1166.29 983.665L1159.66 984.765C1154.14 985.681 1150.94 983.535 1150.08 978.326L1148.25 967.34L1141.67 968.432L1140.82 963.271L1147.4 962.179L1145.8 952.519L1151.86 951.514L1153.46 961.174L1162.32 959.705L1163.17 964.866L1154.32 966.335L1155.83 975.474C1156.09 977.053 1156.59 978.105 1157.33 978.632C1158.06 979.159 1159.22 979.291 1160.8 979.029L1165.39 978.267ZM1192.26 954.739L1183.13 991.236L1177.07 992.241L1179.87 980.975L1165.17 959.231L1171.99 958.1L1181.75 973.219L1186.1 955.76L1192.26 954.739ZM1204.73 964.347L1206.82 976.943L1200.81 977.94L1196.83 953.98L1202.85 952.982L1203.51 957.007C1203.9 955.45 1204.74 954.225 1206.02 953.332C1207.33 952.433 1208.85 951.84 1210.59 951.552L1216.18 950.625L1217.17 956.639L1210.78 957.699C1208.51 958.076 1206.84 958.759 1205.77 959.747C1204.73 960.699 1204.38 962.232 1204.73 964.347ZM1232.22 947.477C1236.08 946.838 1239.32 947.548 1241.97 949.607C1244.64 951.629 1246.29 954.535 1246.92 958.323L1247.03 958.986L1227.99 962.143C1228.4 964.022 1229.37 965.482 1230.91 966.525C1232.44 967.536 1234.15 967.885 1236.04 967.571C1237.02 967.408 1237.82 967.162 1238.45 966.831C1239.9 966.169 1240.89 965.226 1241.44 964L1247.4 963.011C1247.41 964.599 1246.87 966.082 1245.8 967.46C1244.77 968.832 1243.48 969.97 1241.94 970.874C1240.59 971.683 1238.9 972.255 1236.88 972.59C1233.09 973.218 1229.77 972.569 1226.92 970.641C1224.1 968.677 1222.38 965.848 1221.76 962.154C1221.15 958.429 1221.81 955.205 1223.76 952.481C1225.74 949.752 1228.56 948.084 1232.22 947.477ZM1233 952.165C1231.42 952.427 1230.15 953.06 1229.18 954.064C1228.21 955.068 1227.65 956.361 1227.49 957.945L1239.99 955.871C1239.3 954.429 1238.35 953.387 1237.14 952.744C1235.93 952.101 1234.55 951.908 1233 952.165ZM1258.8 955.183L1260.92 967.969L1254.91 968.966L1250.94 945.006L1256.95 944.008L1257.62 948.033C1258.15 946.518 1259.07 945.23 1260.38 944.169C1261.7 943.107 1263.18 942.44 1264.82 942.168C1267.88 941.66 1270.48 942.251 1272.61 943.941C1274.74 945.632 1276.05 947.992 1276.55 951.023L1278.87 964.992L1272.76 966.005L1270.64 953.22C1270.33 951.326 1269.56 949.897 1268.33 948.933C1267.12 947.933 1265.6 947.584 1263.77 947.888C1261.94 948.192 1260.57 949.019 1259.66 950.37C1258.78 951.716 1258.5 953.321 1258.8 955.183ZM1293.26 937.352C1297.12 936.713 1300.36 937.423 1303.01 939.482C1305.68 941.505 1307.33 944.41 1307.96 948.198L1308.07 948.861L1289.03 952.019C1289.44 953.897 1290.41 955.358 1291.95 956.4C1293.48 957.412 1295.19 957.76 1297.08 957.446C1298.06 957.284 1298.87 957.037 1299.49 956.706C1300.94 956.044 1301.93 955.101 1302.48 953.876L1308.44 952.886C1308.45 954.475 1307.91 955.958 1306.85 957.335C1305.81 958.708 1304.52 959.845 1302.98 960.749C1301.63 961.558 1299.94 962.13 1297.92 962.465C1294.13 963.094 1290.81 962.444 1287.96 960.516C1285.14 958.552 1283.42 955.723 1282.81 952.029C1282.19 948.304 1282.85 945.08 1284.8 942.356C1286.78 939.628 1289.6 937.96 1293.26 937.352ZM1294.04 942.04C1292.46 942.302 1291.19 942.935 1290.22 943.939C1289.25 944.943 1288.69 946.237 1288.53 947.82L1301.03 945.747C1300.34 944.305 1299.39 943.262 1298.18 942.619C1296.97 941.977 1295.59 941.784 1294.04 942.04ZM1354.91 952.379L1350.69 945.976L1333.74 948.788L1331.81 956.212L1325.41 957.272L1334.92 921.004L1340.93 920.006L1361.69 951.256L1354.91 952.379ZM1335.24 942.894L1347.36 940.883L1339.05 928.299L1335.24 942.894Z" fill="white"/>
<defs>
<filter id="filter0_d_384_4" x="231.456" y="952.783" width="32.6742" height="32.6646" filterUnits="userSpaceOnUse" color-interpolation-filters="sRGB">
<feFlood flood-opacity="0" result="BackgroundImageFix"/>
<feColorMatrix in="SourceAlpha" type="matrix" values="0 0 0 0 0 0 0 0 0 0 0 0 0 0 0 0 0 0 127 0" result="hardAlpha"/>
<feOffset dx="1" dy="1"/>
<feColorMatrix type="matrix" values="0 0 0 0 0 0 0 0 0 0 0 0 0 0 0 0 0 0 0.16 0"/>
<feBlend mode="normal" in2="BackgroundImageFix" result="effect1_dropShadow_384_4"/>
<feBlend mode="normal" in="SourceGraphic" in2="effect1_dropShadow_384_4" result="shape"/>
</filter>
<filter id="filter1_d_384_4" x="291.05" y="936.421" width="32.6691" height="32.6611" filterUnits="userSpaceOnUse" color-interpolation-filters="sRGB">
<feFlood flood-opacity="0" result="BackgroundImageFix"/>
<feColorMatrix in="SourceAlpha" type="matrix" values="0 0 0 0 0 0 0 0 0 0 0 0 0 0 0 0 0 0 127 0" result="hardAlpha"/>
<feOffset dx="1" dy="1"/>
<feColorMatrix type="matrix" values="0 0 0 0 0 0 0 0 0 0 0 0 0 0 0 0 0 0 0.16 0"/>
<feBlend mode="normal" in2="BackgroundImageFix" result="effect1_dropShadow_384_4"/>
<feBlend mode="normal" in="SourceGraphic" in2="effect1_dropShadow_384_4" result="shape"/>
</filter>
<filter id="filter2_d_384_4" x="211.74" y="1020.54" width="32.6743" height="32.6646" filterUnits="userSpaceOnUse" color-interpolation-filters="sRGB">
<feFlood flood-opacity="0" result="BackgroundImageFix"/>
<feColorMatrix in="SourceAlpha" type="matrix" values="0 0 0 0 0 0 0 0 0 0 0 0 0 0 0 0 0 0 127 0" result="hardAlpha"/>
<feOffset dx="1" dy="1"/>
<feColorMatrix type="matrix" values="0 0 0 0 0 0 0 0 0 0 0 0 0 0 0 0 0 0 0.16 0"/>
<feBlend mode="normal" in2="BackgroundImageFix" result="effect1_dropShadow_384_4"/>
<feBlend mode="normal" in="SourceGraphic" in2="effect1_dropShadow_384_4" result="shape"/>
</filter>
<filter id="filter3_d_384_4" x="271.334" y="1004.18" width="32.6691" height="32.6611" filterUnits="userSpaceOnUse" color-interpolation-filters="sRGB">
<feFlood flood-opacity="0" result="BackgroundImageFix"/>
<feColorMatrix in="SourceAlpha" type="matrix" values="0 0 0 0 0 0 0 0 0 0 0 0 0 0 0 0 0 0 127 0" result="hardAlpha"/>
<feOffset dx="1" dy="1"/>
<feColorMatrix type="matrix" values="0 0 0 0 0 0 0 0 0 0 0 0 0 0 0 0 0 0 0.16 0"/>
<feBlend mode="normal" in2="BackgroundImageFix" result="effect1_dropShadow_384_4"/>
<feBlend mode="normal" in="SourceGraphic" in2="effect1_dropShadow_384_4" result="shape"/>
</filter>
<filter id="filter4_d_384_4" x="155.038" y="701.134" width="114.559" height="79.625" filterUnits="userSpaceOnUse" color-interpolation-filters="sRGB">
<feFlood flood-opacity="0" result="BackgroundImageFix"/>
<feColorMatrix in="SourceAlpha" type="matrix" values="0 0 0 0 0 0 0 0 0 0 0 0 0 0 0 0 0 0 127 0" result="hardAlpha"/>
<feOffset dx="1" dy="1"/>
<feColorMatrix type="matrix" values="0 0 0 0 0 0 0 0 0 0 0 0 0 0 0 0 0 0 0.16 0"/>
<feBlend mode="normal" in2="BackgroundImageFix" result="effect1_dropShadow_384_4"/>
<feBlend mode="normal" in="SourceGraphic" in2="effect1_dropShadow_384_4" result="shape"/>
</filter>
<filter id="filter5_d_384_4" x="1059.05" y="785.957" width="24.2832" height="24.275" filterUnits="userSpaceOnUse" color-interpolation-filters="sRGB">
<feFlood flood-opacity="0" result="BackgroundImageFix"/>
<feColorMatrix in="SourceAlpha" type="matrix" values="0 0 0 0 0 0 0 0 0 0 0 0 0 0 0 0 0 0 127 0" result="hardAlpha"/>
<feOffset dx="0.743243" dy="0.743243"/>
<feColorMatrix type="matrix" values="0 0 0 0 0 0 0 0 0 0 0 0 0 0 0 0 0 0 0.16 0"/>
<feBlend mode="normal" in2="BackgroundImageFix" result="effect1_dropShadow_384_4"/>
<feBlend mode="normal" in="SourceGraphic" in2="effect1_dropShadow_384_4" result="shape"/>
</filter>
<filter id="filter6_d_384_4" x="1093.85" y="779.835" width="24.2832" height="24.275" filterUnits="userSpaceOnUse" color-interpolation-filters="sRGB">
<feFlood flood-opacity="0" result="BackgroundImageFix"/>
<feColorMatrix in="SourceAlpha" type="matrix" values="0 0 0 0 0 0 0 0 0 0 0 0 0 0 0 0 0 0 127 0" result="hardAlpha"/>
<feOffset dx="0.743243" dy="0.743243"/>
<feColorMatrix type="matrix" values="0 0 0 0 0 0 0 0 0 0 0 0 0 0 0 0 0 0 0.16 0"/>
<feBlend mode="normal" in2="BackgroundImageFix" result="effect1_dropShadow_384_4"/>
<feBlend mode="normal" in="SourceGraphic" in2="effect1_dropShadow_384_4" result="shape"/>
</filter>
<clipPath id="clip0_384_4">
<rect width="363.819" height="1091.46" fill="white" transform="translate(215.736) rotate(14.5248)"/>
</clipPath>
</defs>
</svg>
