<svg width="842" height="149" viewBox="0 0 842 149" fill="none" xmlns="http://www.w3.org/2000/svg">
<rect x="0.545525" y="80.6856" width="838" height="68" transform="rotate(-5.48773 0.545525 80.6856)" fill="white" stroke="black"/>
<rect y="80.2357" width="98" height="69" transform="rotate(-5.48773 0 80.2357)" fill="#D9D9D9"/>
<path d="M100.507 128.754L101.615 128.648L102.219 134.929L101.463 135.002L98.1898 132.267C97.6195 131.797 97.1511 131.461 96.7844 131.259C96.3398 131.039 95.8951 130.951 95.4504 130.993C94.9385 131.042 94.5502 131.232 94.2855 131.563C94.02 131.884 93.9118 132.301 93.961 132.813C94.0102 133.325 94.2129 133.716 94.5692 133.987C94.9163 134.25 95.3501 134.357 95.8703 134.307L96.4494 134.251L96.5643 135.447L95.9726 135.504C95.1083 135.587 94.3948 135.389 93.8321 134.909C93.261 134.43 92.9347 133.767 92.8533 132.92C92.7719 132.072 92.9571 131.356 93.409 130.77C93.8609 130.185 94.5023 129.852 95.3331 129.772C95.9792 129.71 96.5748 129.827 97.1198 130.121C97.6555 130.409 98.247 130.835 98.894 131.399L100.926 133.11L100.507 128.754ZM92.0549 124.61C91.959 123.611 92.1831 122.815 92.7273 122.22C93.2708 121.618 94.0334 121.269 95.0152 121.175L97.7342 120.913C98.7496 120.816 99.5734 121.016 100.206 121.514C100.837 122.004 101.2 122.74 101.294 123.722C101.39 124.721 101.167 125.521 100.623 126.124C100.079 126.718 99.3159 127.063 98.334 127.157L95.6151 127.418C94.6164 127.514 93.7968 127.313 93.1562 126.816C92.5155 126.319 92.1484 125.583 92.0549 124.61ZM100.187 123.828C100.126 123.199 99.8792 122.744 99.4458 122.464C99.0031 122.176 98.4671 122.063 97.8377 122.123L95.1439 122.382C94.4977 122.444 93.9932 122.658 93.6302 123.023C93.2588 123.389 93.103 123.882 93.1626 124.503C93.2231 125.133 93.4747 125.591 93.9173 125.879C94.3508 126.159 94.8822 126.269 95.5116 126.209L98.2054 125.95C98.8515 125.888 99.3603 125.674 99.7317 125.308C100.094 124.934 100.245 124.441 100.187 123.828ZM91.3587 116.173L100.334 115.31L100.451 116.531L92.8984 117.257L94.3952 119.349L93.2371 119.46L91.4458 117.079L91.3587 116.173ZM96.5868 106.723C97.5183 106.633 98.2904 106.868 98.9032 107.428C99.5075 107.988 99.854 108.73 99.9427 109.653C100.035 110.609 99.836 111.408 99.347 112.047C98.8496 112.688 98.1351 113.053 97.2036 113.143C96.7672 113.185 96.3362 113.15 95.9105 113.038C95.4764 112.927 95.13 112.804 94.8713 112.668C94.6034 112.524 94.231 112.306 93.7539 112.013L90.8216 110.186L90.6826 108.738L94.2435 111.026C94.0374 110.732 93.9114 110.346 93.8655 109.868C93.7808 108.987 93.995 108.263 94.5081 107.698C95.0212 107.132 95.7141 106.807 96.5868 106.723ZM96.7041 107.944C96.0915 108.003 95.6309 108.233 95.3223 108.636C95.0046 109.03 94.8747 109.53 94.9327 110.134C94.9892 110.721 95.2197 111.182 95.6245 111.516C96.0284 111.841 96.5157 111.976 97.0863 111.922C97.6653 111.866 98.1175 111.636 98.4429 111.232C98.7599 110.829 98.8906 110.338 98.835 109.759C98.7769 109.155 98.5543 108.689 98.1672 108.362C97.7793 108.027 97.2916 107.887 96.7041 107.944ZM97.5927 98.4157L98.7004 98.3093L99.3039 104.591L98.5486 104.663L95.2751 101.929C94.7048 101.458 94.2363 101.122 93.8697 100.92C93.4251 100.701 92.9804 100.612 92.5357 100.655C92.0238 100.704 91.6355 100.894 91.3708 101.224C91.1053 101.546 90.9971 101.963 91.0463 102.475C91.0955 102.987 91.2982 103.378 91.6545 103.649C92.0016 103.912 92.4353 104.018 92.9556 103.968L93.5347 103.913L93.6496 105.108L93.0579 105.165C92.1936 105.248 91.48 105.05 90.9173 104.571C90.3463 104.092 90.02 103.429 89.9386 102.581C89.8571 101.734 90.0424 101.017 90.4943 100.432C90.9462 99.8461 91.5876 99.5135 92.4184 99.4337C93.0645 99.3716 93.6601 99.488 94.2051 99.7829C94.7408 100.07 95.3322 100.496 95.9793 101.061L98.0111 102.771L97.5927 98.4157ZM89.1402 94.2711C89.0443 93.2725 89.2684 92.476 89.8126 91.8817C90.356 91.279 91.1187 90.9305 92.1005 90.8361L94.8195 90.5749C95.8349 90.4774 96.6587 90.6777 97.291 91.1759C97.9224 91.6658 98.2853 92.4016 98.3796 93.3835C98.4756 94.3821 98.2518 95.1828 97.7084 95.7855C97.1642 96.3798 96.4012 96.7241 95.4193 96.8185L92.7004 97.0797C91.7017 97.1756 90.8821 96.9749 90.2415 96.4774C89.6008 95.98 89.2337 95.2446 89.1402 94.2711ZM97.2719 93.4899C97.2115 92.8605 96.9645 92.4057 96.531 92.1255C96.0884 91.8377 95.5524 91.7241 94.923 91.7845L92.2292 92.0433C91.583 92.1054 91.0785 92.3191 90.7155 92.6842C90.3441 93.0502 90.1883 93.5437 90.2479 94.1647C90.3084 94.7941 90.56 95.2527 91.0026 95.5405C91.436 95.8206 91.9675 95.9305 92.5969 95.87L95.2906 95.6112C95.9368 95.5492 96.4456 95.3351 96.8169 94.9691C97.1791 94.5956 97.3308 94.1025 97.2719 93.4899ZM88.444 85.8342L97.4191 84.9719L97.5364 86.1929L89.9837 86.9185L91.4805 89.0106L90.3224 89.1219L88.5311 86.7405L88.444 85.8342ZM94.1408 76.2377C94.9716 76.1579 95.638 76.3945 96.14 76.9476C96.6336 77.5015 96.9215 78.2064 97.0038 79.0624L97.0364 79.4023C97.1187 80.2582 96.9652 80.9971 96.5761 81.6189C96.1777 82.2331 95.5716 82.5792 94.7576 82.6574C94.2624 82.705 93.7952 82.6017 93.3557 82.3475C92.9071 82.0857 92.5931 81.7263 92.4137 81.2692C92.3213 81.7185 92.103 82.091 91.7588 82.3866C91.4137 82.6738 91.0062 82.84 90.5363 82.8851C89.7391 82.9617 89.1045 82.7475 88.6325 82.2423C88.1513 81.7295 87.8716 81.0662 87.7934 80.2522L87.7619 79.9249C87.6821 79.0941 87.8304 78.3896 88.2068 77.8114C88.5824 77.2248 89.1646 76.8936 89.9534 76.8178C90.4317 76.7719 90.8676 76.857 91.261 77.0733C91.6461 77.2904 91.9271 77.6149 92.1041 78.0468C92.1924 77.5555 92.4323 77.1429 92.8236 76.8089C93.2066 76.4756 93.6457 76.2852 94.1408 76.2377ZM88.8445 79.8209L88.8759 80.1482C88.9219 80.6265 89.086 81.013 89.3684 81.3077C89.6416 81.5948 90.009 81.7162 90.4706 81.6719C90.9321 81.6275 91.2738 81.438 91.4958 81.1033C91.7085 80.7611 91.7919 80.3508 91.7459 79.8724L91.7145 79.5451C91.6685 79.0668 91.509 78.6841 91.2358 78.397C90.9534 78.1023 90.5814 77.9771 90.1198 78.0214C89.6583 78.0658 89.3212 78.2591 89.1084 78.6013C88.8865 78.936 88.7985 79.3425 88.8445 79.8209ZM92.7946 79.416L92.8309 79.7936C92.8801 80.3055 93.0555 80.7206 93.3571 81.0388C93.6578 81.3487 94.06 81.4795 94.5635 81.4311C95.0586 81.3835 95.4281 81.1744 95.672 80.8037C95.9075 80.4339 96.001 79.9972 95.9527 79.4937L95.9164 79.116C95.8672 78.6041 95.6922 78.1932 95.3914 77.8834C95.0898 77.5651 94.6873 77.4302 94.1838 77.4785C93.6803 77.5269 93.3104 77.7318 93.0741 78.0933C92.8378 78.4548 92.7446 78.8957 92.7946 79.416Z" fill="black"/>
<path d="M23.411 141.025L14.9025 136.117L22.3208 129.678L13.8123 124.769L21.2305 118.33L12.7221 113.421L20.1403 106.982L11.6319 102.073L19.0501 95.6344L10.5417 90.7256L17.9599 84.2867" stroke="#797979" stroke-width="1.91667"/>
<path d="M34.7484 139.936L26.2399 135.027L33.6582 128.588L25.1497 123.68L32.568 117.241L24.0595 112.332L31.4777 105.893L22.9693 100.984L30.3875 94.5452L21.8791 89.6364L29.2973 83.1975" stroke="#797979" stroke-width="1.91667"/>
<path d="M46.086 138.847L37.5776 133.938L44.9958 127.499L36.4874 122.59L43.9056 116.151L35.3972 111.243L42.8154 104.804L34.3069 99.8949L41.7252 93.456L33.2167 88.5472L40.635 82.1082" stroke="#797979" stroke-width="1.91667"/>
</svg>
