<svg width="842" height="139" viewBox="0 0 842 139" fill="none" xmlns="http://www.w3.org/2000/svg">
<rect x="744.172" y="76.9174" width="741" height="69" transform="rotate(175.226 744.172 76.9174)" fill="#FF5C00"/>
<rect x="841.832" y="68.7606" width="98" height="69" transform="rotate(175.226 841.832 68.7606)" fill="#D9D9D9"/>
<path d="M741.936 18.9945L740.827 19.0871L740.302 12.7988L741.058 12.7356L744.298 15.5106C744.862 15.988 745.326 16.3299 745.69 16.5364C746.132 16.7617 746.576 16.8558 747.021 16.8186C747.533 16.7758 747.924 16.5909 748.193 16.2639C748.462 15.9453 748.576 15.5298 748.533 15.0173C748.49 14.5048 748.292 14.111 747.939 13.836C747.596 13.5686 747.163 13.4566 746.642 13.5001L746.063 13.5486L745.963 12.3514L746.555 12.3019C747.42 12.2296 748.131 12.4367 748.688 12.9232C749.253 13.409 749.571 14.0761 749.642 14.9247C749.713 15.7732 749.519 16.4873 749.059 17.0671C748.6 17.6469 747.955 17.9715 747.123 18.041C746.476 18.095 745.882 17.9712 745.341 17.6696C744.809 17.3756 744.223 16.9424 743.583 16.3698L741.572 14.6342L741.936 18.9945ZM750.337 23.244C750.42 24.2437 750.186 25.0373 749.635 25.6248C749.084 26.2207 748.317 26.5597 747.334 26.6418L744.612 26.8692C743.595 26.9541 742.774 26.7435 742.148 26.2374C741.523 25.7398 741.169 24.9995 741.087 24.0165C741.003 23.0168 741.237 22.219 741.788 21.6231C742.34 21.0356 743.107 20.7008 744.09 20.6187L746.812 20.3913C747.812 20.3078 748.629 20.5187 749.263 21.0241C749.897 21.5295 750.255 22.2694 750.337 23.244ZM742.196 23.9239C742.249 24.554 742.49 25.0118 742.92 25.2974C743.359 25.5907 743.893 25.711 744.523 25.6584L747.22 25.4331C747.867 25.3791 748.374 25.1718 748.742 24.8111C749.118 24.4498 749.28 23.9583 749.228 23.3366C749.175 22.7065 748.929 22.2448 748.49 21.9516C748.06 21.666 747.53 21.5495 746.9 21.6021L744.203 21.8274C743.557 21.8814 743.045 22.0891 742.669 22.4504C742.302 22.8195 742.145 23.3106 742.196 23.9239ZM750.928 31.6889L741.943 32.4394L741.841 31.217L749.402 30.5855L747.931 28.4749L749.09 28.3781L750.852 30.7816L750.928 31.6889ZM745.582 41.073C744.65 41.1508 743.881 40.9063 743.275 40.3393C742.678 39.7716 742.341 39.0257 742.263 38.1016C742.183 37.1438 742.392 36.3481 742.889 35.7144C743.394 35.08 744.113 34.7239 745.046 34.646C745.483 34.6095 745.913 34.6497 746.337 34.7665C746.77 34.8827 747.115 35.0104 747.372 35.1496C747.638 35.2966 748.008 35.5195 748.481 35.8184L751.39 37.6819L751.511 39.1311L747.979 36.7994C748.182 37.0955 748.303 37.483 748.343 37.9618C748.416 38.844 748.193 39.5648 747.673 40.1243C747.153 40.6837 746.456 41 745.582 41.073ZM745.48 39.8506C746.094 39.7994 746.557 39.5745 746.871 39.1761C747.193 38.7854 747.329 38.2876 747.279 37.6827C747.23 37.0946 747.005 36.6312 746.604 36.2924C746.205 35.962 745.719 35.8207 745.148 35.8684C744.568 35.9168 744.113 36.1409 743.783 36.5407C743.461 36.9399 743.324 37.4293 743.372 38.009C743.423 38.6139 743.64 39.0822 744.023 39.414C744.406 39.7542 744.892 39.8997 745.48 39.8506ZM744.473 49.367L743.364 49.4596L742.839 43.1713L743.595 43.1081L746.834 45.8831C747.399 46.3605 747.863 46.7024 748.227 46.9089C748.669 47.1342 749.112 47.2283 749.558 47.1911C750.07 47.1483 750.461 46.9634 750.73 46.6364C750.999 46.3178 751.112 45.9023 751.07 45.3898C751.027 44.8773 750.829 44.4835 750.476 44.2084C750.132 43.9411 749.7 43.8291 749.179 43.8726L748.599 43.9211L748.499 42.7239L749.092 42.6744C749.957 42.6021 750.668 42.8092 751.225 43.2957C751.79 43.7815 752.108 44.4486 752.179 45.2972C752.249 46.1457 752.055 46.8598 751.596 47.4396C751.137 48.0194 750.492 48.344 749.66 48.4135C749.013 48.4675 748.419 48.3437 747.878 48.0421C747.345 47.7481 746.759 47.3149 746.119 46.7423L744.109 45.0067L744.473 49.367ZM752.873 53.6165C752.957 54.6162 752.723 55.4098 752.171 55.9973C751.62 56.5932 750.854 56.9322 749.871 57.0143L747.149 57.2417C746.132 57.3266 745.311 57.116 744.685 56.6099C744.059 56.1123 743.706 55.372 743.624 54.389C743.54 53.3893 743.774 52.5914 744.325 51.9955C744.876 51.408 745.644 51.0732 746.627 50.9912L749.349 50.7638C750.348 50.6803 751.165 50.8912 751.8 51.3966C752.434 51.902 752.792 52.6419 752.873 53.6165ZM744.733 54.2964C744.785 54.9265 745.027 55.3843 745.456 55.6699C745.895 55.9632 746.43 56.0835 747.06 56.0309L749.757 55.8056C750.404 55.7516 750.911 55.5443 751.279 55.1836C751.654 54.8223 751.816 54.3308 751.764 53.7091C751.712 53.079 751.466 52.6173 751.027 52.324C750.597 52.0385 750.067 51.922 749.437 51.9746L746.74 52.1999C746.093 52.2539 745.582 52.4616 745.206 52.8229C744.839 53.1919 744.681 53.6831 744.733 54.2964ZM753.465 62.0614L744.479 62.8119L744.377 61.5895L751.938 60.958L750.468 58.8474L751.627 58.7506L753.389 61.1541L753.465 62.0614ZM747.649 71.5863C746.817 71.6557 746.154 71.4108 745.659 70.8515C745.172 70.2915 744.893 69.583 744.821 68.7261L744.793 68.3859C744.721 67.5289 744.884 66.792 745.281 66.1752C745.687 65.566 746.297 65.2274 747.112 65.1593C747.608 65.1179 748.074 65.227 748.51 65.4867C748.955 65.7541 749.265 66.1174 749.438 66.5766C749.536 66.1285 749.759 65.7588 750.107 65.4675C750.456 65.1846 750.865 65.0235 751.336 64.9842C752.134 64.9175 752.766 65.1397 753.231 65.6507C753.706 66.1694 753.978 66.8362 754.046 67.6511L754.073 67.9788C754.142 68.8105 753.985 69.5131 753.602 70.0866C753.219 70.6684 752.633 70.9923 751.843 71.0583C751.364 71.0983 750.929 71.0077 750.539 70.7865C750.156 70.5647 749.879 70.2367 749.708 69.8027C749.613 70.2928 749.368 70.7024 748.973 71.0315C748.586 71.3599 748.144 71.5449 747.649 71.5863ZM752.989 68.0693L752.962 67.7416C752.922 67.2628 752.763 66.8742 752.484 66.576C752.214 66.2855 751.848 66.1596 751.386 66.1982C750.924 66.2368 750.58 66.422 750.354 66.7539C750.137 67.0935 750.049 67.5027 750.089 67.9816L750.116 68.3093C750.156 68.7881 750.311 69.1728 750.58 69.4633C750.859 69.7615 751.23 69.8913 751.692 69.8527C752.154 69.8141 752.493 69.625 752.71 69.2854C752.936 68.9535 753.029 68.5482 752.989 68.0693ZM749.034 68.425L749.003 68.0469C748.96 67.5344 748.79 67.1172 748.492 66.7952C748.195 66.4816 747.795 66.3459 747.291 66.388C746.795 66.4294 746.423 66.6339 746.174 67.0015C745.934 67.3684 745.835 67.8039 745.878 68.308L745.909 68.686C745.952 69.1985 746.122 69.6115 746.419 69.9251C746.716 70.2471 747.117 70.3871 747.621 70.345C748.125 70.3029 748.498 70.1026 748.738 69.7441C748.979 69.3856 749.078 68.9459 749.034 68.425Z" fill="black"/>
<path d="M819.18 7.68407L827.626 12.6984L820.128 19.0445L828.575 24.0589L821.077 30.405L829.524 35.4193L822.026 41.7654L830.473 46.7798L822.975 53.1258L831.422 58.1402L823.924 64.4863" stroke="#797979" stroke-width="1.91667"/>
<path d="M807.829 8.63207L816.276 13.6464L808.778 19.9925L817.225 25.0069L809.727 31.353L818.174 36.3673L810.676 42.7134L819.122 47.7278L811.625 54.0738L820.071 59.0882L812.573 65.4343" stroke="#797979" stroke-width="1.91667"/>
<path d="M796.479 9.58006L804.926 14.5944L797.428 20.9405L805.875 25.9549L798.377 32.301L806.823 37.3153L799.326 43.6614L807.772 48.6758L800.274 55.0218L808.721 60.0362L801.223 66.3823" stroke="#797979" stroke-width="1.91667"/>
</svg>
