<svg width="839" height="69" viewBox="0 0 839 69" fill="none" xmlns="http://www.w3.org/2000/svg">
<rect width="839" height="69" fill="#0029FF"/>
<rect width="98" height="69" fill="#D9D9D9"/>
<path d="M95.4067 57.908H96.5195V64.2182H95.7608L92.7637 61.1832C92.2411 60.6605 91.8069 60.2811 91.4612 60.0451C91.0397 59.7837 90.6055 59.6531 90.1587 59.6531C89.6445 59.6531 89.2398 59.8048 88.9447 60.1083C88.6497 60.4034 88.5021 60.8081 88.5021 61.3223C88.5021 61.8366 88.6665 62.2455 88.9953 62.549C89.3157 62.844 89.7372 62.9916 90.2599 62.9916H90.8416V64.1929H90.2472C89.3789 64.1929 88.6876 63.9273 88.1733 63.3962C87.6506 62.8651 87.3893 62.1738 87.3893 61.3223C87.3893 60.4708 87.6422 59.7753 88.148 59.2358C88.6539 58.6962 89.3241 58.4264 90.1587 58.4264C90.8079 58.4264 91.3896 58.5993 91.9038 58.9449C92.4097 59.2821 92.9576 59.7627 93.5478 60.3865L95.4067 62.2834V57.908ZM87.3893 52.974C87.3893 51.9708 87.6886 51.1994 88.2871 50.6599C88.8857 50.1119 89.6782 49.8379 90.6645 49.8379H93.396C94.4161 49.8379 95.217 50.1161 95.7987 50.6725C96.3804 51.2205 96.6713 51.9877 96.6713 52.974C96.6713 53.9773 96.372 54.7529 95.7734 55.3009C95.1749 55.8404 94.3824 56.1102 93.396 56.1102H90.6645C89.6613 56.1102 88.8646 55.832 88.2745 55.2756C87.6844 54.7192 87.3893 53.952 87.3893 52.974ZM95.5585 52.974C95.5585 52.3418 95.3561 51.8654 94.9515 51.5451C94.5384 51.2163 94.0157 51.0519 93.3834 51.0519H90.6772C90.028 51.0519 89.5054 51.2163 89.1091 51.5451C88.7045 51.8739 88.5021 52.3502 88.5021 52.974C88.5021 53.6063 88.7087 54.0869 89.1218 54.4157C89.5264 54.736 90.0449 54.8962 90.6772 54.8962H93.3834C94.0325 54.8962 94.5594 54.7318 94.9641 54.403C95.3603 54.0658 95.5585 53.5895 95.5585 52.974ZM87.5031 44.5092H96.5195V45.7358H88.9321L90.2219 47.9615H89.0585L87.5031 45.4197V44.5092ZM93.611 35.6026C94.5468 35.6026 95.2929 35.9103 95.8493 36.5258C96.3973 37.1412 96.6713 37.9126 96.6713 38.8399C96.6713 39.801 96.3973 40.5766 95.8493 41.1668C95.2929 41.7569 94.5468 42.052 93.611 42.052C93.1726 42.052 92.7469 41.9761 92.3338 41.8243C91.9123 41.6726 91.5793 41.5166 91.3348 41.3564C91.0819 41.1878 90.732 40.9349 90.2852 40.5977L87.541 38.4985V37.0442L90.8669 39.6619C90.6898 39.35 90.6013 38.9538 90.6013 38.4732C90.6013 37.588 90.8837 36.8883 91.4486 36.374C92.0134 35.8598 92.7342 35.6026 93.611 35.6026ZM93.611 36.8293C92.9956 36.8293 92.515 37.0147 92.1694 37.3857C91.8153 37.7482 91.6383 38.2329 91.6383 38.8399C91.6383 39.4301 91.8237 39.9106 92.1947 40.2816C92.5656 40.6441 93.0377 40.8253 93.611 40.8253C94.1927 40.8253 94.6648 40.6399 95.0273 40.2689C95.3814 39.898 95.5585 39.4216 95.5585 38.8399C95.5585 38.2329 95.3814 37.7482 95.0273 37.3857C94.6733 37.0147 94.2011 36.8293 93.611 36.8293ZM95.4067 27.4297H96.5195V33.7399H95.7608L92.7637 30.705C92.2411 30.1823 91.8069 29.8029 91.4612 29.5668C91.0397 29.3055 90.6055 29.1748 90.1587 29.1748C89.6445 29.1748 89.2398 29.3266 88.9447 29.6301C88.6497 29.9251 88.5021 30.3298 88.5021 30.8441C88.5021 31.3583 88.6665 31.7672 88.9953 32.0707C89.3157 32.3658 89.7372 32.5133 90.2599 32.5133H90.8416V33.7147H90.2472C89.3789 33.7147 88.6876 33.4491 88.1733 32.918C87.6506 32.3869 87.3893 31.6956 87.3893 30.8441C87.3893 29.9926 87.6422 29.2971 88.148 28.7575C88.6539 28.218 89.3241 27.9482 90.1587 27.9482C90.8079 27.9482 91.3896 28.121 91.9038 28.4667C92.4097 28.8039 92.9576 29.2844 93.5478 29.9083L95.4067 31.8051V27.4297ZM87.3893 22.4958C87.3893 21.4926 87.6886 20.7212 88.2871 20.1816C88.8857 19.6336 89.6782 19.3596 90.6645 19.3596H93.396C94.4161 19.3596 95.217 19.6379 95.7987 20.1943C96.3804 20.7423 96.6713 21.5094 96.6713 22.4958C96.6713 23.499 96.372 24.2746 95.7734 24.8226C95.1749 25.3622 94.3824 25.6319 93.396 25.6319H90.6645C89.6613 25.6319 88.8646 25.3537 88.2745 24.7973C87.6844 24.2409 87.3893 23.4737 87.3893 22.4958ZM95.5585 22.4958C95.5585 21.8635 95.3561 21.3872 94.9515 21.0668C94.5384 20.738 94.0157 20.5736 93.3834 20.5736H90.6772C90.028 20.5736 89.5054 20.738 89.1091 21.0668C88.7045 21.3956 88.5021 21.8719 88.5021 22.4958C88.5021 23.1281 88.7087 23.6086 89.1218 23.9374C89.5264 24.2578 90.0449 24.418 90.6772 24.418H93.3834C94.0325 24.418 94.5594 24.2536 94.9641 23.9248C95.3603 23.5875 95.5585 23.1112 95.5585 22.4958ZM87.5031 14.0309H96.5195V15.2576H88.9321L90.2219 17.4832H89.0585L87.5031 14.9414V14.0309ZM94.0915 5.02321C94.9262 5.02321 95.5669 5.3225 96.0137 5.92106C96.4521 6.51963 96.6713 7.24887 96.6713 8.10878V8.45021C96.6713 9.31013 96.4479 10.0309 96.0011 10.6126C95.5458 11.1859 94.9093 11.4726 94.0915 11.4726C93.5941 11.4726 93.1389 11.325 92.7258 11.0299C92.3043 10.7265 92.0261 10.3386 91.8912 9.86654C91.7563 10.3049 91.5034 10.6548 91.1324 10.9161C90.7615 11.1691 90.34 11.2955 89.8679 11.2955C89.067 11.2955 88.4558 11.0215 88.0342 10.4735C87.6043 9.91712 87.3893 9.23004 87.3893 8.41228V8.08349C87.3893 7.24887 87.6043 6.56178 88.0342 6.02223C88.4642 5.47425 89.0754 5.20026 89.8679 5.20026C90.3484 5.20026 90.7741 5.32671 91.1451 5.57963C91.5076 5.83254 91.7563 6.18241 91.8912 6.62923C92.0261 6.14869 92.3043 5.76088 92.7258 5.46582C93.1389 5.17075 93.5941 5.02321 94.0915 5.02321ZM88.4768 8.08349V8.41228C88.4768 8.89282 88.6033 9.29327 88.8562 9.61362C89.1007 9.92555 89.4548 10.0815 89.9184 10.0815C90.3821 10.0815 90.7404 9.92555 90.9933 9.61362C91.2378 9.29327 91.3601 8.89282 91.3601 8.41228V8.08349C91.3601 7.60295 91.2378 7.20672 90.9933 6.89479C90.7404 6.57443 90.3821 6.41425 89.9184 6.41425C89.4548 6.41425 89.1007 6.57443 88.8562 6.89479C88.6033 7.20672 88.4768 7.60295 88.4768 8.08349ZM92.4476 8.0582V8.43757C92.4476 8.95183 92.5825 9.38179 92.8523 9.72744C93.122 10.0647 93.5098 10.2333 94.0157 10.2333C94.5131 10.2333 94.9009 10.0604 95.1791 9.71479C95.4489 9.36914 95.5837 8.9434 95.5837 8.43757V8.0582C95.5837 7.54394 95.4489 7.1182 95.1791 6.78097C94.9093 6.43532 94.5215 6.2625 94.0157 6.2625C93.5098 6.2625 93.122 6.43111 92.8523 6.76833C92.5825 7.10555 92.4476 7.5355 92.4476 8.0582Z" fill="black"/>
<path d="M17.4902 62.75L9.49023 57.05L17.4902 51.35L9.49023 45.65L17.4902 39.95L9.49023 34.25L17.4902 28.55L9.49023 22.85L17.4902 17.15L9.49023 11.45L17.4902 5.75" stroke="#797979" stroke-width="1.91667"/>
<path d="M28.8799 62.75L20.8799 57.05L28.8799 51.35L20.8799 45.65L28.8799 39.95L20.8799 34.25L28.8799 28.55L20.8799 22.85L28.8799 17.15L20.8799 11.45L28.8799 5.75" stroke="#797979" stroke-width="1.91667"/>
<path d="M40.2695 62.75L32.2695 57.05L40.2695 51.35L32.2695 45.65L40.2695 39.95L32.2695 34.25L40.2695 28.55L32.2695 22.85L40.2695 17.15L32.2695 11.45L40.2695 5.75" stroke="#797979" stroke-width="1.91667"/>
</svg>
