<svg width="842" height="119" viewBox="0 0 842 119" fill="none" xmlns="http://www.w3.org/2000/svg">
<rect x="97.8293" y="43.7236" width="741" height="69" transform="rotate(-3.38277 97.8293 43.7236)" fill="#FF5C00"/>
<rect y="49.5062" width="98" height="69" transform="rotate(-3.38277 0 49.5062)" fill="#D9D9D9"/>
<path d="M98.6574 101.684L99.7683 101.618L100.141 107.917L99.3832 107.962L96.2123 105.109C95.6597 104.618 95.2039 104.265 94.8449 104.05C94.4087 103.814 93.9676 103.709 93.5215 103.735C93.0082 103.766 92.6132 103.941 92.3365 104.261C92.0594 104.573 91.936 104.986 91.9663 105.499C91.9967 106.013 92.1849 106.411 92.531 106.695C92.8682 106.971 93.2977 107.093 93.8195 107.062L94.4002 107.028L94.4711 108.227L93.8778 108.262C93.0109 108.313 92.3052 108.089 91.7605 107.589C91.2073 107.09 90.9057 106.415 90.8554 105.565C90.8052 104.715 91.0166 104.006 91.4897 103.437C91.9628 102.869 92.616 102.56 93.4491 102.511C94.0972 102.473 94.688 102.611 95.2218 102.926C95.7467 103.232 96.322 103.68 96.948 104.268L98.9156 106.051L98.6574 101.684ZM90.3628 97.2314C90.3036 96.2299 90.5569 95.4422 91.1226 94.8683C91.6877 94.286 92.4627 93.9657 93.4473 93.9075L96.174 93.7463C97.1924 93.6861 98.0083 93.9166 98.6218 94.4377C99.2348 94.9504 99.5704 95.6991 99.6286 96.6837C99.6878 97.6852 99.4348 98.4771 98.8696 99.0595C98.304 99.6334 97.5288 99.9495 96.5441 100.008L93.8174 100.169C92.8159 100.228 92.0042 99.9973 91.3823 99.4767C90.7603 98.9561 90.4205 98.2077 90.3628 97.2314ZM98.5177 96.7494C98.4804 96.1182 98.2504 95.6547 97.8275 95.3587C97.3957 95.0549 96.8642 94.9216 96.233 94.9589L93.5316 95.1186C92.8836 95.1569 92.3715 95.3519 91.9953 95.7035C91.6108 96.0556 91.4369 96.543 91.4737 97.1658C91.511 97.7969 91.7456 98.2645 92.1773 98.5683C92.6002 98.8642 93.1272 98.9935 93.7584 98.9562L96.4599 98.7965C97.1079 98.7582 97.6242 98.563 98.0088 98.2109C98.3844 97.8509 98.5541 97.3637 98.5177 96.7494ZM89.977 88.7746L98.9777 88.2426L99.0501 89.4671L91.4758 89.9148L92.8948 92.0605L91.7334 92.1291L90.0307 89.6835L89.977 88.7746ZM95.5487 79.5232C96.4828 79.4679 97.2458 79.7311 97.8375 80.3126C98.4209 80.8946 98.7399 81.6485 98.7946 82.5743C98.8513 83.5337 98.6236 84.3241 98.1114 84.9455C97.5908 85.5675 96.8634 85.906 95.9292 85.9613C95.4916 85.9871 95.0621 85.9365 94.6408 85.8094C94.2111 85.6828 93.8694 85.5467 93.6159 85.4013C93.3535 85.2479 92.9893 85.016 92.5234 84.7058L89.6602 82.7722L89.5744 81.3204L93.0488 83.7373C92.8537 83.4364 92.742 83.046 92.7136 82.5663C92.6614 81.6827 92.902 80.9675 93.4355 80.4208C93.969 79.8741 94.6734 79.5749 95.5487 79.5232ZM95.6211 80.7477C95.0067 80.784 94.5379 80.9975 94.2148 81.3882C93.8827 81.7709 93.7346 82.2653 93.7704 82.8712C93.8052 83.4603 94.0187 83.9291 94.4109 84.2775C94.8026 84.6175 95.2846 84.7706 95.8568 84.7368C96.4375 84.7024 96.8979 84.4894 97.2379 84.0977C97.5694 83.7065 97.7181 83.2206 97.6837 82.6399C97.6479 82.034 97.4426 81.5605 97.0677 81.2195C96.6924 80.8701 96.2102 80.7128 95.6211 80.7477ZM96.859 71.2585L97.9699 71.1929L98.3422 77.4921L97.5848 77.5369L94.4139 74.684C93.8613 74.1931 93.4055 73.84 93.0465 73.6247C92.6103 73.3887 92.1692 73.2839 91.7231 73.3103C91.2098 73.3406 90.8147 73.516 90.5381 73.8364C90.261 74.1483 90.1376 74.561 90.1679 75.0743C90.1982 75.5877 90.3865 75.9862 90.7326 76.2697C91.0698 76.5454 91.4993 76.6678 92.0211 76.637L92.6018 76.6026L92.6727 77.8019L92.0794 77.837C91.2125 77.8882 90.5068 77.6639 89.9621 77.164C89.4089 76.6647 89.1073 75.99 89.057 75.14C89.0068 74.29 89.2182 73.5808 89.6913 73.0123C90.1644 72.4439 90.8176 72.135 91.6507 72.0858C92.2988 72.0475 92.8896 72.1857 93.4234 72.5004C93.9483 72.8071 94.5236 73.2545 95.1496 73.8425L97.1172 75.6263L96.859 71.2585ZM88.5644 66.8063C88.5052 65.8048 88.7585 65.0171 89.3242 64.4432C89.8893 63.8608 90.6643 63.5405 91.6489 63.4823L94.3756 63.3212C95.3939 63.261 96.2099 63.4914 96.8234 64.0126C97.4364 64.5253 97.772 65.2739 97.8302 66.2586C97.8894 67.2601 97.6364 68.052 97.0712 68.6343C96.5056 69.2083 95.7304 69.5243 94.7457 69.5825L92.019 69.7437C91.0175 69.8029 90.2058 69.5722 89.5839 69.0516C88.9619 68.5309 88.6221 67.7825 88.5644 66.8063ZM96.7193 66.3243C96.682 65.6931 96.4519 65.2295 96.0291 64.9336C95.5973 64.6297 95.0658 64.4965 94.4346 64.5338L91.7332 64.6935C91.0851 64.7318 90.5731 64.9267 90.1969 65.2783C89.8124 65.6304 89.6385 66.1178 89.6753 66.7406C89.7126 67.3718 89.9472 67.8393 90.3789 68.1432C90.8018 68.4391 91.3288 68.5684 91.96 68.5311L94.6615 68.3714C95.3095 68.3331 95.8258 68.1379 96.2103 67.7858C96.586 67.4258 96.7557 66.9386 96.7193 66.3243ZM88.1786 58.3495L97.1793 57.8174L97.2516 59.0419L89.6774 59.4896L91.0964 61.6353L89.935 61.704L88.2323 59.2584L88.1786 58.3495ZM94.224 48.9687C95.0572 48.9194 95.7144 49.1804 96.1958 49.7515C96.6687 50.3232 96.9306 51.0382 96.9813 51.8966L97.0015 52.2375C97.0522 53.0959 96.8717 53.8286 96.46 54.4357C96.0394 55.0348 95.4209 55.3585 94.6046 55.4068C94.108 55.4361 93.6449 55.3157 93.2151 55.0455C92.7764 54.7674 92.4758 54.3967 92.3133 53.9334C92.2045 54.379 91.9726 54.7432 91.6178 55.0259C91.2624 55.3003 90.8491 55.4514 90.3778 55.4793C89.5783 55.5265 88.952 55.2891 88.4988 54.7669C88.0368 54.2368 87.7817 53.5636 87.7334 52.7473L87.714 52.4191C87.6648 51.5859 87.8388 50.8873 88.2362 50.3234C88.6331 49.751 89.227 49.4414 90.0181 49.3946C90.4978 49.3663 90.9303 49.4674 91.3155 49.698C91.6923 49.9291 91.9612 50.2636 92.1222 50.7017C92.2285 50.2141 92.4834 49.8105 92.8868 49.4911C93.2817 49.1722 93.7275 48.998 94.224 48.9687ZM88.7996 52.3549L88.819 52.6831C88.8474 53.1628 88.9973 53.5551 89.2686 53.86C89.5311 54.157 89.8938 54.2918 90.3566 54.2644C90.8195 54.237 91.168 54.0602 91.4021 53.7339C91.6272 53.3997 91.7256 52.9927 91.6973 52.513L91.6779 52.1848C91.6495 51.7051 91.5041 51.3168 91.2416 51.0198C90.9702 50.7149 90.6031 50.5762 90.1403 50.6035C89.6774 50.6309 89.3334 50.8117 89.1082 51.1459C88.8741 51.4722 88.7713 51.8752 88.7996 52.3549ZM92.762 52.0954L92.7844 52.4741C92.8147 52.9874 92.9748 53.4087 93.2645 53.7378C93.5537 54.0585 93.9507 54.204 94.4557 54.1741C94.9522 54.1448 95.3291 53.9494 95.5865 53.5879C95.8354 53.2269 95.9449 52.794 95.9151 52.289L95.8927 51.9103C95.8623 51.3969 95.7026 50.9799 95.4134 50.6592C95.1237 50.3301 94.7263 50.1804 94.2214 50.2103C93.7164 50.2401 93.3393 50.4313 93.0898 50.7839C92.8404 51.1364 92.7312 51.5736 92.762 52.0954Z" fill="black"/>
<path d="M21.1624 111.115L12.84 105.897L20.4897 99.7348L12.1673 94.5168L19.8171 88.3546L11.4947 83.1366L19.1444 76.9745L10.822 71.7565L18.4717 65.5944L10.1493 60.3763L17.799 54.2142" stroke="#797979" stroke-width="1.91667"/>
<path d="M32.5323 110.443L24.2099 105.225L31.8596 99.0627L23.5372 93.8446L31.1869 87.6825L22.8645 82.4645L30.5143 76.3024L22.1919 71.0844L29.8416 64.9222L21.5192 59.7042L29.1689 53.5421" stroke="#797979" stroke-width="1.91667"/>
<path d="M43.9019 109.771L35.5795 104.553L43.2292 98.3907L34.9068 93.1726L42.5566 87.0105L34.2342 81.7925L41.8839 75.6304L33.5615 70.4124L41.2112 64.2503L32.8888 59.0322L40.5386 52.8701" stroke="#797979" stroke-width="1.91667"/>
</svg>
