<svg width="842" height="109" viewBox="0 0 842 109" fill="none" xmlns="http://www.w3.org/2000/svg">
<rect x="739.707" y="103.188" width="740" height="68" transform="rotate(-177.309 739.707 103.188)" fill="white" stroke="black"/>
<rect x="838.075" y="108.312" width="98" height="69" transform="rotate(-177.309 838.075 108.312)" fill="#D9D9D9"/>
<path d="M745.492 45.9887L744.38 45.9365L744.677 39.6332L745.435 39.6688L748.286 42.8412C748.783 43.3878 749.199 43.7872 749.533 44.0392C749.942 44.32 750.37 44.471 750.816 44.4919C751.33 44.5161 751.741 44.3835 752.05 44.0942C752.359 43.8133 752.525 43.416 752.549 42.9023C752.573 42.3886 752.428 41.9725 752.114 41.6539C751.808 41.3441 751.394 41.1769 750.872 41.1524L750.291 41.1251L750.347 39.925L750.941 39.953C751.808 39.9937 752.486 40.2914 752.975 40.8461C753.472 41.4012 753.701 42.104 753.661 42.9545C753.621 43.8051 753.336 44.488 752.805 45.0032C752.274 45.5184 751.592 45.7564 750.758 45.7172C750.11 45.6867 749.537 45.4868 749.04 45.1174C748.55 44.7568 748.025 44.2511 747.465 43.6002L745.697 41.6181L745.492 45.9887ZM753.269 51.2936C753.222 52.2957 752.887 53.0522 752.263 53.5631C751.64 54.0824 750.835 54.3188 749.85 54.2725L747.122 54.1443C746.103 54.0964 745.316 53.7809 744.761 53.1978C744.205 52.6231 743.951 51.8431 743.997 50.8579C744.044 49.8557 744.38 49.095 745.003 48.5758C745.626 48.0649 746.431 47.8326 747.416 47.8789L750.144 48.0072C751.147 48.0543 751.929 48.3696 752.493 48.9531C753.056 49.5366 753.315 50.3168 753.269 51.2936ZM745.109 50.9101C745.079 51.5417 745.259 52.027 745.648 52.366C746.045 52.7138 746.56 52.9026 747.191 52.9322L749.894 53.0593C750.543 53.0898 751.073 52.9501 751.484 52.6403C751.904 52.3308 752.128 51.8645 752.157 51.2414C752.187 50.6098 752.003 50.1201 751.606 49.7723C751.217 49.4332 750.706 49.2489 750.075 49.2192L747.372 49.0922C746.723 49.0617 746.189 49.2012 745.77 49.5106C745.358 49.8289 745.138 50.2954 745.109 50.9101ZM752.758 59.7438L743.751 59.3205L743.809 58.0952L751.388 58.4514L750.204 56.1677L751.366 56.2223L752.801 58.8343L752.758 59.7438ZM746.239 68.3538C745.304 68.3099 744.573 67.9675 744.046 67.3266C743.528 66.6861 743.29 65.9027 743.334 64.9764C743.379 64.0164 743.689 63.2545 744.264 62.6907C744.847 62.1273 745.607 61.8676 746.541 61.9116C746.979 61.9321 747.401 62.0279 747.806 62.1989C748.22 62.3703 748.546 62.5417 748.782 62.7132C749.027 62.8935 749.365 63.1625 749.795 63.5204L752.438 65.7461L752.369 67.1987L749.17 64.4278C749.332 64.7477 749.402 65.1476 749.38 65.6277C749.338 66.5119 749.023 67.1976 748.435 67.6848C747.846 68.1719 747.114 68.3949 746.239 68.3538ZM746.296 67.1285C746.911 67.1574 747.4 66.9947 747.762 66.6404C748.133 66.2949 748.333 65.819 748.361 65.2127C748.389 64.6232 748.226 64.1345 747.873 63.7465C747.519 63.367 747.056 63.1638 746.484 63.1368C745.903 63.1095 745.422 63.2726 745.043 63.6262C744.672 63.9801 744.473 64.4476 744.445 65.0286C744.417 65.6349 744.571 66.1275 744.907 66.5062C745.244 66.8934 745.707 67.1008 746.296 67.1285ZM744.061 76.4334L742.95 76.3811L743.246 70.0779L744.004 70.1135L746.855 73.2858C747.352 73.8325 747.768 74.2318 748.103 74.4838C748.511 74.7647 748.939 74.9156 749.385 74.9366C749.899 74.9607 750.31 74.8281 750.619 74.5388C750.928 74.2579 751.094 73.8606 751.118 73.3469C751.143 72.8332 750.997 72.4171 750.683 72.0985C750.377 71.7887 749.963 71.6216 749.441 71.597L748.86 71.5697L748.916 70.3697L749.51 70.3976C750.377 70.4384 751.055 70.7361 751.544 71.2908C752.041 71.8458 752.27 72.5486 752.23 73.3992C752.19 74.2497 751.905 74.9326 751.374 75.4478C750.844 75.963 750.161 76.201 749.328 76.1619C748.679 76.1314 748.106 75.9314 747.609 75.562C747.119 75.2014 746.595 74.6957 746.034 74.0448L744.267 72.0628L744.061 76.4334ZM751.838 81.7383C751.791 82.7404 751.456 83.4969 750.833 84.0077C750.209 84.527 749.404 84.7635 748.419 84.7172L745.691 84.5889C744.672 84.5411 743.885 84.2256 743.33 83.6424C742.775 83.0678 742.52 82.2878 742.566 81.3025C742.613 80.3004 742.949 79.5397 743.572 79.0204C744.196 78.5095 745 78.2773 745.985 78.3236L748.714 78.4518C749.716 78.4989 750.499 78.8142 751.062 79.3977C751.625 79.9812 751.884 80.7614 751.838 81.7383ZM743.678 81.3547C743.648 81.9863 743.828 82.4716 744.217 82.8106C744.614 83.1585 745.129 83.3472 745.76 83.3769L748.464 83.5039C749.112 83.5344 749.642 83.3947 750.053 83.0849C750.473 82.7755 750.697 82.3092 750.726 81.686C750.756 81.0544 750.572 80.5647 750.175 80.2169C749.786 79.8779 749.276 79.6935 748.644 79.6639L745.941 79.5368C745.292 79.5063 744.758 79.6458 744.339 79.9552C743.927 80.2735 743.707 80.74 743.678 81.3547ZM751.327 90.1884L742.32 89.7651L742.378 88.5399L749.957 88.8961L748.773 86.6123L749.935 86.6669L751.37 89.2789L751.327 90.1884ZM744.323 98.8769C743.489 98.8377 742.863 98.5087 742.445 97.8898C742.035 97.2713 741.851 96.5326 741.891 95.6736L741.907 95.3326C741.947 94.4736 742.204 93.7641 742.678 93.204C743.16 92.6527 743.809 92.3963 744.626 92.4347C745.123 92.458 745.57 92.6268 745.969 92.9409C746.376 93.2639 746.636 93.6643 746.748 94.1422C746.904 93.7107 747.173 93.3731 747.555 93.1294C747.938 92.8942 748.365 92.7877 748.836 92.8098C749.636 92.8474 750.234 93.1498 750.629 93.717C751.033 94.293 751.215 94.9894 751.177 95.8062L751.161 96.1347C751.122 96.9684 750.875 97.6446 750.42 98.1634C749.965 98.6906 749.342 98.9356 748.55 98.8984C748.07 98.8758 747.651 98.7295 747.292 98.4594C746.942 98.1898 746.71 97.8286 746.596 97.376C746.439 97.8497 746.143 98.224 745.708 98.4989C745.281 98.7743 744.82 98.9003 744.323 98.8769ZM750.075 96.0836L750.091 95.7552C750.113 95.2752 750.006 94.8692 749.768 94.5374C749.538 94.2143 749.192 94.0419 748.729 94.0201C748.266 93.9983 747.9 94.1373 747.633 94.437C747.374 94.7456 747.233 95.1398 747.21 95.6198L747.195 95.9483C747.172 96.4283 747.276 96.8298 747.506 97.1529C747.743 97.4847 748.094 97.6616 748.557 97.6833C749.02 97.7051 749.381 97.5617 749.64 97.2532C749.908 96.9535 750.053 96.5636 750.075 96.0836ZM746.108 95.9225L746.125 95.5435C746.149 95.0298 746.035 94.594 745.782 94.2361C745.528 93.8866 745.149 93.6999 744.643 93.6762C744.146 93.6528 743.751 93.8073 743.457 94.1395C743.171 94.4721 743.016 94.891 742.993 95.3963L742.975 95.7752C742.951 96.2889 743.065 96.7205 743.319 97.07C743.572 97.428 743.952 97.6188 744.457 97.6426C744.962 97.6663 745.357 97.5161 745.643 97.1919C745.928 96.8677 746.083 96.4446 746.108 95.9225Z" fill="black"/>
<path d="M823.55 44.81L831.273 50.8792L823.015 56.1974L830.738 62.2667L822.479 67.5848L830.203 73.6541L821.944 78.9723L829.668 85.0415L821.409 90.3597L829.133 96.429L820.874 101.747" stroke="#797979" stroke-width="1.91667"/>
<path d="M812.173 44.2753L819.896 50.3446L811.637 55.6627L819.361 61.732L811.102 67.0502L818.826 73.1194L810.567 78.4376L818.291 84.5069L810.032 89.825L817.755 95.8943L809.497 101.212" stroke="#797979" stroke-width="1.91667"/>
<path d="M800.796 43.7406L808.519 49.8099L800.26 55.1281L807.984 61.1973L799.725 66.5155L807.449 72.5848L799.19 77.9029L806.914 83.9722L798.655 89.2903L806.378 95.3596L798.12 100.678" stroke="#797979" stroke-width="1.91667"/>
</svg>
