<svg width="839" height="69" viewBox="0 0 839 69" fill="none" xmlns="http://www.w3.org/2000/svg">
<rect x="98.5" y="0.5" width="740" height="68" fill="white" stroke="black"/>
<rect width="98" height="69" fill="#D9D9D9"/>
<path d="M95.4067 57.9078H96.5195V64.2181H95.7608L92.7637 61.1831C92.2411 60.6604 91.8069 60.281 91.4612 60.045C91.0397 59.7836 90.6055 59.653 90.1587 59.653C89.6445 59.653 89.2398 59.8047 88.9447 60.1082C88.6497 60.4033 88.5021 60.8079 88.5021 61.3222C88.5021 61.8365 88.6665 62.2453 88.9953 62.5488C89.3157 62.8439 89.7372 62.9914 90.2599 62.9914H90.8416V64.1928H90.2472C89.3789 64.1928 88.6876 63.9272 88.1733 63.3961C87.6506 62.865 87.3893 62.1737 87.3893 61.3222C87.3893 60.4707 87.6422 59.7752 88.148 59.2356C88.6539 58.6961 89.3241 58.4263 90.1587 58.4263C90.8079 58.4263 91.3896 58.5991 91.9038 58.9448C92.4097 59.282 92.9576 59.7626 93.5478 60.3864L95.4067 62.2833V57.9078ZM87.3893 52.9739C87.3893 51.9707 87.6886 51.1993 88.2871 50.6597C88.8857 50.1118 89.6782 49.8378 90.6645 49.8378H93.396C94.4161 49.8378 95.217 50.116 95.7987 50.6724C96.3804 51.2204 96.6713 51.9876 96.6713 52.9739C96.6713 53.9772 96.372 54.7528 95.7734 55.3007C95.1749 55.8403 94.3824 56.1101 93.396 56.1101H90.6645C89.6613 56.1101 88.8646 55.8319 88.2745 55.2754C87.6844 54.719 87.3893 53.9519 87.3893 52.9739ZM95.5585 52.9739C95.5585 52.3416 95.3561 51.8653 94.9515 51.545C94.5384 51.2162 94.0157 51.0518 93.3834 51.0518H90.6772C90.028 51.0518 89.5054 51.2162 89.1091 51.545C88.7045 51.8737 88.5021 52.3501 88.5021 52.9739C88.5021 53.6062 88.7087 54.0867 89.1218 54.4155C89.5264 54.7359 90.0449 54.8961 90.6772 54.8961H93.3834C94.0325 54.8961 94.5594 54.7317 94.9641 54.4029C95.3603 54.0657 95.5585 53.5893 95.5585 52.9739ZM87.5031 44.5091H96.5195V45.7357H88.9321L90.2219 47.9614H89.0585L87.5031 45.4196V44.5091ZM93.611 35.6025C94.5468 35.6025 95.2929 35.9102 95.8493 36.5256C96.3973 37.1411 96.6713 37.9125 96.6713 38.8398C96.6713 39.8009 96.3973 40.5765 95.8493 41.1666C95.2929 41.7568 94.5468 42.0518 93.611 42.0518C93.1726 42.0518 92.7469 41.976 92.3338 41.8242C91.9123 41.6725 91.5793 41.5165 91.3348 41.3563C91.0819 41.1877 90.732 40.9348 90.2852 40.5976L87.541 38.4984V37.0441L90.8669 39.6618C90.6898 39.3499 90.6013 38.9536 90.6013 38.4731C90.6013 37.5879 90.8837 36.8882 91.4486 36.3739C92.0134 35.8596 92.7342 35.6025 93.611 35.6025ZM93.611 36.8291C92.9956 36.8291 92.515 37.0146 92.1694 37.3856C91.8153 37.7481 91.6383 38.2328 91.6383 38.8398C91.6383 39.43 91.8237 39.9105 92.1947 40.2814C92.5656 40.6439 93.0377 40.8252 93.611 40.8252C94.1927 40.8252 94.6648 40.6397 95.0273 40.2688C95.3814 39.8978 95.5585 39.4215 95.5585 38.8398C95.5585 38.2328 95.3814 37.7481 95.0273 37.3856C94.6733 37.0146 94.2011 36.8291 93.611 36.8291ZM95.4067 27.4296H96.5195V33.7398H95.7608L92.7637 30.7048C92.2411 30.1822 91.8069 29.8028 91.4612 29.5667C91.0397 29.3054 90.6055 29.1747 90.1587 29.1747C89.6445 29.1747 89.2398 29.3265 88.9447 29.63C88.6497 29.925 88.5021 30.3297 88.5021 30.8439C88.5021 31.3582 88.6665 31.7671 88.9953 32.0706C89.3157 32.3657 89.7372 32.5132 90.2599 32.5132H90.8416V33.7145H90.2472C89.3789 33.7145 88.6876 33.449 88.1733 32.9179C87.6506 32.3867 87.3893 31.6954 87.3893 30.8439C87.3893 29.9925 87.6422 29.2969 88.148 28.7574C88.6539 28.2178 89.3241 27.9481 90.1587 27.9481C90.8079 27.9481 91.3896 28.1209 91.9038 28.4665C92.4097 28.8038 92.9576 29.2843 93.5478 29.9082L95.4067 31.805V27.4296ZM87.3893 22.4957C87.3893 21.4924 87.6886 20.7211 88.2871 20.1815C88.8857 19.6335 89.6782 19.3595 90.6645 19.3595H93.396C94.4161 19.3595 95.217 19.6377 95.7987 20.1941C96.3804 20.7421 96.6713 21.5093 96.6713 22.4957C96.6713 23.4989 96.372 24.2745 95.7734 24.8225C95.1749 25.362 94.3824 25.6318 93.396 25.6318H90.6645C89.6613 25.6318 88.8646 25.3536 88.2745 24.7972C87.6844 24.2408 87.3893 23.4736 87.3893 22.4957ZM95.5585 22.4957C95.5585 21.8634 95.3561 21.3871 94.9515 21.0667C94.5384 20.7379 94.0157 20.5735 93.3834 20.5735H90.6772C90.028 20.5735 89.5054 20.7379 89.1091 21.0667C88.7045 21.3955 88.5021 21.8718 88.5021 22.4957C88.5021 23.128 88.7087 23.6085 89.1218 23.9373C89.5264 24.2576 90.0449 24.4178 90.6772 24.4178H93.3834C94.0325 24.4178 94.5594 24.2534 94.9641 23.9246C95.3603 23.5874 95.5585 23.1111 95.5585 22.4957ZM87.5031 14.0308H96.5195V15.2575H88.9321L90.2219 17.4831H89.0585L87.5031 14.9413V14.0308ZM94.0915 5.02309C94.9262 5.02309 95.5669 5.32238 96.0137 5.92094C96.4521 6.51951 96.6713 7.24875 96.6713 8.10866V8.45009C96.6713 9.31 96.4479 10.0308 96.0011 10.6125C95.5458 11.1858 94.9093 11.4724 94.0915 11.4724C93.5941 11.4724 93.1389 11.3249 92.7258 11.0298C92.3043 10.7263 92.0261 10.3385 91.8912 9.86642C91.7563 10.3048 91.5034 10.6547 91.1324 10.916C90.7615 11.1689 90.34 11.2954 89.8679 11.2954C89.067 11.2954 88.4558 11.0214 88.0342 10.4734C87.6043 9.917 87.3893 9.22991 87.3893 8.41216V8.08337C87.3893 7.24875 87.6043 6.56166 88.0342 6.02211C88.4642 5.47412 89.0754 5.20013 89.8679 5.20013C90.3484 5.20013 90.7741 5.32659 91.1451 5.57951C91.5076 5.83242 91.7563 6.18229 91.8912 6.6291C92.0261 6.14856 92.3043 5.76076 92.7258 5.46569C93.1389 5.17063 93.5941 5.02309 94.0915 5.02309ZM88.4768 8.08337V8.41216C88.4768 8.89269 88.6033 9.29314 88.8562 9.6135C89.1007 9.92543 89.4548 10.0814 89.9184 10.0814C90.3821 10.0814 90.7404 9.92543 90.9933 9.6135C91.2378 9.29314 91.3601 8.89269 91.3601 8.41216V8.08337C91.3601 7.60283 91.2378 7.20659 90.9933 6.89466C90.7404 6.57431 90.3821 6.41413 89.9184 6.41413C89.4548 6.41413 89.1007 6.57431 88.8562 6.89466C88.6033 7.20659 88.4768 7.60283 88.4768 8.08337ZM92.4476 8.05807V8.43745C92.4476 8.95171 92.5825 9.38166 92.8523 9.72731C93.122 10.0645 93.5098 10.2331 94.0157 10.2331C94.5131 10.2331 94.9009 10.0603 95.1791 9.71467C95.4489 9.36902 95.5837 8.94328 95.5837 8.43745V8.05807C95.5837 7.54381 95.4489 7.11807 95.1791 6.78085C94.9093 6.4352 94.5215 6.26238 94.0157 6.26238C93.5098 6.26238 93.122 6.43099 92.8523 6.76821C92.5825 7.10543 92.4476 7.53538 92.4476 8.05807Z" fill="#0E0E0E"/>
<path d="M17.4902 62.75L9.49023 57.05L17.4902 51.35L9.49023 45.65L17.4902 39.95L9.49023 34.25L17.4902 28.55L9.49023 22.85L17.4902 17.15L9.49023 11.45L17.4902 5.75" stroke="white" stroke-width="1.91667"/>
<path d="M28.8799 62.75L20.8799 57.05L28.8799 51.35L20.8799 45.65L28.8799 39.95L20.8799 34.25L28.8799 28.55L20.8799 22.85L28.8799 17.15L20.8799 11.45L28.8799 5.75" stroke="white" stroke-width="1.91667"/>
<path d="M40.2695 62.75L32.2695 57.05L40.2695 51.35L32.2695 45.65L40.2695 39.95L32.2695 34.25L40.2695 28.55L32.2695 22.85L40.2695 17.15L32.2695 11.45L40.2695 5.75" stroke="white" stroke-width="1.91667"/>
</svg>
