<svg width="840" height="79" viewBox="0 0 840 79" fill="none" xmlns="http://www.w3.org/2000/svg">
<rect x="98.499" y="9.22686" width="740" height="68" transform="rotate(-0.675249 98.499 9.22686)" fill="white" stroke="black"/>
<rect y="9.8877" width="98" height="69" transform="rotate(-0.675249 0 9.8877)" fill="#D9D9D9"/>
<path d="M96.0825 66.6673L97.1953 66.6542L97.2697 72.964L96.511 72.9729L93.4784 69.9735C92.9495 69.457 92.5109 69.0827 92.1625 68.8508C91.738 68.5944 91.3023 68.4689 90.8555 68.4741C90.3413 68.4802 89.9384 68.6367 89.6469 68.9437C89.3554 69.2422 89.2126 69.6486 89.2187 70.1628C89.2247 70.677 89.3939 71.0839 89.7263 71.3835C90.0501 71.6748 90.4733 71.8174 90.996 71.8112L91.5777 71.8043L91.5918 73.0056L90.9975 73.0126C90.1292 73.0228 89.4348 72.7654 88.9144 72.2404C88.3854 71.7155 88.116 71.0273 88.1059 70.1759C88.0959 69.3245 88.3406 68.626 88.84 68.0806C89.3395 67.5351 90.0065 67.2574 90.841 67.2476C91.4901 67.2399 92.0738 67.4059 92.5921 67.7455C93.1019 68.0767 93.6555 68.5507 94.253 69.1676L96.1341 71.0424L96.0825 66.6673ZM88.0075 61.8282C87.9957 60.825 88.2859 60.0502 88.8781 59.5036C89.4701 58.9486 90.2593 58.6653 91.2456 58.6537L93.9769 58.6215C94.9969 58.6095 95.801 58.8782 96.3893 59.4277C96.9774 59.9688 97.2773 60.7325 97.2889 61.7188C97.3007 62.722 97.0106 63.5011 96.4185 64.0561C95.8264 64.6026 95.0371 64.8817 94.0508 64.8933L91.3195 64.9255C90.3164 64.9374 89.5165 64.6686 88.9198 64.1191C88.3232 63.5697 88.0191 62.8061 88.0075 61.8282ZM96.1761 61.7319C96.1687 61.0997 95.9608 60.6258 95.5523 60.3102C95.1354 59.9863 94.6108 59.8281 93.9786 59.8355L91.2726 59.8674C90.6235 59.8751 90.1027 60.0456 89.7104 60.3791C89.3096 60.7126 89.1129 61.1913 89.1203 61.8151C89.1277 62.4473 89.3399 62.9254 89.7569 63.2493C90.1653 63.5649 90.6856 63.7189 91.3179 63.7115L94.0239 63.6796C94.673 63.6719 95.1979 63.5013 95.5987 63.1678C95.9909 62.8259 96.1834 62.3473 96.1761 61.7319ZM88.0216 53.3626L97.0374 53.2563L97.0518 54.4829L89.4649 54.5723L90.7809 56.7826L89.6176 56.7963L88.0323 54.273L88.0216 53.3626ZM94.0241 44.3847C94.9598 44.3736 95.7095 44.6725 96.2731 45.2814C96.8283 45.8903 97.1114 46.6584 97.1223 47.5857C97.1336 48.5467 96.8688 49.3255 96.3278 49.922C95.7784 50.5187 95.0358 50.8225 94.1001 50.8336C93.6618 50.8387 93.2351 50.7679 92.8203 50.621C92.397 50.4742 92.0622 50.3222 91.8158 50.1649C91.5609 49.9993 91.2081 49.7505 90.7574 49.4186L87.9887 47.3519L87.9715 45.8977L91.328 48.476C91.1473 48.1662 91.0541 47.771 91.0484 47.2905C91.038 46.4054 91.3122 45.7024 91.8709 45.1815C92.4297 44.6606 93.1474 44.395 94.0241 44.3847ZM94.0386 45.6112C93.4232 45.6185 92.9449 45.8096 92.6036 46.1846C92.2538 46.5513 92.0825 47.0381 92.0897 47.645C92.0966 48.2351 92.2877 48.7134 92.663 49.08C93.0382 49.4381 93.5124 49.6138 94.0857 49.607C94.6673 49.6002 95.1372 49.4091 95.4953 49.0339C95.845 48.6589 96.0164 48.1805 96.0096 47.5988C96.0024 46.9919 95.8197 46.5092 95.4613 46.1509C95.1029 45.7842 94.6287 45.6043 94.0386 45.6112ZM95.7234 36.1912L96.8361 36.1781L96.9105 42.4878L96.1518 42.4968L93.1192 39.4973C92.5904 38.9808 92.1517 38.6066 91.8033 38.3747C91.3788 38.1183 90.9431 37.9927 90.4963 37.998C89.9821 38.0041 89.5792 38.1606 89.2878 38.4675C88.9962 38.7661 88.8534 39.1724 88.8595 39.6867C88.8656 40.2009 89.0348 40.6078 89.3671 40.9074C89.6909 41.1987 90.1141 41.3412 90.6368 41.3351L91.2185 41.3282L91.2326 42.5295L90.6383 42.5365C89.77 42.5467 89.0756 42.2893 88.5552 41.7643C88.0262 41.2394 87.7568 40.5512 87.7467 39.6998C87.7367 38.8484 87.9814 38.1499 88.4808 37.6044C88.9803 37.059 89.6473 36.7813 90.4818 36.7715C91.1309 36.7638 91.7146 36.9298 92.2329 37.2693C92.7427 37.6006 93.2963 38.0746 93.8938 38.6915L95.7749 40.5663L95.7234 36.1912ZM87.6484 31.3521C87.6365 30.3489 87.9267 29.5741 88.5189 29.0275C89.1109 28.4725 89.9001 28.1892 90.8864 28.1776L93.6177 28.1454C94.6377 28.1333 95.4419 28.4021 96.0301 28.9516C96.6182 29.4927 96.9181 30.2564 96.9297 31.2427C96.9415 32.2459 96.6514 33.0249 96.0593 33.5799C95.4672 34.1265 94.6779 34.4056 93.6916 34.4172L90.9603 34.4494C89.9572 34.4612 89.1573 34.1924 88.5606 33.643C87.964 33.0936 87.6599 32.3299 87.6484 31.3521ZM95.8169 31.2558C95.8095 30.6236 95.6016 30.1497 95.1932 29.8341C94.7762 29.5102 94.2516 29.352 93.6194 29.3594L90.9134 29.3913C90.2643 29.399 89.7435 29.5695 89.3512 29.9029C88.9505 30.2365 88.7538 30.7152 88.7611 31.339C88.7686 31.9712 88.9808 32.4493 89.3977 32.7732C89.8061 33.0887 90.3264 33.2428 90.9587 33.2354L93.6647 33.2035C94.3138 33.1958 94.8387 33.0252 95.2395 32.6917C95.6317 32.3498 95.8242 31.8712 95.8169 31.2558ZM87.6624 22.8865L96.6782 22.7802L96.6927 24.0068L89.1057 24.0962L90.4217 26.3065L89.2584 26.3202L87.6731 23.7969L87.6624 22.8865ZM94.1442 13.8017C94.9788 13.7919 95.623 14.0836 96.0768 14.6769C96.5222 15.2702 96.75 15.9968 96.7601 16.8567L96.7642 17.1981C96.7743 18.0579 96.5594 18.7813 96.1195 19.3683C95.671 19.9469 95.0379 20.241 94.2202 20.2506C93.7229 20.2565 93.2659 20.1143 92.8494 19.8241C92.4243 19.5256 92.1415 19.1411 92.0011 18.6706C91.8714 19.1106 91.6226 19.4634 91.2548 19.7291C90.8868 19.9864 90.4668 20.1178 89.9948 20.1234C89.1939 20.1328 88.5795 19.866 88.1516 19.3231C87.7151 18.7717 87.492 18.0872 87.4824 17.2695L87.4785 16.9408C87.4687 16.1062 87.6755 15.4166 88.0991 14.8721C88.5226 14.319 89.1305 14.0379 89.9229 14.0285C90.4034 14.0229 90.8306 14.1443 91.2045 14.3928C91.57 14.6414 91.8228 14.9884 91.9629 15.4336C92.0922 14.9515 92.3658 14.5604 92.7838 14.2604C93.1934 13.9605 93.6469 13.8076 94.1442 13.8017ZM88.566 16.928L88.5698 17.2567C88.5755 17.7372 88.7067 18.1362 88.9633 18.4535C89.2115 18.7625 89.5674 18.9143 90.031 18.9089C90.4947 18.9034 90.8511 18.7432 91.1003 18.4283C91.341 18.1051 91.4585 17.7032 91.4529 17.2227L91.449 16.894C91.4433 16.4135 91.3164 16.0187 91.0683 15.7097C90.8116 15.3923 90.4515 15.2364 89.9878 15.2418C89.5242 15.2473 89.172 15.4116 88.9313 15.7349C88.6821 16.0498 88.5603 16.4474 88.566 16.928ZM92.5362 16.8559L92.5406 17.2352C92.5467 17.7494 92.6866 18.1778 92.9605 18.5202C93.2342 18.8542 93.624 19.0183 94.1298 19.0123C94.6271 19.0064 95.0129 18.8291 95.287 18.4802C95.5527 18.1314 95.6825 17.7041 95.6766 17.1983L95.6721 16.8189C95.666 16.3047 95.5261 15.8806 95.2524 15.5465C94.9786 15.2041 94.5888 15.0359 94.083 15.0418C93.5772 15.0478 93.1914 15.2209 92.9256 15.5613C92.6598 15.9017 92.53 16.3332 92.5362 16.8559Z" fill="black"/>
<path d="M18.2286 72.4273L10.1619 66.8219L18.0942 61.0281L10.0276 55.4227L17.9599 49.6289L9.89325 44.0235L17.8255 38.2296L9.7589 32.6243L17.6912 26.8304L9.62455 21.2251L17.5568 15.4312" stroke="white" stroke-width="1.91667"/>
<path d="M29.6175 72.293L21.5509 66.6877L29.4831 60.8938L21.4165 55.2885L29.3488 49.4946L21.2822 43.8893L29.2144 38.0954L21.1478 32.49L29.0801 26.6962L21.0135 21.0908L28.9457 15.297" stroke="white" stroke-width="1.91667"/>
<path d="M41.0062 72.1587L32.9395 66.5534L40.8718 60.7595L32.8052 55.1542L40.7375 49.3603L32.6708 43.755L40.6031 37.9611L32.5365 32.3558L40.4688 26.5619L32.4021 20.9566L40.3344 15.1627" stroke="white" stroke-width="1.91667"/>
</svg>
