<svg width="842" height="114" viewBox="0 0 842 114" fill="none" xmlns="http://www.w3.org/2000/svg">
<rect x="739.935" y="108.617" width="741" height="69" transform="rotate(-176.928 739.935 108.617)" fill="#0029FF"/>
<rect x="837.794" y="113.87" width="98" height="69" transform="rotate(-176.928 837.794 113.87)" fill="#D9D9D9"/>
<path d="M745.628 50.9313L744.517 50.8716L744.855 44.5705L745.613 44.6112L748.443 47.8024C748.937 48.3524 749.35 48.7545 749.682 49.0087C750.089 49.2923 750.516 49.446 750.962 49.47C751.476 49.4975 751.888 49.3677 752.199 49.0804C752.509 48.8016 752.678 48.4054 752.706 47.8919C752.733 47.3784 752.591 46.9613 752.279 46.6406C751.975 46.3288 751.562 46.1589 751.04 46.1309L750.459 46.0997L750.523 44.9001L751.117 44.9319C751.984 44.9785 752.66 45.2807 753.145 45.8386C753.639 46.397 753.863 47.1013 753.817 47.9516C753.771 48.8018 753.481 49.4828 752.947 49.9944C752.413 50.5061 751.73 50.7396 750.896 50.6948C750.248 50.66 749.676 50.4563 749.181 50.0836C748.694 49.7197 748.173 49.2105 747.617 48.5559L745.863 46.5621L745.628 50.9313ZM753.37 56.2878C753.316 57.2896 752.976 58.0439 752.349 58.5506C751.722 59.0657 750.916 59.2968 749.931 59.2439L747.203 59.0975C746.185 59.0429 745.4 58.7221 744.849 58.1353C744.297 57.557 744.048 56.7753 744.101 55.7903C744.155 54.7886 744.495 54.0301 745.122 53.515C745.749 53.0083 746.555 52.7814 747.539 52.8342L750.267 52.9806C751.269 53.0344 752.049 53.3549 752.609 53.9422C753.168 54.5294 753.422 55.3113 753.37 56.2878ZM745.212 55.85C745.178 56.4814 745.355 56.9678 745.742 57.3094C746.137 57.6599 746.65 57.8521 747.281 57.886L749.983 58.031C750.632 58.0658 751.162 57.9297 751.576 57.6226C751.997 57.3159 752.225 56.8512 752.258 56.2282C752.292 55.5968 752.112 55.1059 751.717 54.7554C751.33 54.4138 750.821 54.2261 750.189 54.1922L747.487 54.0472C746.839 54.0124 746.304 54.1483 745.882 54.4549C745.468 54.7704 745.245 55.2354 745.212 55.85ZM752.802 64.7344L743.799 64.2512L743.864 63.0263L751.441 63.433L750.272 61.1414L751.434 61.2037L752.851 63.8252L752.802 64.7344ZM746.226 73.3008C745.291 73.2507 744.563 72.9034 744.04 72.259C743.526 71.6151 743.294 70.8301 743.343 69.9041C743.395 68.9444 743.71 68.1846 744.289 67.6247C744.876 67.0652 745.637 66.8106 746.571 66.8607C747.009 66.8842 747.43 66.9828 747.835 67.1565C748.247 67.3306 748.571 67.5042 748.807 67.6773C749.051 67.8592 749.386 68.1305 749.814 68.4912L752.442 70.7344L752.364 72.1866L749.183 69.3944C749.343 69.7154 749.411 70.1158 749.385 70.5957C749.337 71.4796 749.018 72.1632 748.426 72.6464C747.835 73.1297 747.101 73.3478 746.226 73.3008ZM746.291 72.0759C746.906 72.1089 747.396 71.9495 747.761 71.5976C748.134 71.2546 748.337 70.78 748.369 70.1739C748.401 69.5846 748.241 69.0948 747.891 68.7045C747.54 68.3226 747.078 68.1163 746.506 68.0856C745.925 68.0544 745.443 68.2143 745.061 68.5653C744.688 68.9168 744.486 69.3829 744.455 69.9638C744.422 70.5699 744.573 71.0634 744.907 71.4444C745.241 71.8338 745.702 72.0443 746.291 72.0759ZM743.994 81.3657L742.883 81.3061L743.221 75.0049L743.979 75.0456L746.809 78.2368C747.303 78.7868 747.716 79.1889 748.049 79.4431C748.456 79.7267 748.882 79.8805 749.328 79.9044C749.842 79.932 750.254 79.8021 750.565 79.5149C750.876 79.236 751.045 78.8399 751.072 78.3264C751.1 77.8128 750.957 77.3957 750.645 77.075C750.341 76.7632 749.928 76.5933 749.406 76.5653L748.826 76.5341L748.89 75.3345L749.483 75.3664C750.35 75.4129 751.027 75.7151 751.512 76.2731C752.005 76.8314 752.229 77.5357 752.183 78.386C752.138 79.2363 751.848 79.9172 751.314 80.4289C750.78 80.9405 750.096 81.174 749.263 81.1293C748.615 81.0945 748.043 80.8907 747.548 80.518C747.061 80.1542 746.539 79.6449 745.984 78.9904L744.229 76.9966L743.994 81.3657ZM751.736 86.7223C751.682 87.7241 751.342 88.4783 750.715 88.985C750.088 89.5001 749.282 89.7312 748.297 89.6784L745.57 89.532C744.551 89.4773 743.766 89.1566 743.215 88.5698C742.664 87.9914 742.414 87.2097 742.467 86.2248C742.521 85.223 742.861 84.4645 743.489 83.9494C744.115 83.4427 744.921 83.2158 745.906 83.2687L748.633 83.4151C749.635 83.4689 750.416 83.7894 750.975 84.3766C751.535 84.9639 751.788 85.7457 751.736 86.7223ZM743.579 86.2844C743.545 86.9158 743.721 87.4023 744.108 87.7439C744.503 88.0943 745.016 88.2865 745.647 88.3204L748.35 88.4654C748.998 88.5002 749.529 88.3641 749.942 88.057C750.364 87.7504 750.591 87.2856 750.625 86.6626C750.659 86.0312 750.478 85.5403 750.083 85.1899C749.696 84.8483 749.187 84.6605 748.556 84.6267L745.853 84.4816C745.205 84.4468 744.67 84.5827 744.249 84.8894C743.835 85.2049 743.611 85.6699 743.579 86.2844ZM751.169 95.1689L742.165 94.6856L742.231 93.4607L749.807 93.8674L748.639 91.5758L749.8 91.6382L751.217 94.2597L751.169 95.1689ZM744.107 103.811C743.273 103.766 742.65 103.433 742.236 102.811C741.83 102.19 741.65 101.45 741.696 100.591L741.714 100.25C741.761 99.3915 742.022 98.6837 742.5 98.1268C742.985 97.5787 743.636 97.3266 744.452 97.3704C744.949 97.3971 745.396 97.5688 745.793 97.8856C746.197 98.2113 746.454 98.6134 746.564 99.0921C746.722 98.6616 746.993 98.3257 747.378 98.0847C747.761 97.852 748.189 97.7483 748.661 97.7736C749.46 97.8165 750.056 98.1229 750.448 98.6927C750.847 99.2713 751.025 99.969 750.981 100.786L750.963 101.114C750.919 101.947 750.667 102.622 750.209 103.138C749.75 103.662 749.125 103.903 748.334 103.86C747.854 103.834 747.436 103.685 747.079 103.413C746.73 103.141 746.501 102.778 746.39 102.325C746.23 102.797 745.931 103.17 745.494 103.442C745.066 103.714 744.603 103.837 744.107 103.811ZM749.877 101.056L749.895 100.727C749.921 100.247 749.816 99.8408 749.581 99.5073C749.353 99.1827 749.008 99.008 748.545 98.9831C748.082 98.9583 747.716 99.0948 747.447 99.3928C747.185 99.6996 747.042 100.093 747.016 100.573L746.998 100.901C746.973 101.381 747.073 101.783 747.301 102.108C747.536 102.441 747.885 102.62 748.348 102.645C748.811 102.67 749.174 102.529 749.435 102.222C749.704 101.924 749.852 101.535 749.877 101.056ZM745.911 100.868L745.931 100.489C745.959 99.9757 745.847 99.5391 745.596 99.1795C745.345 98.8283 744.967 98.6391 744.462 98.612C743.965 98.5854 743.569 98.7371 743.272 99.0674C742.984 99.3981 742.827 99.816 742.8 100.321L742.779 100.7C742.752 101.213 742.864 101.646 743.115 101.997C743.366 102.357 743.744 102.55 744.249 102.577C744.754 102.604 745.15 102.457 745.438 102.134C745.725 101.812 745.883 101.39 745.911 100.868Z" fill="black"/>
<path d="M823.692 50.2724L831.375 56.393L823.081 61.656L830.764 67.7766L822.47 73.0396L830.153 79.1602L821.859 84.4233L829.542 90.5438L821.248 95.8069L828.931 101.927L820.637 107.19" stroke="#797979" stroke-width="1.91667"/>
<path d="M812.319 49.6619L820.002 55.7825L811.708 61.0456L819.391 67.1661L811.097 72.4292L818.78 78.5498L810.486 83.8128L818.169 89.9334L809.875 95.1964L817.558 101.317L809.264 106.58" stroke="#797979" stroke-width="1.91667"/>
<path d="M800.945 49.0515L808.628 55.1721L800.334 60.4351L808.017 66.5557L799.723 71.8187L807.406 77.9393L799.112 83.2023L806.795 89.3229L798.501 94.5859L806.184 100.707L797.89 105.97" stroke="#797979" stroke-width="1.91667"/>
</svg>
