<svg width="842" height="149" viewBox="0 0 842 149" fill="none" xmlns="http://www.w3.org/2000/svg">
<rect x="97.5542" y="70.5891" width="741" height="69" transform="rotate(-5.46641 97.5542 70.5891)" fill="#FF5C00"/>
<rect y="79.9248" width="98" height="69" transform="rotate(-5.46641 0 79.9248)" fill="#D9D9D9"/>
<path d="M100.489 128.481L101.597 128.375L102.198 134.656L101.443 134.729L98.1704 131.993C97.6003 131.522 97.1319 131.186 96.7653 130.984C96.3208 130.764 95.8762 130.675 95.4314 130.718C94.9195 130.767 94.5311 130.957 94.2663 131.287C94.0007 131.609 93.8924 132.025 93.9414 132.537C93.9904 133.049 94.193 133.441 94.5492 133.711C94.8962 133.975 95.3298 134.081 95.8502 134.032L96.4292 133.976L96.5437 135.172L95.952 135.229C95.0876 135.311 94.3742 135.113 93.8116 134.633C93.2407 134.154 92.9147 133.491 92.8336 132.643C92.7525 131.796 92.938 131.079 93.3901 130.494C93.8423 129.909 94.4837 129.576 95.3146 129.497C95.9608 129.435 96.5563 129.552 97.1011 129.847C97.6368 130.134 98.2281 130.56 98.8749 131.125L100.906 132.836L100.489 128.481ZM92.0383 124.333C91.9428 123.334 92.1672 122.538 92.7116 121.944C93.2553 121.341 94.018 120.993 94.9999 120.899L97.719 120.639C98.7344 120.542 99.5582 120.742 100.19 121.241C100.822 121.731 101.184 122.467 101.278 123.449C101.374 124.448 101.15 125.248 100.606 125.851C100.062 126.445 99.2984 126.789 98.3165 126.883L95.5974 127.143C94.5988 127.239 93.7792 127.037 93.1388 126.54C92.4983 126.042 92.1315 125.307 92.0383 124.333ZM100.17 123.555C100.11 122.925 99.8633 122.471 99.43 122.19C98.9874 121.902 98.4515 121.788 97.8221 121.849L95.1282 122.106C94.482 122.168 93.9773 122.382 93.6142 122.747C93.2427 123.113 93.0867 123.606 93.1461 124.227C93.2063 124.856 93.4577 125.315 93.9003 125.603C94.3336 125.883 94.865 125.994 95.4944 125.933L98.1883 125.675C98.8345 125.614 99.3433 125.4 99.7148 125.034C100.077 124.661 100.229 124.168 100.17 123.555ZM91.3452 115.896L100.321 115.037L100.438 116.258L92.8846 116.981L94.3806 119.073L93.2225 119.184L91.432 116.802L91.3452 115.896ZM96.5769 106.448C97.5084 106.359 98.2805 106.594 98.893 107.154C99.4971 107.714 99.8433 108.456 99.9317 109.379C100.023 110.336 99.8244 111.134 99.3351 111.774C98.8374 112.414 98.1228 112.779 97.1913 112.868C96.7549 112.91 96.3239 112.875 95.8982 112.763C95.4641 112.652 95.1178 112.529 94.8591 112.392C94.5913 112.249 94.219 112.03 93.742 111.737L90.8104 109.909L90.6719 108.461L94.232 110.75C94.026 110.457 93.9001 110.071 93.8544 109.592C93.77 108.711 93.9845 107.988 94.4978 107.422C95.0111 106.856 95.7041 106.532 96.5769 106.448ZM96.6938 107.669C96.0811 107.728 95.6204 107.958 95.3117 108.36C94.9938 108.755 94.8637 109.254 94.9215 109.859C94.9778 110.446 95.2082 110.907 95.6128 111.241C96.0165 111.566 96.5038 111.702 97.0744 111.647C97.6535 111.592 98.1058 111.362 98.4313 110.958C98.7484 110.555 98.8793 110.064 98.8239 109.485C98.7661 108.881 98.5437 108.415 98.1567 108.088C97.7688 107.752 97.2812 107.613 96.6938 107.669ZM97.5859 98.1412L98.6936 98.0352L99.2948 104.317L98.5395 104.389L95.2669 101.653C94.6968 101.183 94.2285 100.846 93.8619 100.644C93.4174 100.424 92.9728 100.336 92.528 100.378C92.0161 100.427 91.6277 100.617 91.3629 100.947C91.0973 101.269 90.989 101.686 91.0379 102.198C91.0869 102.71 91.2895 103.101 91.6457 103.372C91.9928 103.635 92.4264 103.742 92.9467 103.692L93.5258 103.637L93.6402 104.832L93.0486 104.889C92.1842 104.972 91.4707 104.773 90.9082 104.294C90.3373 103.815 90.0113 103.151 89.9302 102.304C89.8491 101.456 90.0346 100.74 90.4867 100.154C90.9388 99.5691 91.5803 99.2367 92.4111 99.1572C93.0573 99.0954 93.6529 99.212 94.1977 99.5071C94.7334 99.7946 95.3246 100.221 95.9715 100.786L98.0027 102.497L97.5859 98.1412ZM89.1349 93.9935C89.0393 92.9948 89.2638 92.1984 89.8082 91.6043C90.3519 91.0018 91.1146 90.6535 92.0965 90.5596L94.8156 90.2994C95.831 90.2022 96.6548 90.4028 97.2868 90.9013C97.9181 91.3914 98.2807 92.1273 98.3747 93.1092C98.4703 94.1079 98.2462 94.9085 97.7026 95.511C97.1581 96.1051 96.395 96.4492 95.4131 96.5431L92.694 96.8033C91.6954 96.8989 90.8758 96.6979 90.2353 96.2002C89.5949 95.7025 89.2281 94.9669 89.1349 93.9935ZM97.2669 93.2152C97.2067 92.5858 96.9599 92.1309 96.5266 91.8506C96.084 91.5627 95.548 91.4488 94.9186 91.509L92.2247 91.7668C91.5785 91.8287 91.0739 92.0421 90.7108 92.4071C90.3393 92.773 90.1832 93.2664 90.2427 93.8874C90.3029 94.5169 90.5543 94.9755 90.9968 95.2635C91.4302 95.5438 91.9615 95.6539 92.591 95.5937L95.2848 95.3359C95.931 95.274 96.4399 95.0602 96.8114 94.6943C97.1737 94.3209 97.3255 93.8279 97.2669 93.2152ZM88.4418 85.5563L97.4172 84.6973L97.5341 85.9184L89.9811 86.6412L91.4772 88.7338L90.319 88.8447L88.5286 86.4626L88.4418 85.5563ZM94.1422 75.9619C94.973 75.8824 95.6393 76.1192 96.1411 76.6725C96.6346 77.2266 96.9222 77.9316 97.0041 78.7876L97.0367 79.1275C97.1186 79.9835 96.9649 80.7223 96.5755 81.344C96.1769 81.958 95.5706 82.304 94.7566 82.3819C94.2614 82.4293 93.7942 82.3258 93.3549 82.0714C92.9064 81.8094 92.5925 81.4499 92.4132 80.9928C92.3207 81.442 92.1023 81.8144 91.7579 82.1099C91.4128 82.397 91.0052 82.563 90.5352 82.608C89.738 82.6843 89.1035 82.4698 88.6316 81.9644C88.1506 81.4515 87.8712 80.788 87.7933 79.974L87.762 79.6467C87.6825 78.8159 87.831 78.1114 88.2076 77.5334C88.5834 76.9469 89.1657 76.6159 89.9546 76.5405C90.4329 76.4947 90.8688 76.58 91.2621 76.7964C91.6471 77.0137 91.928 77.3382 92.1048 77.7702C92.1933 77.279 92.4333 76.8664 92.8248 76.5326C93.2079 76.1995 93.6471 76.0092 94.1422 75.9619ZM88.8446 79.5431L88.8759 79.8704C88.9216 80.3487 89.0857 80.7353 89.368 81.0301C89.6411 81.3173 90.0084 81.4389 90.4699 81.3947C90.9315 81.3505 91.2733 81.1611 91.4954 80.8265C91.7082 80.4843 91.7918 80.0741 91.746 79.5957L91.7147 79.2684C91.6689 78.7901 91.5095 78.4073 91.2364 78.1201C90.9541 77.8253 90.5822 77.6999 90.1206 77.7441C89.659 77.7883 89.3218 77.9815 89.109 78.3237C88.8869 78.6583 88.7988 79.0647 88.8446 79.5431ZM92.7949 79.1396L92.831 79.5173C92.88 80.0292 93.0552 80.4444 93.3567 80.7627C93.6574 81.0727 94.0595 81.2036 94.563 81.1554C95.0581 81.1081 95.4277 80.8991 95.6717 80.5285C95.9073 80.1587 96.0011 79.7221 95.9529 79.2185L95.9167 78.8409C95.8677 78.329 95.6929 77.918 95.3922 77.608C95.0908 77.2896 94.6883 77.1546 94.1847 77.2027C93.6812 77.2509 93.3112 77.4557 93.0748 77.8171C92.8384 78.1785 92.7451 78.6193 92.7949 79.1396Z" fill="black"/>
<path d="M23.3884 140.723L14.8818 135.811L22.3024 129.375L13.7958 124.463L21.2165 118.027L12.7098 113.115L20.1305 106.679L11.6239 101.767L19.0445 95.3307L10.5379 90.4187L17.9585 83.9825" stroke="#797979" stroke-width="1.91667"/>
<path d="M34.7263 139.638L26.2197 134.726L33.6403 128.29L25.1337 123.378L32.5543 116.942L24.0477 112.03L31.4684 105.594L22.9617 100.682L30.3824 94.2457L21.8758 89.3337L29.2964 82.8976" stroke="#797979" stroke-width="1.91667"/>
<path d="M46.0642 138.553L37.5576 133.641L44.9782 127.205L36.4716 122.293L43.8922 115.857L35.3856 110.945L42.8062 104.509L34.2996 99.5969L41.7203 93.1608L33.2136 88.2488L40.6343 81.8126" stroke="#797979" stroke-width="1.91667"/>
</svg>
