<svg width="843" height="125" viewBox="0 0 843 125" fill="none" xmlns="http://www.w3.org/2000/svg">
<rect x="103.015" y="6.64624" width="741" height="69" transform="rotate(3.82204 103.015 6.64624)" fill="#FF5C00"/>
<rect x="5.23267" y="0.11377" width="98" height="69" transform="rotate(3.82204 5.23267 0.11377)" fill="#D9D9D9"/>
<path d="M96.5672 64.2525L97.6776 64.3267L97.257 70.6229L96.4999 70.5723L93.7118 67.3443C93.2251 66.7879 92.8172 66.3804 92.4881 66.1219C92.0849 65.833 91.6604 65.6737 91.2146 65.6439C90.7015 65.6096 90.2876 65.7341 89.973 66.0172C89.6589 66.292 89.4847 66.6859 89.4504 67.199C89.4161 67.7121 89.5529 68.1311 89.8607 68.4558C90.1607 68.7716 90.5715 68.9469 91.093 68.9817L91.6734 69.0205L91.5933 70.2192L91.0003 70.1795C90.1339 70.1217 89.4618 69.8106 88.9841 69.2464C88.498 68.6816 88.2833 67.9744 88.3401 67.1248C88.3968 66.2752 88.6955 65.5981 89.2362 65.0935C89.7769 64.5889 90.4636 64.3644 91.2964 64.42C91.9441 64.4633 92.513 64.6745 93.003 65.0536C93.4853 65.4238 94 65.9398 94.5472 66.6016L96.2756 68.6182L96.5672 64.2525ZM88.8965 58.7951C88.9634 57.7941 89.3135 57.0444 89.9467 56.5459C90.5804 56.0391 91.3894 55.8185 92.3736 55.8843L95.099 56.0663C96.1168 56.1343 96.8974 56.4653 97.4407 57.0593C97.9846 57.6448 98.2236 58.4297 98.1579 59.4138C98.091 60.4148 97.7407 61.1688 97.1069 61.6756C96.4737 62.1741 95.665 62.3904 94.6809 62.3247L91.9555 62.1426C90.9545 62.0757 90.1781 61.745 89.6264 61.1505C89.0746 60.556 88.8314 59.7709 88.8965 58.7951ZM97.0475 59.3397C97.0897 58.7088 96.9195 58.22 96.5371 57.8734C96.1469 57.5178 95.6363 57.3189 95.0054 57.2768L92.3053 57.0964C91.6575 57.0531 91.1251 57.1823 90.7078 57.484C90.2821 57.7851 90.0485 58.2468 90.0069 58.8693C89.9647 59.5002 90.1388 59.9934 90.5291 60.349C90.9115 60.6956 91.4181 60.89 92.049 60.9322L94.7492 61.1126C95.3969 61.1558 95.9336 61.0269 96.3593 60.7258C96.7771 60.4158 97.0065 59.9537 97.0475 59.3397ZM89.5744 50.3567L98.5707 50.9577L98.489 52.1816L90.9184 51.6758L92.057 53.9825L90.8962 53.905L89.5137 51.2652L89.5744 50.3567ZM96.2624 41.8771C97.1961 41.9394 97.92 42.2962 98.4341 42.9474C98.9399 43.5979 99.1618 44.3859 99.1 45.3112C99.036 46.2701 98.7109 47.0257 98.1248 47.578C97.5303 48.1298 96.7662 48.3744 95.8325 48.3121C95.395 48.2828 94.9753 48.1788 94.5733 47.9998C94.1628 47.8203 93.8409 47.6425 93.6076 47.4664C93.3665 47.2813 93.0343 47.0056 92.611 46.6393L90.0129 44.3619L90.1098 42.9109L93.2537 45.7444C93.0979 45.4214 93.036 45.0201 93.068 44.5406C93.127 43.6574 93.4555 42.9781 94.0533 42.5026C94.6512 42.0271 95.3875 41.8186 96.2624 41.8771ZM96.1806 43.101C95.5665 43.06 95.0747 43.213 94.7051 43.5601C94.3276 43.8982 94.1187 44.37 94.0782 44.9757C94.0389 45.5645 94.1919 46.0563 94.5373 46.4512C94.8832 46.8376 95.3422 47.0499 95.9142 47.0881C96.4946 47.1269 96.9781 46.9733 97.3645 46.6274C97.7425 46.2809 97.9509 45.8174 97.9897 45.237C98.0301 44.6313 97.8858 44.1359 97.5567 43.7506C97.2281 43.3568 96.7694 43.1403 96.1806 43.101ZM98.5988 33.842L99.7092 33.9162L99.2886 40.2124L98.5315 40.1618L95.7434 36.9338C95.2568 36.3775 94.8488 35.97 94.5197 35.7114C94.1165 35.4225 93.692 35.2632 93.2462 35.2334C92.7331 35.1992 92.3192 35.3236 92.0046 35.6068C91.6905 35.8815 91.5163 36.2754 91.482 36.7885C91.4478 37.3017 91.5845 37.7206 91.8924 38.0453C92.1923 38.3611 92.6031 38.5364 93.1246 38.5712L93.705 38.61L93.6249 39.8087L93.0319 39.7691C92.1655 39.7112 91.4934 39.4001 91.0157 38.8359C90.5296 38.2711 90.3149 37.564 90.3717 36.7144C90.4284 35.8648 90.7272 35.1877 91.2678 34.683C91.8085 34.1784 92.4952 33.9539 93.328 34.0095C93.9757 34.0528 94.5446 34.264 95.0346 34.6432C95.5169 35.0134 96.0316 35.5294 96.5788 36.1912L98.3072 38.2077L98.5988 33.842ZM90.9282 28.3847C90.995 27.3837 91.3451 26.6339 91.9783 26.1355C92.612 25.6286 93.421 25.4081 94.4052 25.4738L97.1306 25.6559C98.1484 25.7239 98.929 26.0549 99.4723 26.6488C100.016 27.2343 100.255 28.0192 100.189 29.0034C100.123 30.0044 99.7723 30.7583 99.1385 31.2652C98.5053 31.7636 97.6967 31.98 96.7125 31.9142L93.9871 31.7322C92.9861 31.6653 92.2097 31.3346 91.658 30.7401C91.1062 30.1456 90.863 29.3604 90.9282 28.3847ZM99.0791 28.9292C99.1213 28.2983 98.9512 27.8096 98.5688 27.4629C98.1785 27.1074 97.6679 26.9085 97.037 26.8663L94.3369 26.6859C93.6892 26.6427 93.1567 26.7719 92.7394 27.0735C92.3137 27.3746 92.0801 27.8364 92.0385 28.4588C91.9964 29.0897 92.1704 29.583 92.5607 29.9386C92.9431 30.2852 93.4497 30.4796 94.0806 30.5217L96.7808 30.7021C97.4285 30.7454 97.9652 30.6165 98.3909 30.3154C98.8087 30.0053 99.0381 29.5433 99.0791 28.9292ZM91.606 19.9462L100.602 20.5472L100.521 21.7711L92.95 21.2654L94.0886 23.5721L92.9278 23.4945L91.5453 20.8547L91.606 19.9462ZM98.7802 11.3977C99.6129 11.4533 100.232 11.7947 100.638 12.4217C101.036 13.0481 101.206 13.7904 101.149 14.6484L101.126 14.989C101.068 15.847 100.797 16.5513 100.313 17.102C99.8204 17.6436 99.1662 17.8872 98.3503 17.8327C97.854 17.7995 97.4096 17.622 97.0171 17.3C96.6167 16.9691 96.365 16.5636 96.2619 16.0836C96.0981 16.512 95.8224 16.8442 95.4348 17.0803C95.0479 17.3079 94.6189 17.406 94.1478 17.3745C93.3487 17.3211 92.7571 17.007 92.373 16.4321C91.9811 15.8483 91.8124 15.1484 91.8669 14.3325L91.8888 14.0044C91.9445 13.1716 92.2048 12.5004 92.6697 11.9907C93.1353 11.4726 93.7634 11.24 94.5541 11.2928C95.0336 11.3248 95.4499 11.4794 95.8032 11.7565C96.148 12.033 96.3729 12.3987 96.4777 12.8535C96.6443 12.383 96.9477 12.0146 97.388 11.7483C97.8198 11.4814 98.2839 11.3645 98.7802 11.3977ZM92.974 14.0769L92.952 14.405C92.92 14.8844 93.0195 15.2924 93.2505 15.6289C93.4736 15.9565 93.8165 16.1357 94.2792 16.1666C94.7418 16.1975 95.1097 16.0658 95.3829 15.7714C95.6482 15.468 95.7968 15.0766 95.8289 14.5971L95.8508 14.2691C95.8828 13.7896 95.7873 13.3861 95.5641 13.0586C95.3331 12.7221 94.9863 12.5384 94.5236 12.5075C94.061 12.4766 93.697 12.6128 93.4317 12.9161C93.1586 13.2105 93.006 13.5974 92.974 14.0769ZM96.9376 14.3163L96.9123 14.6949C96.878 15.208 96.9839 15.646 97.2301 16.0088C97.4768 16.3633 97.8525 16.5574 98.3572 16.5911C98.8535 16.6243 99.2519 16.4777 99.5526 16.1513C99.8448 15.8244 100.008 15.4086 100.041 14.9039L100.067 14.5254C100.101 14.0123 99.9948 13.5785 99.7481 13.224C99.502 12.8612 99.1266 12.6629 98.6219 12.6292C98.1172 12.5954 97.719 12.7378 97.4273 13.0563C97.1357 13.3748 96.9724 13.7948 96.9376 14.3163Z" fill="black"/>
<path d="M18.5013 63.89L10.8991 57.6694L19.2612 52.5154L11.659 46.2948L20.0211 41.1407L12.4189 34.9201L20.781 29.7661L13.1788 23.5455L21.5409 18.3914L13.9387 12.1708L22.3008 7.01678" stroke="#797979" stroke-width="1.91667"/>
<path d="M29.8656 64.6493L22.2633 58.4287L30.6255 53.2746L23.0232 47.0541L31.3854 41.9L23.7831 35.6794L32.1453 30.5254L24.543 24.3048L32.9052 19.1507L25.3029 12.9301L33.6651 7.77606" stroke="#797979" stroke-width="1.91667"/>
<path d="M41.2298 65.4084L33.6276 59.1879L41.9897 54.0338L34.3875 47.8132L42.7496 42.6592L35.1474 36.4386L43.5095 31.2845L35.9073 25.0639L44.2694 19.9099L36.6672 13.6893L45.0293 8.53522" stroke="#797979" stroke-width="1.91667"/>
</svg>
