<svg width="661" height="1098" viewBox="0 0 661 1098" fill="none" xmlns="http://www.w3.org/2000/svg">
<mask id="path-1-inside-1_391_915" fill="white">
<path d="M632.296 0V6.04296C632.296 15.2699 622.926 22.7423 611.356 22.7423C599.785 22.7423 590.415 15.2699 590.415 6.04296V0H575.993V6.04296C575.993 15.2699 566.622 22.7423 555.052 22.7423C543.481 22.7423 534.111 15.2699 534.111 6.04296V0H519.689V6.04296C519.689 15.2699 510.318 22.7423 498.748 22.7423C487.178 22.7423 477.807 15.2699 477.807 6.04296V0H463.385V6.04296C463.385 15.2699 454.015 22.7423 442.444 22.7423C430.874 22.7423 421.504 15.2699 421.504 6.04296V0H407.081V6.04296C407.081 15.2699 397.711 22.7423 386.141 22.7423C374.57 22.7423 365.2 15.2699 365.2 6.04296V0H350.778V6.04296C350.778 15.2699 341.407 22.7423 329.837 22.7423C318.267 22.7423 308.896 15.2699 308.896 6.04296V0H294.474V6.04296C294.474 15.2699 285.104 22.7423 273.533 22.7423C261.963 22.7423 252.593 15.2699 252.593 6.04296V0H238.17V6.04296C238.17 15.2699 228.8 22.7423 217.23 22.7423C205.659 22.7423 196.289 15.2699 196.289 6.04296V0H181.867V6.04296C181.867 15.2699 172.496 22.7423 160.926 22.7423C149.356 22.7423 139.985 15.2699 139.985 6.04296V0H125.563V6.04296C125.563 15.2699 116.193 22.7423 104.622 22.7423C93.0518 22.7423 83.6815 15.2699 83.6815 6.04296V0H69.2593V6.04296C69.2593 15.2699 59.8889 22.7423 48.3185 22.7423C36.7481 22.7423 27.6222 15.2049 27.6222 6.04296V0H0V1098H27.6222V1091.96C27.6222 1082.73 36.9926 1075.26 48.563 1075.26C60.1333 1075.26 69.5037 1082.73 69.5037 1091.96V1098H83.9259V1091.96C83.9259 1082.73 93.2963 1075.26 104.867 1075.26C116.437 1075.26 125.807 1082.73 125.807 1091.96V1098H140.23V1091.96C140.23 1082.73 149.6 1075.26 161.17 1075.26C172.741 1075.26 182.111 1082.73 182.111 1091.96V1098H196.533V1091.96C196.533 1082.73 205.904 1075.26 217.474 1075.26C229.044 1075.26 238.415 1082.73 238.415 1091.96V1098H252.837V1091.96C252.837 1082.73 262.207 1075.26 273.778 1075.26C285.348 1075.26 294.718 1082.73 294.718 1091.96V1098H309.141V1091.96C309.141 1082.73 318.511 1075.26 330.081 1075.26C341.652 1075.26 351.022 1082.73 351.022 1091.96V1098H365.444V1091.96C365.444 1082.73 374.815 1075.26 386.385 1075.26C397.956 1075.26 407.326 1082.73 407.326 1091.96V1098H421.748V1091.96C421.748 1082.73 431.118 1075.26 442.689 1075.26C454.259 1075.26 463.63 1082.73 463.63 1091.96V1098H478.052V1091.96C478.052 1082.73 487.422 1075.26 498.993 1075.26C510.563 1075.26 519.933 1082.73 519.933 1091.96V1098H534.356V1091.96C534.356 1082.73 543.726 1075.26 555.296 1075.26C566.867 1075.26 576.237 1082.73 576.237 1091.96V1098H590.659V1091.96C590.659 1082.73 600.03 1075.26 611.6 1075.26C623.17 1075.26 632.541 1082.73 632.541 1091.96V1098H660.163V0H632.541H632.296Z"/>
</mask>
<path d="M632.296 0V6.04296C632.296 15.2699 622.926 22.7423 611.356 22.7423C599.785 22.7423 590.415 15.2699 590.415 6.04296V0H575.993V6.04296C575.993 15.2699 566.622 22.7423 555.052 22.7423C543.481 22.7423 534.111 15.2699 534.111 6.04296V0H519.689V6.04296C519.689 15.2699 510.318 22.7423 498.748 22.7423C487.178 22.7423 477.807 15.2699 477.807 6.04296V0H463.385V6.04296C463.385 15.2699 454.015 22.7423 442.444 22.7423C430.874 22.7423 421.504 15.2699 421.504 6.04296V0H407.081V6.04296C407.081 15.2699 397.711 22.7423 386.141 22.7423C374.57 22.7423 365.2 15.2699 365.2 6.04296V0H350.778V6.04296C350.778 15.2699 341.407 22.7423 329.837 22.7423C318.267 22.7423 308.896 15.2699 308.896 6.04296V0H294.474V6.04296C294.474 15.2699 285.104 22.7423 273.533 22.7423C261.963 22.7423 252.593 15.2699 252.593 6.04296V0H238.17V6.04296C238.17 15.2699 228.8 22.7423 217.23 22.7423C205.659 22.7423 196.289 15.2699 196.289 6.04296V0H181.867V6.04296C181.867 15.2699 172.496 22.7423 160.926 22.7423C149.356 22.7423 139.985 15.2699 139.985 6.04296V0H125.563V6.04296C125.563 15.2699 116.193 22.7423 104.622 22.7423C93.0518 22.7423 83.6815 15.2699 83.6815 6.04296V0H69.2593V6.04296C69.2593 15.2699 59.8889 22.7423 48.3185 22.7423C36.7481 22.7423 27.6222 15.2049 27.6222 6.04296V0H0V1098H27.6222V1091.96C27.6222 1082.73 36.9926 1075.26 48.563 1075.26C60.1333 1075.26 69.5037 1082.73 69.5037 1091.96V1098H83.9259V1091.96C83.9259 1082.73 93.2963 1075.26 104.867 1075.26C116.437 1075.26 125.807 1082.73 125.807 1091.96V1098H140.23V1091.96C140.23 1082.73 149.6 1075.26 161.17 1075.26C172.741 1075.26 182.111 1082.73 182.111 1091.96V1098H196.533V1091.96C196.533 1082.73 205.904 1075.26 217.474 1075.26C229.044 1075.26 238.415 1082.73 238.415 1091.96V1098H252.837V1091.96C252.837 1082.73 262.207 1075.26 273.778 1075.26C285.348 1075.26 294.718 1082.73 294.718 1091.96V1098H309.141V1091.96C309.141 1082.73 318.511 1075.26 330.081 1075.26C341.652 1075.26 351.022 1082.73 351.022 1091.96V1098H365.444V1091.96C365.444 1082.73 374.815 1075.26 386.385 1075.26C397.956 1075.26 407.326 1082.73 407.326 1091.96V1098H421.748V1091.96C421.748 1082.73 431.118 1075.26 442.689 1075.26C454.259 1075.26 463.63 1082.73 463.63 1091.96V1098H478.052V1091.96C478.052 1082.73 487.422 1075.26 498.993 1075.26C510.563 1075.26 519.933 1082.73 519.933 1091.96V1098H534.356V1091.96C534.356 1082.73 543.726 1075.26 555.296 1075.26C566.867 1075.26 576.237 1082.73 576.237 1091.96V1098H590.659V1091.96C590.659 1082.73 600.03 1075.26 611.6 1075.26C623.17 1075.26 632.541 1082.73 632.541 1091.96V1098H660.163V0H632.541H632.296Z" stroke="#0029FF" stroke-width="6" mask="url(#path-1-inside-1_391_915)"/>
<path d="M526.37 831.956H500.215V835.984H526.37V831.956Z" fill="#0E0E0E"/>
<path d="M421.585 831.956H395.43V835.984H421.585V831.956Z" fill="#0E0E0E"/>
<path d="M578.763 831.956H552.607V835.984H578.763V831.956Z" fill="#0E0E0E"/>
<path d="M631.156 831.956H605V835.984H631.156V831.956Z" fill="#0E0E0E"/>
<path d="M660 831.956H657.393V835.984H660V831.956Z" fill="#0E0E0E"/>
<path d="M369.274 831.956H343.119V835.984H369.274V831.956Z" fill="#0E0E0E"/>
<path d="M473.978 831.956H447.822V835.984H473.978V831.956Z" fill="#0E0E0E"/>
<path d="M107.311 831.956H81.1555V835.984H107.311V831.956Z" fill="#0E0E0E"/>
<path d="M54.9185 831.956H28.7629V835.984H54.9185V831.956Z" fill="#0E0E0E"/>
<path d="M2.60741 831.956H0V835.984H2.60741V831.956Z" fill="#0E0E0E"/>
<path d="M316.881 831.956H290.726V835.984H316.881V831.956Z" fill="#0E0E0E"/>
<path d="M159.704 831.956H133.548V835.984H159.704V831.956Z" fill="#0E0E0E"/>
<path d="M264.489 831.956H238.333V835.984H264.489V831.956Z" fill="#0E0E0E"/>
<path d="M212.096 831.956H185.941V835.984H212.096V831.956Z" fill="#0E0E0E"/>
<path d="M95.0074 893.295H92.1555V1006.81H95.0074V893.295Z" fill="#0029FF"/>
<path d="M106.904 893.295H102.667V1006.81H106.904V893.295Z" fill="#0029FF"/>
<path d="M117.496 893.295H114.644V1006.81H117.496V893.295Z" fill="#0029FF"/>
<path d="M132.081 893.295H129.23V1006.81H132.081V893.295Z" fill="#0029FF"/>
<path d="M150.415 893.295H141.941V1006.81H150.415V893.295Z" fill="#0029FF"/>
<path d="M161.007 893.295H156.77V1006.81H161.007V893.295Z" fill="#0029FF"/>
<path d="M176 893.295H171.763V1006.81H176V893.295Z" fill="#0029FF"/>
<path d="M199.711 893.295H191.237V1006.81H199.711V893.295Z" fill="#0029FF"/>
<path d="M220.407 893.295H211.933V1006.81H220.407V893.295Z" fill="#0029FF"/>
<path d="M231.244 893.295H228.393V1006.81H231.244V893.295Z" fill="#0029FF"/>
<path d="M242.978 893.295H240.126V1006.81H242.978V893.295Z" fill="#0029FF"/>
<path d="M262.941 893.295H258.704V1006.81H262.941V893.295Z" fill="#0029FF"/>
<path d="M278.911 893.295H274.674V1006.81H278.911V893.295Z" fill="#0029FF"/>
<path d="M297 893.295H288.526V1006.81H297V893.295Z" fill="#0029FF"/>
<path d="M306.615 893.295H302.378V1006.81H306.615V893.295Z" fill="#0029FF"/>
<path d="M322.585 893.295H318.348V1006.81H322.585V893.295Z" fill="#0029FF"/>
<path d="M336.926 893.295H334.074V1006.81H336.926V893.295Z" fill="#0029FF"/>
<path d="M354.363 893.295H351.511V1006.81H354.363V893.295Z" fill="#0029FF"/>
<path d="M370.496 893.295H366.259V1006.81H370.496V893.295Z" fill="#0029FF"/>
<path d="M379.948 893.295H375.711V1006.81H379.948V893.295Z" fill="#0029FF"/>
<path d="M391.926 893.295H389.074V1006.81H391.926V893.295Z" fill="#0029FF"/>
<path d="M402.274 893.295H399.422V1006.81H402.274V893.295Z" fill="#0029FF"/>
<path d="M422.889 893.295H414.415V1006.81H422.889V893.295Z" fill="#0029FF"/>
<path d="M437.23 893.295H432.993V1006.81H437.23V893.295Z" fill="#0029FF"/>
<path d="M470.881 893.295H468.03V1006.81H470.881V893.295Z" fill="#0029FF"/>
<path d="M488.726 893.295H480.252V1006.81H488.726V893.295Z" fill="#0029FF"/>
<path d="M499.726 893.295H495.489V1006.81H499.726V893.295Z" fill="#0029FF"/>
<path d="M522.785 893.295H518.548V1006.81H522.785V893.295Z" fill="#0029FF"/>
<path d="M538.511 893.295H535.659V1006.81H538.511V893.295Z" fill="#0029FF"/>
<path d="M557.252 893.295H548.778V1006.81H557.252V893.295Z" fill="#0029FF"/>
<path d="M567.844 893.295H563.607V1006.81H567.844V893.295Z" fill="#0029FF"/>
</svg>
